<?xml version="1.0" standalone="yes"?>

<svg version="1.1" viewBox="0.0 0.0 437.45931758530185 214.05774278215222" fill="none" stroke="none" stroke-linecap="square" stroke-miterlimit="10" xmlns="http://www.w3.org/2000/svg" xmlns:xlink="http://www.w3.org/1999/xlink"><clipPath id="p.0"><path d="m0 0l437.45932 0l0 214.05774l-437.45932 0l0 -214.05774z" clip-rule="nonzero"></path></clipPath><g clip-path="url(#p.0)"><path fill="#000000" fill-opacity="0.0" d="m0 0l437.45932 0l0 214.05774l-437.45932 0z" fill-rule="evenodd"></path><path fill="#000000" fill-opacity="0.0" d="m143.57755 83.38106l0 -10.425201" fill-rule="evenodd"></path><path stroke="#000000" stroke-width="1.0" stroke-linejoin="round" stroke-linecap="butt" d="m143.57755 83.38106l0 -10.425201" fill-rule="evenodd"></path><path fill="#ffffff" d="m137.51456 72.95586l6.0629883 -12.629921l6.0629883 12.629921z" fill-rule="evenodd"></path><path stroke="#000000" stroke-width="1.0" stroke-linejoin="round" stroke-linecap="butt" d="m137.51456 72.95586l6.0629883 -12.629921l6.0629883 12.629921z" fill-rule="evenodd"></path><path fill="#000000" fill-opacity="0.0" d="m13.511872 145.13339l95.46457 0l0 14.992126l-95.46457 0z" fill-rule="evenodd"></path><path fill="#000000" d="m23.214996 156.36946l0 -7.875l0.96875 0l0 7.875l-0.96875 0zm2.3987274 -6.765625l0 -1.109375l0.96875 0l0 1.109375l-0.96875 0zm0 6.765625l0 -5.703125l0.96875 0l0 5.703125l-0.96875 0zm1.9768524 -1.703125l0.953125 -0.15625q0.078125 0.578125 0.4375 0.890625q0.375 0.296875 1.03125 0.296875q0.671875 0 0.984375 -0.265625q0.328125 -0.265625 0.328125 -0.640625q0 -0.328125 -0.28125 -0.515625q-0.203125 -0.125 -0.984375 -0.328125q-1.0625 -0.265625 -1.484375 -0.453125q-0.40625 -0.203125 -0.625 -0.546875q-0.203125 -0.34375 -0.203125 -0.765625q0 -0.390625 0.171875 -0.703125q0.171875 -0.328125 0.484375 -0.546875q0.21875 -0.171875 0.609375 -0.28125q0.390625 -0.109375 0.828125 -0.109375q0.671875 0 1.171875 0.1875q0.515625 0.1875 0.75 0.53125q0.25 0.328125 0.34375 0.875l-0.9375 0.125q-0.078125 -0.4375 -0.390625 -0.671875q-0.296875 -0.25 -0.859375 -0.25q-0.671875 0 -0.953125 0.21875q-0.28125 0.21875 -0.28125 0.515625q0 0.1875 0.109375 0.328125q0.125 0.15625 0.375 0.265625q0.140625 0.046875 0.859375 0.25q1.015625 0.265625 1.421875 0.4375q0.40625 0.171875 0.640625 0.515625q0.234375 0.328125 0.234375 0.828125q0 0.484375 -0.28125 0.90625q-0.28125 0.421875 -0.8125 0.65625q-0.53125 0.234375 -1.203125 0.234375q-1.109375 0 -1.703125 -0.453125q-0.578125 -0.46875 -0.734375 -1.375zm7.828125 0.84375l0.125 0.84375q-0.40625 0.09375 -0.71875 0.09375q-0.53125 0 -0.828125 -0.171875q-0.28125 -0.171875 -0.40625 -0.4375q-0.109375 -0.265625 -0.109375 -1.140625l0 -3.28125l-0.71875 0l0 -0.75l0.71875 0l0 -1.40625l0.953125 -0.59375l0 2.0l0.984375 0l0 0.75l-0.984375 0l0 3.34375q0 0.40625 0.046875 0.53125q0.0625 0.109375 0.171875 0.1875q0.125 0.0625 0.328125 0.0625q0.171875 0 0.4375 -0.03125zm0.6481476 -2.96875q0 -1.96875 1.046875 -3.078125q1.0625 -1.109375 2.71875 -1.109375q1.09375 0 1.96875 0.53125q0.875 0.515625 1.328125 1.453125q0.46875 0.921875 0.46875 2.109375q0 1.1875 -0.484375 2.140625q-0.484375 0.9375 -1.375 1.4375q-0.875 0.484375 -1.90625 0.484375q-1.109375 0 -1.984375 -0.53125q-0.875 -0.546875 -1.328125 -1.46875q-0.453125 -0.9375 -0.453125 -1.96875zm1.078125 0.015625q0 1.421875 0.765625 2.25q0.765625 0.8125 1.921875 0.8125q1.171875 0 1.921875 -0.828125q0.765625 -0.828125 0.765625 -2.359375q0 -0.953125 -0.328125 -1.671875q-0.3125 -0.71875 -0.9375 -1.109375q-0.625 -0.390625 -1.40625 -0.390625q-1.109375 0 -1.90625 0.765625q-0.796875 0.75 -0.796875 2.53125zm7.6325226 3.8125l0 -4.953125l-0.84375 0l0 -0.75l0.84375 0l0 -0.609375q0 -0.578125 0.109375 -0.859375q0.140625 -0.375 0.484375 -0.609375q0.359375 -0.234375 0.984375 -0.234375q0.40625 0 0.90625 0.109375l-0.140625 0.84375q-0.3125 -0.0625 -0.578125 -0.0625q-0.4375 0 -0.625 0.1875q-0.171875 0.1875 -0.171875 0.703125l0 0.53125l1.109375 0l0 0.75l-1.109375 0l0 4.953125l-0.96875 0zm2.5075226 -2.53125l0.984375 -0.078125q0.0625 0.578125 0.3125 0.96875q0.265625 0.375 0.796875 0.609375q0.53125 0.234375 1.203125 0.234375q0.609375 0 1.0625 -0.171875q0.453125 -0.1875 0.671875 -0.484375q0.234375 -0.3125 0.234375 -0.6875q0 -0.375 -0.21875 -0.640625q-0.21875 -0.28125 -0.71875 -0.46875q-0.3125 -0.125 -1.40625 -0.375q-1.078125 -0.265625 -1.515625 -0.5q-0.5625 -0.296875 -0.84375 -0.734375q-0.265625 -0.4375 -0.265625 -0.984375q0 -0.59375 0.328125 -1.109375q0.34375 -0.515625 0.984375 -0.78125q0.65625 -0.28125 1.453125 -0.28125q0.875 0 1.546875 0.296875q0.671875 0.28125 1.03125 0.828125q0.359375 0.546875 0.390625 1.234375l-1.0 0.078125q-0.078125 -0.75 -0.546875 -1.125q-0.46875 -0.390625 -1.375 -0.390625q-0.9375 0 -1.375 0.359375q-0.4375 0.34375 -0.4375 0.828125q0 0.421875 0.3125 0.703125q0.296875 0.265625 1.5625 0.5625q1.28125 0.28125 1.75 0.5q0.6875 0.3125 1.015625 0.796875q0.328125 0.484375 0.328125 1.125q0 0.625 -0.359375 1.1875q-0.359375 0.546875 -1.046875 0.859375q-0.671875 0.3125 -1.515625 0.3125q-1.0625 0 -1.78125 -0.3125q-0.71875 -0.3125 -1.140625 -0.9375q-0.40625 -0.625 -0.421875 -1.421875zm7.3107605 2.53125l0 -7.875l0.96875 0l0 7.875l-0.96875 0zm2.3987274 -6.765625l0 -1.109375l0.96875 0l0 1.109375l-0.96875 0zm0 6.765625l0 -5.703125l0.96875 0l0 5.703125l-0.96875 0zm6.0862274 -2.09375l0.9375 0.125q-0.140625 0.984375 -0.796875 1.546875q-0.640625 0.546875 -1.5625 0.546875q-1.171875 0 -1.890625 -0.765625q-0.703125 -0.765625 -0.703125 -2.1875q0 -0.921875 0.296875 -1.609375q0.3125 -0.703125 0.9375 -1.046875q0.625 -0.34375 1.359375 -0.34375q0.921875 0 1.515625 0.46875q0.59375 0.46875 0.765625 1.328125l-0.953125 0.140625q-0.125 -0.5625 -0.46875 -0.84375q-0.34375 -0.296875 -0.828125 -0.296875q-0.71875 0 -1.1875 0.53125q-0.453125 0.515625 -0.453125 1.640625q0 1.15625 0.4375 1.671875q0.4375 0.515625 1.15625 0.515625q0.5625 0 0.9375 -0.34375q0.390625 -0.34375 0.5 -1.078125zm5.5 0.25l1.0 0.125q-0.234375 0.875 -0.875 1.359375q-0.640625 0.484375 -1.625 0.484375q-1.25 0 -1.984375 -0.765625q-0.734375 -0.765625 -0.734375 -2.15625q0 -1.453125 0.734375 -2.234375q0.75 -0.796875 1.921875 -0.796875q1.15625 0 1.875 0.78125q0.71875 0.765625 0.71875 2.1875q0 0.078125 0 0.25l-4.25 0q0.046875 0.9375 0.515625 1.4375q0.484375 0.5 1.203125 0.5q0.53125 0 0.90625 -0.265625q0.375 -0.28125 0.59375 -0.90625zm-3.171875 -1.5625l3.1875 0q-0.0625 -0.71875 -0.359375 -1.078125q-0.46875 -0.546875 -1.203125 -0.546875q-0.671875 0 -1.125 0.453125q-0.453125 0.4375 -0.5 1.171875zm4.8171234 1.703125l0.953125 -0.15625q0.078125 0.578125 0.4375 0.890625q0.375 0.296875 1.03125 0.296875q0.671875 0 0.984375 -0.265625q0.328125 -0.265625 0.328125 -0.640625q0 -0.328125 -0.28125 -0.515625q-0.203125 -0.125 -0.984375 -0.328125q-1.0625 -0.265625 -1.484375 -0.453125q-0.40625 -0.203125 -0.625 -0.546875q-0.203125 -0.34375 -0.203125 -0.765625q0 -0.390625 0.171875 -0.703125q0.171875 -0.328125 0.484375 -0.546875q0.21875 -0.171875 0.609375 -0.28125q0.390625 -0.109375 0.828125 -0.109375q0.671875 0 1.171875 0.1875q0.515625 0.1875 0.75 0.53125q0.25 0.328125 0.34375 0.875l-0.9375 0.125q-0.078125 -0.4375 -0.390625 -0.671875q-0.296875 -0.25 -0.859375 -0.25q-0.671875 0 -0.953125 0.21875q-0.28125 0.21875 -0.28125 0.515625q0 0.1875 0.109375 0.328125q0.125 0.15625 0.375 0.265625q0.140625 0.046875 0.859375 0.25q1.015625 0.265625 1.421875 0.4375q0.40625 0.171875 0.640625 0.515625q0.234375 0.328125 0.234375 0.828125q0 0.484375 -0.28125 0.90625q-0.28125 0.421875 -0.8125 0.65625q-0.53125 0.234375 -1.203125 0.234375q-1.109375 0 -1.703125 -0.453125q-0.578125 -0.46875 -0.734375 -1.375z" fill-rule="nonzero"></path><path fill="#000000" fill-opacity="0.0" d="m151.07515 146.19052l36.0 0l0 14.992126l-36.0 0z" fill-rule="evenodd"></path><path fill="#000000" d="m161.53088 153.53596q0 -1.390625 0.28125 -2.234375q0.296875 -0.859375 0.859375 -1.3125q0.578125 -0.46875 1.4375 -0.46875q0.625 0 1.09375 0.265625q0.484375 0.25 0.796875 0.734375q0.3125 0.46875 0.484375 1.171875q0.1875 0.6875 0.1875 1.84375q0 1.390625 -0.296875 2.25q-0.28125 0.84375 -0.84375 1.3125q-0.5625 0.46875 -1.421875 0.46875q-1.140625 0 -1.796875 -0.828125q-0.78125 -0.984375 -0.78125 -3.203125zm1.0 0q0 1.953125 0.453125 2.59375q0.453125 0.640625 1.125 0.640625q0.65625 0 1.109375 -0.640625q0.453125 -0.65625 0.453125 -2.59375q0 -1.9375 -0.453125 -2.578125q-0.453125 -0.640625 -1.125 -0.640625q-0.671875 0 -1.0625 0.5625q-0.5 0.71875 -0.5 2.65625zm5.4733734 3.890625l0 -1.09375l1.09375 0l0 1.09375l-1.09375 0zm2.9606476 0l0 -1.09375l1.09375 0l0 1.09375l-1.09375 0zm2.3043976 -6.421875l0.25 -0.765625q0.84375 0.296875 1.234375 0.515625q-0.09375 -0.96875 -0.109375 -1.34375l0.78125 0q-0.015625 0.53125 -0.125 1.34375q0.5625 -0.28125 1.265625 -0.515625l0.25 0.765625q-0.671875 0.21875 -1.328125 0.296875q0.328125 0.28125 0.921875 1.015625l-0.640625 0.453125q-0.3125 -0.421875 -0.75 -1.15625q-0.390625 0.765625 -0.6875 1.15625l-0.640625 -0.453125q0.625 -0.765625 0.890625 -1.015625q-0.6875 -0.140625 -1.3125 -0.296875z" fill-rule="nonzero"></path><path fill="#000000" fill-opacity="0.0" d="m13.156311 161.08884l214.99213 0" fill-rule="evenodd"></path><path stroke="#000000" stroke-width="1.0" stroke-linejoin="round" stroke-linecap="butt" d="m13.156311 161.08884l214.99213 0" fill-rule="evenodd"></path><path fill="#000000" fill-opacity="0.0" d="m13.511872 161.41948l0 -28.40944" fill-rule="evenodd"></path><path stroke="#000000" stroke-width="1.0" stroke-linejoin="round" stroke-linecap="butt" d="m13.511872 161.41948l0 -28.40944" fill-rule="evenodd"></path><path fill="#000000" d="m8.740218 138.8475l4.771654 -5.05513l4.771653 5.05513l-4.771653 5.0551147z" fill-rule="evenodd"></path><path stroke="#000000" stroke-width="2.0" stroke-linejoin="round" stroke-linecap="butt" d="m8.740218 138.8475l4.771654 -5.05513l4.771653 5.05513l-4.771653 5.0551147z" fill-rule="evenodd"></path><path fill="#ffffff" d="m1.8440406 50.99252l216.0315 0l0 27.023624l-216.0315 0z" fill-rule="evenodd"></path><path stroke="#000000" stroke-width="1.0" stroke-linejoin="round" stroke-linecap="butt" d="m1.8440406 50.99252l216.0315 0l0 27.023624l-216.0315 0z" fill-rule="evenodd"></path><path fill="#000000" d="m81.04498 60.36933l2.90625 0q0.984375 0 1.5 0.15625q0.6875 0.203125 1.171875 0.71875q0.5 0.515625 0.75 1.28125q0.265625 0.75 0.265625 1.859375q0 0.96875 -0.234375 1.671875q-0.296875 0.859375 -0.84375 1.390625q-0.421875 0.40625 -1.125 0.625q-0.515625 0.171875 -1.40625 0.171875l-2.984375 0l0 -7.875zm1.59375 1.328125l0 5.21875l1.1875 0q0.65625 0 0.953125 -0.078125q0.390625 -0.09375 0.640625 -0.3125q0.265625 -0.234375 0.421875 -0.765625q0.15625 -0.53125 0.15625 -1.453125q0 -0.90625 -0.15625 -1.390625q-0.15625 -0.5 -0.453125 -0.765625q-0.296875 -0.28125 -0.734375 -0.375q-0.328125 -0.078125 -1.3125 -0.078125l-0.703125 0zm7.2268524 2.578125l-1.375 -0.25q0.234375 -0.8125 0.796875 -1.203125q0.5625 -0.40625 1.671875 -0.40625q1.015625 0 1.5 0.234375q0.5 0.234375 0.703125 0.609375q0.203125 0.359375 0.203125 1.34375l-0.015625 1.765625q0 0.75 0.0625 1.109375q0.078125 0.359375 0.28125 0.765625l-1.5 0q-0.0625 -0.15625 -0.140625 -0.453125q-0.03125 -0.125 -0.046875 -0.171875q-0.390625 0.375 -0.84375 0.5625q-0.4375 0.1875 -0.9375 0.1875q-0.875 0 -1.390625 -0.46875q-0.5 -0.484375 -0.5 -1.21875q0 -0.484375 0.234375 -0.859375q0.234375 -0.375 0.640625 -0.578125q0.421875 -0.203125 1.203125 -0.359375q1.0625 -0.1875 1.46875 -0.359375l0 -0.15625q0 -0.4375 -0.21875 -0.609375q-0.21875 -0.1875 -0.8125 -0.1875q-0.390625 0 -0.625 0.15625q-0.21875 0.15625 -0.359375 0.546875zm2.015625 1.234375q-0.296875 0.09375 -0.921875 0.234375q-0.625 0.125 -0.8125 0.25q-0.296875 0.21875 -0.296875 0.53125q0 0.328125 0.234375 0.5625q0.234375 0.21875 0.59375 0.21875q0.40625 0 0.78125 -0.265625q0.28125 -0.203125 0.359375 -0.5q0.0625 -0.1875 0.0625 -0.734375l0 -0.296875zm5.3952484 -2.96875l0 1.203125l-1.03125 0l0 2.296875q0 0.703125 0.03125 0.828125q0.03125 0.109375 0.125 0.1875q0.109375 0.0625 0.265625 0.0625q0.203125 0 0.609375 -0.140625l0.125 1.171875q-0.53125 0.21875 -1.1875 0.21875q-0.421875 0 -0.75 -0.125q-0.328125 -0.140625 -0.484375 -0.359375q-0.140625 -0.21875 -0.203125 -0.59375q-0.046875 -0.265625 -0.046875 -1.0625l0 -2.484375l-0.6875 0l0 -1.203125l0.6875 0l0 -1.140625l1.515625 -0.875l0 2.015625l1.03125 0zm2.0642395 1.734375l-1.375 -0.25q0.234375 -0.8125 0.796875 -1.203125q0.5625 -0.40625 1.671875 -0.40625q1.015625 0 1.5 0.234375q0.5 0.234375 0.703125 0.609375q0.203125 0.359375 0.203125 1.34375l-0.015625 1.765625q0 0.75 0.0625 1.109375q0.078125 0.359375 0.28125 0.765625l-1.5 0q-0.0625 -0.15625 -0.140625 -0.453125q-0.03125 -0.125 -0.046875 -0.171875q-0.390625 0.375 -0.84375 0.5625q-0.4375 0.1875 -0.9375 0.1875q-0.875 0 -1.390625 -0.46875q-0.5 -0.484375 -0.5 -1.21875q0 -0.484375 0.234375 -0.859375q0.234375 -0.375 0.640625 -0.578125q0.421875 -0.203125 1.203125 -0.359375q1.0625 -0.1875 1.46875 -0.359375l0 -0.15625q0 -0.4375 -0.21875 -0.609375q-0.21875 -0.1875 -0.8125 -0.1875q-0.390625 0 -0.625 0.15625q-0.21875 0.15625 -0.359375 0.546875zm2.015625 1.234375q-0.296875 0.09375 -0.921875 0.234375q-0.625 0.125 -0.8125 0.25q-0.296875 0.21875 -0.296875 0.53125q0 0.328125 0.234375 0.5625q0.234375 0.21875 0.59375 0.21875q0.40625 0 0.78125 -0.265625q0.28125 -0.203125 0.359375 -0.5q0.0625 -0.1875 0.0625 -0.734375l0 -0.296875zm2.3796234 0.171875l1.546875 -0.15625q0.140625 0.78125 0.5625 1.15625q0.4375 0.359375 1.15625 0.359375q0.78125 0 1.15625 -0.328125q0.390625 -0.328125 0.390625 -0.75q0 -0.28125 -0.171875 -0.46875q-0.15625 -0.203125 -0.5625 -0.359375q-0.28125 -0.09375 -1.265625 -0.34375q-1.28125 -0.3125 -1.796875 -0.78125q-0.71875 -0.640625 -0.71875 -1.578125q0 -0.59375 0.328125 -1.109375q0.34375 -0.53125 0.984375 -0.8125q0.640625 -0.28125 1.5625 -0.28125q1.46875 0 2.21875 0.65625q0.75 0.65625 0.796875 1.734375l-1.59375 0.078125q-0.109375 -0.609375 -0.4375 -0.875q-0.328125 -0.265625 -1.0 -0.265625q-0.703125 0 -1.09375 0.28125q-0.25 0.1875 -0.25 0.484375q0 0.28125 0.234375 0.484375q0.296875 0.25 1.453125 0.53125q1.171875 0.265625 1.71875 0.5625q0.5625 0.28125 0.875 0.796875q0.3125 0.5 0.3125 1.25q0 0.6875 -0.375 1.28125q-0.375 0.578125 -1.0625 0.875q-0.6875 0.28125 -1.71875 0.28125q-1.484375 0 -2.296875 -0.6875q-0.796875 -0.6875 -0.953125 -2.015625zm7.1545105 -0.375q0 -0.75 0.375 -1.453125q0.375 -0.703125 1.046875 -1.0625q0.6875 -0.375 1.515625 -0.375q1.296875 0 2.125 0.84375q0.828125 0.828125 0.828125 2.109375q0 1.296875 -0.84375 2.15625q-0.828125 0.84375 -2.09375 0.84375q-0.78125 0 -1.5 -0.34375q-0.703125 -0.359375 -1.078125 -1.046875q-0.375 -0.6875 -0.375 -1.671875zm1.546875 0.078125q0 0.859375 0.40625 1.3125q0.40625 0.453125 1.0 0.453125q0.578125 0 0.984375 -0.453125q0.40625 -0.453125 0.40625 -1.3125q0 -0.84375 -0.40625 -1.296875q-0.40625 -0.453125 -0.984375 -0.453125q-0.59375 0 -1.0 0.453125q-0.40625 0.453125 -0.40625 1.296875zm9.071762 2.859375l0 -0.859375q-0.3125 0.46875 -0.828125 0.734375q-0.5 0.25 -1.0625 0.25q-0.578125 0 -1.03125 -0.25q-0.453125 -0.25 -0.671875 -0.703125q-0.203125 -0.46875 -0.203125 -1.265625l0 -3.609375l1.515625 0l0 2.625q0 1.203125 0.078125 1.46875q0.09375 0.265625 0.3125 0.4375q0.21875 0.15625 0.5625 0.15625q0.375 0 0.6875 -0.203125q0.3125 -0.21875 0.421875 -0.53125q0.109375 -0.328125 0.109375 -1.546875l0 -2.40625l1.515625 0l0 5.703125l-1.40625 0zm4.196762 0l-1.515625 0l0 -5.703125l1.40625 0l0 0.8125q0.359375 -0.578125 0.640625 -0.75q0.296875 -0.1875 0.65625 -0.1875q0.515625 0 1.0 0.28125l-0.46875 1.3125q-0.375 -0.25 -0.703125 -0.25q-0.328125 0 -0.546875 0.1875q-0.21875 0.171875 -0.34375 0.625q-0.125 0.453125 -0.125 1.90625l0 1.765625zm7.678238 -4.015625l-1.484375 0.265625q-0.078125 -0.4375 -0.34375 -0.65625q-0.265625 -0.234375 -0.6875 -0.234375q-0.5625 0 -0.90625 0.390625q-0.328125 0.375 -0.328125 1.296875q0 1.015625 0.328125 1.4375q0.34375 0.421875 0.921875 0.421875q0.4375 0 0.703125 -0.25q0.28125 -0.25 0.390625 -0.84375l1.484375 0.25q-0.234375 1.03125 -0.890625 1.546875q-0.65625 0.515625 -1.75 0.515625q-1.265625 0 -2.015625 -0.78125q-0.734375 -0.796875 -0.734375 -2.1875q0 -1.421875 0.75 -2.203125q0.75 -0.78125 2.015625 -0.78125q1.046875 0 1.65625 0.453125q0.625 0.4375 0.890625 1.359375zm4.2546234 2.203125l1.5 0.25q-0.28125 0.828125 -0.90625 1.265625q-0.625 0.421875 -1.578125 0.421875q-1.484375 0 -2.203125 -0.96875q-0.5625 -0.78125 -0.5625 -1.96875q0 -1.421875 0.734375 -2.21875q0.75 -0.796875 1.890625 -0.796875q1.265625 0 2.0 0.84375q0.734375 0.828125 0.703125 2.5625l-3.78125 0q0.015625 0.671875 0.359375 1.046875q0.359375 0.375 0.875 0.375q0.359375 0 0.59375 -0.1875q0.25 -0.203125 0.375 -0.625zm0.078125 -1.53125q-0.015625 -0.65625 -0.34375 -0.984375q-0.3125 -0.34375 -0.765625 -0.34375q-0.5 0 -0.828125 0.359375q-0.3125 0.359375 -0.3125 0.96875l2.25 0z" fill-rule="nonzero"></path><path fill="#ffffff" d="m1.8440406 77.940025l216.0315 0l0 54.110237l-216.0315 0z" fill-rule="evenodd"></path><path stroke="#000000" stroke-width="1.0" stroke-linejoin="round" stroke-linecap="butt" d="m1.8440406 77.940025l216.0315 0l0 54.110237l-216.0315 0z" fill-rule="evenodd"></path><path fill="#000000" d="m11.640916 89.25077l0 -1.390625l1.5 0l0 1.390625l-1.5 0zm0 6.484375l0 -5.703125l1.5 0l0 5.703125l-1.5 0zm8.179397 0l-1.390625 0l0 -0.84375q-0.359375 0.5 -0.84375 0.734375q-0.46875 0.234375 -0.9375 0.234375q-0.98437405 0 -1.687499 -0.78125q-0.703125 -0.796875 -0.703125 -2.21875q0 -1.453125 0.671875 -2.203125q0.6875 -0.75 1.734374 -0.75q0.953125 0 1.65625 0.796875l0 -2.84375l1.5 0l0 7.875zm-4.015624 -2.96875q0 0.90625 0.24999905 1.3125q0.359375 0.59375 1.015625 0.59375q0.515625 0 0.875 -0.4375q0.375 -0.453125 0.375 -1.328125q0 -0.984375 -0.359375 -1.40625q-0.34375 -0.4375 -0.90625 -0.4375q-0.53125 0 -0.890625 0.421875q-0.35937405 0.421875 -0.35937405 1.28125z" fill-rule="nonzero"></path><path fill="#000000" d="m21.31395 91.12577l0 -1.09375l1.09375 0l0 1.09375l-1.09375 0zm0 4.609375l0 -1.09375l1.09375 0l0 1.09375l-1.09375 0zm5.421295 -2.53125l0.984375 -0.078125q0.0625 0.578125 0.3125 0.96875q0.265625 0.375 0.796875 0.609375q0.53125 0.234375 1.203125 0.234375q0.609375 0 1.0625 -0.171875q0.453125 -0.1875 0.671875 -0.484375q0.234375 -0.3125 0.234375 -0.6875q0 -0.375 -0.21875 -0.640625q-0.21875 -0.28125 -0.71875 -0.46875q-0.3125 -0.125 -1.40625 -0.375q-1.078125 -0.265625 -1.515625 -0.5q-0.5625 -0.296875 -0.84375 -0.734375q-0.265625 -0.4375 -0.265625 -0.984375q0 -0.59375 0.328125 -1.109375q0.34375 -0.515625 0.984375 -0.78125q0.65625 -0.28125 1.453125 -0.28125q0.875 0 1.546875 0.296875q0.671875 0.28125 1.03125 0.828125q0.359375 0.546875 0.390625 1.234375l-1.0 0.078125q-0.078125 -0.75 -0.546875 -1.125q-0.46875 -0.390625 -1.375 -0.390625q-0.9375 0 -1.375 0.359375q-0.4375 0.34375 -0.4375 0.828125q0 0.421875 0.3125 0.703125q0.296875 0.265625 1.5625 0.5625q1.28125 0.28125 1.75 0.5q0.6875 0.3125 1.015625 0.796875q0.328125 0.484375 0.328125 1.125q0 0.625 -0.359375 1.1875q-0.359375 0.546875 -1.046875 0.859375q-0.671875 0.3125 -1.515625 0.3125q-1.0625 0 -1.78125 -0.3125q-0.71875 -0.3125 -1.140625 -0.9375q-0.40625 -0.625 -0.421875 -1.421875zm7.6388855 2.53125l0 -7.875l1.03125 0l0 7.875l-1.03125 0zm6.3512726 0l0 -0.71875q-0.53125 0.84375 -1.59375 0.84375q-0.671875 0 -1.25 -0.375q-0.578125 -0.375 -0.890625 -1.046875q-0.3125 -0.671875 -0.3125 -1.546875q0 -0.859375 0.28125 -1.546875q0.296875 -0.703125 0.859375 -1.0625q0.5625 -0.375 1.265625 -0.375q0.515625 0 0.921875 0.21875q0.40625 0.21875 0.65625 0.5625l0 -2.828125l0.96875 0l0 7.875l-0.90625 0zm-3.046875 -2.84375q0 1.09375 0.453125 1.640625q0.46875 0.53125 1.09375 0.53125q0.640625 0 1.078125 -0.515625q0.4375 -0.515625 0.4375 -1.578125q0 -1.171875 -0.453125 -1.71875q-0.4375 -0.546875 -1.109375 -0.546875q-0.640625 0 -1.078125 0.53125q-0.421875 0.515625 -0.421875 1.65625zm7.824646 -0.4375q0.40625 -0.015625 0.65625 -0.21875q0.265625 -0.21875 0.34375 -0.59375q0.09375 -0.375 0.09375 -1.265625q0.015625 -0.890625 0.046875 -1.1875q0.046875 -0.453125 0.171875 -0.71875q0.140625 -0.28125 0.328125 -0.4375q0.203125 -0.171875 0.5 -0.25q0.203125 -0.0625 0.65625 -0.0625l0.3125 0l0 0.84375l-0.171875 0q-0.5625 0 -0.75 0.203125q-0.171875 0.203125 -0.171875 0.90625q0 1.40625 -0.0625 1.78125q-0.09375 0.5625 -0.328125 0.875q-0.234375 0.3125 -0.734375 0.5625q0.59375 0.25 0.859375 0.765625q0.265625 0.5 0.265625 1.640625q0 1.0625 0.015625 1.25q0.046875 0.375 0.21875 0.515625q0.171875 0.140625 0.6875 0.140625l0.171875 0l0 0.84375l-0.3125 0q-0.515625 0 -0.75 -0.078125q-0.34375 -0.125 -0.578125 -0.40625q-0.21875 -0.28125 -0.296875 -0.703125q-0.0625 -0.421875 -0.078125 -1.390625q0 -0.96875 -0.09375 -1.328125q-0.078125 -0.375 -0.34375 -0.59375q-0.25 -0.21875 -0.65625 -0.21875l0 -0.875zm10.675919 3.28125l0 -0.84375q-0.671875 0.96875 -1.8125 0.96875q-0.5 0 -0.953125 -0.1875q-0.4375 -0.203125 -0.65625 -0.484375q-0.203125 -0.296875 -0.28125 -0.71875q-0.0625 -0.28125 -0.0625 -0.90625l0 -3.53125l0.96875 0l0 3.15625q0 0.765625 0.0625 1.03125q0.09375 0.375 0.375 0.59375q0.296875 0.21875 0.734375 0.21875q0.4375 0 0.8125 -0.21875q0.390625 -0.234375 0.546875 -0.609375q0.15625 -0.390625 0.15625 -1.109375l0 -3.0625l0.96875 0l0 5.703125l-0.859375 0zm1.8014984 -1.703125l0.953125 -0.15625q0.078125 0.578125 0.4375 0.890625q0.375 0.296875 1.03125 0.296875q0.671875 0 0.984375 -0.265625q0.328125 -0.265625 0.328125 -0.640625q0 -0.328125 -0.28125 -0.515625q-0.203125 -0.125 -0.984375 -0.328125q-1.0625 -0.265625 -1.484375 -0.453125q-0.40625 -0.203125 -0.625 -0.546875q-0.203125 -0.34375 -0.203125 -0.765625q0 -0.390625 0.171875 -0.703125q0.171875 -0.328125 0.484375 -0.546875q0.21875 -0.171875 0.609375 -0.28125q0.390625 -0.109375 0.828125 -0.109375q0.671875 0 1.171875 0.1875q0.515625 0.1875 0.75 0.53125q0.25 0.328125 0.34375 0.875l-0.9375 0.125q-0.078125 -0.4375 -0.390625 -0.671875q-0.296875 -0.25 -0.859375 -0.25q-0.671875 0 -0.953125 0.21875q-0.28125 0.21875 -0.28125 0.515625q0 0.1875 0.109375 0.328125q0.125 0.15625 0.375 0.265625q0.140625 0.046875 0.859375 0.25q1.015625 0.265625 1.421875 0.4375q0.40625 0.171875 0.640625 0.515625q0.234375 0.328125 0.234375 0.828125q0 0.484375 -0.28125 0.90625q-0.28125 0.421875 -0.8125 0.65625q-0.53125 0.234375 -1.203125 0.234375q-1.109375 0 -1.703125 -0.453125q-0.578125 -0.46875 -0.734375 -1.375zm9.609375 -0.140625l1.0 0.125q-0.234375 0.875 -0.875 1.359375q-0.640625 0.484375 -1.625 0.484375q-1.25 0 -1.984375 -0.765625q-0.734375 -0.765625 -0.734375 -2.15625q0 -1.453125 0.734375 -2.234375q0.75 -0.796875 1.921875 -0.796875q1.15625 0 1.875 0.78125q0.71875 0.765625 0.71875 2.1875q0 0.078125 0 0.25l-4.25 0q0.046875 0.9375 0.515625 1.4375q0.484375 0.5 1.203125 0.5q0.53125 0 0.90625 -0.265625q0.375 -0.28125 0.59375 -0.90625zm-3.171875 -1.5625l3.1875 0q-0.0625 -0.71875 -0.359375 -1.078125q-0.46875 -0.546875 -1.203125 -0.546875q-0.671875 0 -1.125 0.453125q-0.453125 0.4375 -0.5 1.171875zm10.285873 -1.21875l-5.203125 0l0 -0.90625l5.203125 0l0 0.90625zm0 2.390625l-5.203125 0l0 -0.90625l5.203125 0l0 0.90625zm1.1918335 -2.859375l-0.28125 -1.484375l0 -1.296875l1.109375 0l0 1.296875l-0.25 1.484375l-0.578125 0zm1.765625 0l-0.265625 -1.484375l0 -1.296875l1.109375 0l0 1.296875l-0.265625 1.484375l-0.578125 0zm1.9546356 5.09375l0 -5.703125l0.859375 0l0 0.859375q0.34375 -0.609375 0.625 -0.796875q0.28125 -0.1875 0.609375 -0.1875q0.5 0 1.0 0.3125l-0.328125 0.890625q-0.359375 -0.203125 -0.71875 -0.203125q-0.3125 0 -0.5625 0.1875q-0.25 0.1875 -0.359375 0.53125q-0.15625 0.515625 -0.15625 1.125l0 2.984375l-0.96875 0zm7.4548645 -1.84375l1.0 0.125q-0.234375 0.875 -0.875 1.359375q-0.640625 0.484375 -1.625 0.484375q-1.25 0 -1.984375 -0.765625q-0.734375 -0.765625 -0.734375 -2.15625q0 -1.453125 0.734375 -2.234375q0.75 -0.796875 1.921875 -0.796875q1.15625 0 1.875 0.78125q0.71875 0.765625 0.71875 2.1875q0 0.078125 0 0.25l-4.25 0q0.046875 0.9375 0.515625 1.4375q0.484375 0.5 1.203125 0.5q0.53125 0 0.90625 -0.265625q0.375 -0.28125 0.59375 -0.90625zm-3.171875 -1.5625l3.1875 0q-0.0625 -0.71875 -0.359375 -1.078125q-0.46875 -0.546875 -1.203125 -0.546875q-0.671875 0 -1.125 0.453125q-0.453125 0.4375 -0.5 1.171875zm8.832748 5.59375l0 -2.796875q-0.21875 0.3125 -0.625 0.53125q-0.40625 0.203125 -0.859375 0.203125q-1.015625 0 -1.75 -0.8125q-0.734375 -0.8125 -0.734375 -2.21875q0 -0.859375 0.296875 -1.53125q0.296875 -0.6875 0.859375 -1.03125q0.5625 -0.359375 1.25 -0.359375q1.046875 0 1.65625 0.890625l0 -0.765625l0.875 0l0 7.890625l-0.96875 0zm-2.984375 -5.0625q0 1.109375 0.453125 1.65625q0.46875 0.546875 1.125 0.546875q0.609375 0 1.046875 -0.515625q0.453125 -0.53125 0.453125 -1.59375q0 -1.140625 -0.46875 -1.71875q-0.46875 -0.578125 -1.09375 -0.578125q-0.640625 0 -1.078125 0.546875q-0.4375 0.53125 -0.4375 1.65625zm9.020248 2.875l0 -0.84375q-0.671875 0.96875 -1.8125 0.96875q-0.5 0 -0.953125 -0.1875q-0.4375 -0.203125 -0.65625 -0.484375q-0.203125 -0.296875 -0.28125 -0.71875q-0.0625 -0.28125 -0.0625 -0.90625l0 -3.53125l0.96875 0l0 3.15625q0 0.765625 0.0625 1.03125q0.09375 0.375 0.375 0.59375q0.296875 0.21875 0.734375 0.21875q0.4375 0 0.8125 -0.21875q0.390625 -0.234375 0.546875 -0.609375q0.15625 -0.390625 0.15625 -1.109375l0 -3.0625l0.96875 0l0 5.703125l-0.859375 0zm2.1921234 -6.765625l0 -1.109375l0.96875 0l0 1.109375l-0.96875 0zm0 6.765625l0 -5.703125l0.96875 0l0 5.703125l-0.96875 0zm2.3518524 0l0 -5.703125l0.859375 0l0 0.859375q0.34375 -0.609375 0.625 -0.796875q0.28125 -0.1875 0.609375 -0.1875q0.5 0 1.0 0.3125l-0.328125 0.890625q-0.359375 -0.203125 -0.71875 -0.203125q-0.3125 0 -0.5625 0.1875q-0.25 0.1875 -0.359375 0.53125q-0.15625 0.515625 -0.15625 1.125l0 2.984375l-0.96875 0zm7.4548645 -1.84375l1.0 0.125q-0.234375 0.875 -0.875 1.359375q-0.640625 0.484375 -1.625 0.484375q-1.25 0 -1.984375 -0.765625q-0.734375 -0.765625 -0.734375 -2.15625q0 -1.453125 0.734375 -2.234375q0.75 -0.796875 1.921875 -0.796875q1.15625 0 1.875 0.78125q0.71875 0.765625 0.71875 2.1875q0 0.078125 0 0.25l-4.25 0q0.046875 0.9375 0.515625 1.4375q0.484375 0.5 1.203125 0.5q0.53125 0 0.90625 -0.265625q0.375 -0.28125 0.59375 -0.90625zm-3.171875 -1.5625l3.1875 0q-0.0625 -0.71875 -0.359375 -1.078125q-0.46875 -0.546875 -1.203125 -0.546875q-0.671875 0 -1.125 0.453125q-0.453125 0.4375 -0.5 1.171875zm8.895248 3.40625l0 -0.71875q-0.53125 0.84375 -1.59375 0.84375q-0.671875 0 -1.25 -0.375q-0.578125 -0.375 -0.890625 -1.046875q-0.3125 -0.671875 -0.3125 -1.546875q0 -0.859375 0.28125 -1.546875q0.296875 -0.703125 0.859375 -1.0625q0.5625 -0.375 1.265625 -0.375q0.515625 0 0.921875 0.21875q0.40625 0.21875 0.65625 0.5625l0 -2.828125l0.96875 0l0 7.875l-0.90625 0zm-3.046875 -2.84375q0 1.09375 0.453125 1.640625q0.46875 0.53125 1.09375 0.53125q0.640625 0 1.078125 -0.515625q0.4375 -0.515625 0.4375 -1.578125q0 -1.171875 -0.453125 -1.71875q-0.4375 -0.546875 -1.109375 -0.546875q-0.640625 0 -1.078125 0.53125q-0.421875 0.515625 -0.421875 1.65625zm5.3327484 -2.25l-0.28125 -1.484375l0 -1.296875l1.109375 0l0 1.296875l-0.25 1.484375l-0.578125 0zm1.765625 0l-0.265625 -1.484375l0 -1.296875l1.109375 0l0 1.296875l-0.265625 1.484375l-0.578125 0zm7.555908 1.8125l0 0.875q-0.40625 0 -0.671875 0.21875q-0.265625 0.21875 -0.359375 0.59375q-0.078125 0.359375 -0.078125 1.265625q0 0.890625 -0.03125 1.171875q-0.046875 0.453125 -0.1875 0.71875q-0.125 0.28125 -0.328125 0.4375q-0.1875 0.171875 -0.484375 0.25q-0.203125 0.0625 -0.671875 0.0625l-0.296875 0l0 -0.84375l0.171875 0q0.5625 0 0.734375 -0.203125q0.1875 -0.203125 0.1875 -0.90625q0 -1.34375 0.046875 -1.703125q0.09375 -0.59375 0.34375 -0.9375q0.265625 -0.359375 0.734375 -0.5625q-0.625 -0.296875 -0.875 -0.78125q-0.25 -0.484375 -0.25 -1.640625q0 -1.046875 -0.03125 -1.25q-0.03125 -0.359375 -0.21875 -0.5q-0.171875 -0.15625 -0.671875 -0.15625l-0.171875 0l0 -0.84375l0.296875 0q0.53125 0 0.765625 0.09375q0.34375 0.125 0.5625 0.40625q0.234375 0.265625 0.296875 0.703125q0.078125 0.421875 0.078125 1.390625q0 0.953125 0.078125 1.328125q0.09375 0.359375 0.359375 0.578125q0.265625 0.21875 0.671875 0.234375z" fill-rule="nonzero"></path><path fill="#000000" d="m16.828415 108.735146l-1.515624 0l0 -2.90625q0 -0.921875 -0.09375 -1.1875q-0.09375 -0.28125 -0.3125 -0.421875q-0.21875 -0.15625 -0.53125 -0.15625q-0.390625 0 -0.703125 0.21875q-0.3125 0.203125 -0.4375 0.5625q-0.109375 0.34375 -0.109375 1.3125l0 2.578125l-1.5 0l0 -5.703125l1.40625 0l0 0.84375q0.734375 -0.96875 1.875 -0.96875q0.5 0 0.90625 0.1875q0.42187405 0.171875 0.62499905 0.453125q0.21875 0.265625 0.296875 0.625q0.09375 0.359375 0.09375 1.015625l0 3.546875zm2.446762 -3.96875l-1.375 -0.25q0.234375 -0.8125 0.796875 -1.203125q0.5625 -0.40625 1.671875 -0.40625q1.015625 0 1.5 0.234375q0.5 0.234375 0.703125 0.609375q0.203125 0.359375 0.203125 1.34375l-0.015625 1.765625q0 0.75 0.0625 1.109375q0.078125 0.359375 0.28125 0.765625l-1.5 0q-0.0625 -0.15625 -0.140625 -0.453125q-0.03125 -0.125 -0.046875 -0.171875q-0.390625 0.375 -0.84375 0.5625q-0.4375 0.1875 -0.9375 0.1875q-0.875 0 -1.390625 -0.46875q-0.5 -0.484375 -0.5 -1.21875q0 -0.484375 0.234375 -0.859375q0.234375 -0.375 0.640625 -0.578125q0.421875 -0.203125 1.203125 -0.359375q1.0625 -0.1875 1.46875 -0.359375l0 -0.15625q0 -0.4375 -0.21875 -0.609375q-0.21875 -0.1875 -0.8125 -0.1875q-0.390625 0 -0.625 0.15625q-0.21875 0.15625 -0.359375 0.546875zm2.015625 1.234375q-0.296875 0.09375 -0.921875 0.234375q-0.625 0.125 -0.8125 0.25q-0.296875 0.21875 -0.296875 0.53125q0 0.328125 0.234375 0.5625q0.234375 0.21875 0.59375 0.21875q0.40625 0 0.78125 -0.265625q0.28125 -0.203125 0.359375 -0.5q0.0625 -0.1875 0.0625 -0.734375l0 -0.296875zm2.6608734 -2.96875l1.390625 0l0 0.78125q0.75 -0.90625 1.78125 -0.90625q0.546875 0 0.953125 0.234375q0.40625 0.21875 0.65625 0.671875q0.375 -0.453125 0.8125 -0.671875q0.4375 -0.234375 0.9375 -0.234375q0.625 0 1.0625 0.25q0.4375 0.25 0.640625 0.75q0.15625 0.359375 0.15625 1.1875l0 3.640625l-1.5 0l0 -3.265625q0 -0.84375 -0.15625 -1.09375q-0.21875 -0.3125 -0.65625 -0.3125q-0.3125 0 -0.59375 0.1875q-0.28125 0.1875 -0.40625 0.5625q-0.109375 0.375 -0.109375 1.1875l0 2.734375l-1.515625 0l0 -3.125q0 -0.828125 -0.078125 -1.0625q-0.078125 -0.25 -0.25 -0.359375q-0.171875 -0.125 -0.46875 -0.125q-0.34375 0 -0.625 0.1875q-0.28125 0.1875 -0.40625 0.546875q-0.109375 0.34375 -0.109375 1.171875l0 2.765625l-1.515625 0l0 -5.703125zm12.896988 3.890625l1.5 0.25q-0.28125 0.828125 -0.90625 1.265625q-0.625 0.421875 -1.578125 0.421875q-1.484375 0 -2.203125 -0.96875q-0.5625 -0.78125 -0.5625 -1.96875q0 -1.421875 0.734375 -2.21875q0.75 -0.796875 1.890625 -0.796875q1.265625 0 2.0 0.84375q0.734375 0.828125 0.703125 2.5625l-3.78125 0q0.015625 0.671875 0.359375 1.046875q0.359375 0.375 0.875 0.375q0.359375 0 0.59375 -0.1875q0.25 -0.203125 0.375 -0.625zm0.078125 -1.53125q-0.015625 -0.65625 -0.34375 -0.984375q-0.3125 -0.34375 -0.765625 -0.34375q-0.5 0 -0.828125 0.359375q-0.3125 0.359375 -0.3125 0.96875l2.25 0z" fill-rule="nonzero"></path><path fill="#000000" d="m39.68141 104.12577l0 -1.09375l1.09375 0l0 1.09375l-1.09375 0zm0 4.609375l0 -1.09375l1.09375 0l0 1.09375l-1.09375 0zm5.265045 -1.703125l0.953125 -0.15625q0.078125 0.578125 0.4375 0.890625q0.375 0.296875 1.03125 0.296875q0.671875 0 0.984375 -0.265625q0.328125 -0.265625 0.328125 -0.640625q0 -0.328125 -0.28125 -0.515625q-0.203125 -0.125 -0.984375 -0.328125q-1.0625 -0.265625 -1.484375 -0.453125q-0.40625 -0.203125 -0.625 -0.546875q-0.203125 -0.34375 -0.203125 -0.765625q0 -0.390625 0.171875 -0.703125q0.171875 -0.328125 0.484375 -0.546875q0.21875 -0.171875 0.609375 -0.28125q0.390625 -0.109375 0.828125 -0.109375q0.671875 0 1.171875 0.1875q0.515625 0.1875 0.75 0.53125q0.25 0.328125 0.34375 0.875l-0.9375 0.125q-0.078125 -0.4375 -0.390625 -0.671875q-0.296875 -0.25 -0.859375 -0.25q-0.671875 0 -0.953125 0.21875q-0.28125 0.21875 -0.28125 0.515625q0 0.1875 0.109375 0.328125q0.125 0.15625 0.375 0.265625q0.140625 0.046875 0.859375 0.25q1.015625 0.265625 1.421875 0.4375q0.40625 0.171875 0.640625 0.515625q0.234375 0.328125 0.234375 0.828125q0 0.484375 -0.28125 0.90625q-0.28125 0.421875 -0.8125 0.65625q-0.53125 0.234375 -1.203125 0.234375q-1.109375 0 -1.703125 -0.453125q-0.578125 -0.46875 -0.734375 -1.375zm7.828125 0.84375l0.125 0.84375q-0.40625 0.09375 -0.71875 0.09375q-0.53125 0 -0.828125 -0.171875q-0.28125 -0.171875 -0.40625 -0.4375q-0.109375 -0.265625 -0.109375 -1.140625l0 -3.28125l-0.71875 0l0 -0.75l0.71875 0l0 -1.40625l0.953125 -0.59375l0 2.0l0.984375 0l0 0.75l-0.984375 0l0 3.34375q0 0.40625 0.046875 0.53125q0.0625 0.109375 0.171875 0.1875q0.125 0.0625 0.328125 0.0625q0.171875 0 0.4375 -0.03125zm0.8356476 0.859375l0 -5.703125l0.859375 0l0 0.859375q0.34375 -0.609375 0.625 -0.796875q0.28125 -0.1875 0.609375 -0.1875q0.5 0 1.0 0.3125l-0.328125 0.890625q-0.359375 -0.203125 -0.71875 -0.203125q-0.3125 0 -0.5625 0.1875q-0.25 0.1875 -0.359375 0.53125q-0.15625 0.515625 -0.15625 1.125l0 2.984375l-0.96875 0zm3.5642395 -6.765625l0 -1.109375l0.96875 0l0 1.109375l-0.96875 0zm0 6.765625l0 -5.703125l0.96875 0l0 5.703125l-0.96875 0zm2.3518524 0l0 -5.703125l0.875 0l0 0.8125q0.625 -0.9375 1.8125 -0.9375q0.515625 0 0.953125 0.1875q0.4375 0.171875 0.640625 0.484375q0.21875 0.296875 0.3125 0.703125q0.046875 0.28125 0.046875 0.953125l0 3.5l-0.96875 0l0 -3.46875q0 -0.59375 -0.109375 -0.875q-0.109375 -0.296875 -0.40625 -0.46875q-0.28125 -0.1875 -0.671875 -0.1875q-0.609375 0 -1.0625 0.390625q-0.453125 0.390625 -0.453125 1.5l0 3.109375l-0.96875 0zm5.7546234 0.46875l0.9375 0.140625q0.0625 0.4375 0.328125 0.640625q0.359375 0.265625 0.984375 0.265625q0.671875 0 1.03125 -0.265625q0.375 -0.265625 0.5 -0.75q0.078125 -0.296875 0.078125 -1.25q-0.640625 0.75 -1.59375 0.75q-1.171875 0 -1.8125 -0.84375q-0.640625 -0.859375 -0.640625 -2.046875q0 -0.8125 0.296875 -1.5q0.296875 -0.6875 0.84375 -1.0625q0.5625 -0.375 1.328125 -0.375q1.0 0 1.65625 0.8125l0 -0.6875l0.890625 0l0 4.921875q0 1.34375 -0.265625 1.890625q-0.265625 0.5625 -0.859375 0.875q-0.59375 0.328125 -1.453125 0.328125q-1.015625 0 -1.640625 -0.46875q-0.625 -0.453125 -0.609375 -1.375zm0.796875 -3.421875q0 1.125 0.4375 1.640625q0.453125 0.515625 1.125 0.515625q0.671875 0 1.125 -0.515625q0.453125 -0.515625 0.453125 -1.609375q0 -1.046875 -0.46875 -1.578125q-0.46875 -0.53125 -1.125 -0.53125q-0.640625 0 -1.09375 0.53125q-0.453125 0.515625 -0.453125 1.546875zm7.855896 -0.328125q0.40625 -0.015625 0.65625 -0.21875q0.265625 -0.21875 0.34375 -0.59375q0.09375 -0.375 0.09375 -1.265625q0.015625 -0.890625 0.046875 -1.1875q0.046875 -0.453125 0.171875 -0.71875q0.140625 -0.28125 0.328125 -0.4375q0.203125 -0.171875 0.5 -0.25q0.203125 -0.0625 0.65625 -0.0625l0.3125 0l0 0.84375l-0.171875 0q-0.5625 0 -0.75 0.203125q-0.171875 0.203125 -0.171875 0.90625q0 1.40625 -0.0625 1.78125q-0.09375 0.5625 -0.328125 0.875q-0.234375 0.3125 -0.734375 0.5625q0.59375 0.25 0.859375 0.765625q0.265625 0.5 0.265625 1.640625q0 1.0625 0.015625 1.25q0.046875 0.375 0.21875 0.515625q0.171875 0.140625 0.6875 0.140625l0.171875 0l0 0.84375l-0.3125 0q-0.515625 0 -0.75 -0.078125q-0.34375 -0.125 -0.578125 -0.40625q-0.21875 -0.28125 -0.296875 -0.703125q-0.0625 -0.421875 -0.078125 -1.390625q0 -0.96875 -0.09375 -1.328125q-0.078125 -0.375 -0.34375 -0.59375q-0.25 -0.21875 -0.65625 -0.21875l0 -0.875zm10.675919 3.28125l0 -0.84375q-0.671875 0.96875 -1.8125 0.96875q-0.5 0 -0.953125 -0.1875q-0.4375 -0.203125 -0.65625 -0.484375q-0.203125 -0.296875 -0.28125 -0.71875q-0.0625 -0.28125 -0.0625 -0.90625l0 -3.53125l0.96875 0l0 3.15625q0 0.765625 0.0625 1.03125q0.09375 0.375 0.375 0.59375q0.296875 0.21875 0.734375 0.21875q0.4375 0 0.8125 -0.21875q0.390625 -0.234375 0.546875 -0.609375q0.15625 -0.390625 0.15625 -1.109375l0 -3.0625l0.96875 0l0 5.703125l-0.859375 0zm1.8014984 -1.703125l0.953125 -0.15625q0.078125 0.578125 0.4375 0.890625q0.375 0.296875 1.03125 0.296875q0.671875 0 0.984375 -0.265625q0.328125 -0.265625 0.328125 -0.640625q0 -0.328125 -0.28125 -0.515625q-0.203125 -0.125 -0.984375 -0.328125q-1.0625 -0.265625 -1.484375 -0.453125q-0.40625 -0.203125 -0.625 -0.546875q-0.203125 -0.34375 -0.203125 -0.765625q0 -0.390625 0.171875 -0.703125q0.171875 -0.328125 0.484375 -0.546875q0.21875 -0.171875 0.609375 -0.28125q0.390625 -0.109375 0.828125 -0.109375q0.671875 0 1.171875 0.1875q0.515625 0.1875 0.75 0.53125q0.25 0.328125 0.34375 0.875l-0.9375 0.125q-0.078125 -0.4375 -0.390625 -0.671875q-0.296875 -0.25 -0.859375 -0.25q-0.671875 0 -0.953125 0.21875q-0.28125 0.21875 -0.28125 0.515625q0 0.1875 0.109375 0.328125q0.125 0.15625 0.375 0.265625q0.140625 0.046875 0.859375 0.25q1.015625 0.265625 1.421875 0.4375q0.40625 0.171875 0.640625 0.515625q0.234375 0.328125 0.234375 0.828125q0 0.484375 -0.28125 0.90625q-0.28125 0.421875 -0.8125 0.65625q-0.53125 0.234375 -1.203125 0.234375q-1.109375 0 -1.703125 -0.453125q-0.578125 -0.46875 -0.734375 -1.375zm9.609375 -0.140625l1.0 0.125q-0.234375 0.875 -0.875 1.359375q-0.640625 0.484375 -1.625 0.484375q-1.25 0 -1.984375 -0.765625q-0.734375 -0.765625 -0.734375 -2.15625q0 -1.453125 0.734375 -2.234375q0.75 -0.796875 1.921875 -0.796875q1.15625 0 1.875 0.78125q0.71875 0.765625 0.71875 2.1875q0 0.078125 0 0.25l-4.25 0q0.046875 0.9375 0.515625 1.4375q0.484375 0.5 1.203125 0.5q0.53125 0 0.90625 -0.265625q0.375 -0.28125 0.59375 -0.90625zm-3.171875 -1.5625l3.1875 0q-0.0625 -0.71875 -0.359375 -1.078125q-0.46875 -0.546875 -1.203125 -0.546875q-0.671875 0 -1.125 0.453125q-0.453125 0.4375 -0.5 1.171875zm10.285873 -1.21875l-5.203125 0l0 -0.90625l5.203125 0l0 0.90625zm0 2.390625l-5.203125 0l0 -0.90625l5.203125 0l0 0.90625zm1.1918335 -2.859375l-0.28125 -1.484375l0 -1.296875l1.109375 0l0 1.296875l-0.25 1.484375l-0.578125 0zm1.765625 0l-0.265625 -1.484375l0 -1.296875l1.109375 0l0 1.296875l-0.265625 1.484375l-0.578125 0zm1.5952606 2.234375q0 -1.578125 0.890625 -2.34375q0.734375 -0.625 1.796875 -0.625q1.171875 0 1.90625 0.765625q0.75 0.765625 0.75 2.125q0 1.109375 -0.328125 1.75q-0.328125 0.625 -0.96875 0.96875q-0.625 0.34375 -1.359375 0.34375q-1.203125 0 -1.953125 -0.765625q-0.734375 -0.765625 -0.734375 -2.21875zm1.0 0q0 1.109375 0.46875 1.65625q0.484375 0.53125 1.21875 0.53125q0.71875 0 1.1875 -0.546875q0.484375 -0.546875 0.484375 -1.671875q0 -1.046875 -0.484375 -1.59375q-0.484375 -0.546875 -1.1875 -0.546875q-0.734375 0 -1.21875 0.546875q-0.46875 0.53125 -0.46875 1.625zm5.2858734 5.046875l0 -7.890625l0.890625 0l0 0.734375q0.3125 -0.421875 0.703125 -0.640625q0.390625 -0.21875 0.953125 -0.21875q0.71875 0 1.28125 0.375q0.5625 0.375 0.84375 1.0625q0.28125 0.671875 0.28125 1.5q0 0.875 -0.3125 1.578125q-0.3125 0.6875 -0.921875 1.0625q-0.59375 0.375 -1.25 0.375q-0.484375 0 -0.875 -0.203125q-0.375 -0.203125 -0.625 -0.515625l0 2.78125l-0.96875 0zm0.875 -5.0q0 1.09375 0.453125 1.625q0.453125 0.515625 1.078125 0.515625q0.640625 0 1.09375 -0.53125q0.46875 -0.546875 0.46875 -1.703125q0 -1.078125 -0.453125 -1.625q-0.4375 -0.546875 -1.0625 -0.546875q-0.625 0 -1.109375 0.578125q-0.46875 0.578125 -0.46875 1.6875zm7.1764984 1.953125l0.125 0.84375q-0.40625 0.09375 -0.71875 0.09375q-0.53125 0 -0.828125 -0.171875q-0.28125 -0.171875 -0.40625 -0.4375q-0.109375 -0.265625 -0.109375 -1.140625l0 -3.28125l-0.71875 0l0 -0.75l0.71875 0l0 -1.40625l0.953125 -0.59375l0 2.0l0.984375 0l0 0.75l-0.984375 0l0 3.34375q0 0.40625 0.046875 0.53125q0.0625 0.109375 0.171875 0.1875q0.125 0.0625 0.328125 0.0625q0.171875 0 0.4375 -0.03125zm0.8512726 -5.90625l0 -1.109375l0.96875 0l0 1.109375l-0.96875 0zm0 6.765625l0 -5.703125l0.96875 0l0 5.703125l-0.96875 0zm1.9924774 -2.859375q0 -1.578125 0.890625 -2.34375q0.734375 -0.625 1.796875 -0.625q1.171875 0 1.90625 0.765625q0.75 0.765625 0.75 2.125q0 1.109375 -0.328125 1.75q-0.328125 0.625 -0.96875 0.96875q-0.625 0.34375 -1.359375 0.34375q-1.203125 0 -1.953125 -0.765625q-0.734375 -0.765625 -0.734375 -2.21875zm1.0 0q0 1.109375 0.46875 1.65625q0.484375 0.53125 1.21875 0.53125q0.71875 0 1.1875 -0.546875q0.484375 -0.546875 0.484375 -1.671875q0 -1.046875 -0.484375 -1.59375q-0.484375 -0.546875 -1.1875 -0.546875q-0.734375 0 -1.21875 0.546875q-0.46875 0.53125 -0.46875 1.625zm5.2858734 2.859375l0 -5.703125l0.875 0l0 0.8125q0.625 -0.9375 1.8125 -0.9375q0.515625 0 0.953125 0.1875q0.4375 0.171875 0.640625 0.484375q0.21875 0.296875 0.3125 0.703125q0.046875 0.28125 0.046875 0.953125l0 3.5l-0.96875 0l0 -3.46875q0 -0.59375 -0.109375 -0.875q-0.109375 -0.296875 -0.40625 -0.46875q-0.28125 -0.1875 -0.671875 -0.1875q-0.609375 0 -1.0625 0.390625q-0.453125 0.390625 -0.453125 1.5l0 3.109375l-0.96875 0zm9.660873 -0.703125q-0.546875 0.453125 -1.046875 0.640625q-0.484375 0.1875 -1.0625 0.1875q-0.9375 0 -1.453125 -0.453125q-0.5 -0.46875 -0.5 -1.171875q0 -0.421875 0.1875 -0.765625q0.203125 -0.34375 0.5 -0.546875q0.3125 -0.21875 0.703125 -0.328125q0.28125 -0.078125 0.859375 -0.140625q1.171875 -0.140625 1.71875 -0.34375q0.015625 -0.1875 0.015625 -0.25q0 -0.59375 -0.28125 -0.828125q-0.359375 -0.328125 -1.09375 -0.328125q-0.6875 0 -1.015625 0.234375q-0.3125 0.234375 -0.46875 0.84375l-0.953125 -0.125q0.125 -0.609375 0.421875 -0.984375q0.296875 -0.375 0.859375 -0.5625q0.5625 -0.203125 1.296875 -0.203125q0.734375 0 1.1875 0.171875q0.453125 0.171875 0.65625 0.4375q0.21875 0.25 0.3125 0.640625q0.046875 0.25 0.046875 0.90625l0 1.28125q0 1.34375 0.0625 1.703125q0.0625 0.359375 0.25 0.6875l-1.015625 0q-0.15625 -0.296875 -0.1875 -0.703125zm-0.09375 -2.15625q-0.515625 0.21875 -1.578125 0.359375q-0.59375 0.09375 -0.84375 0.203125q-0.234375 0.09375 -0.375 0.3125q-0.140625 0.203125 -0.140625 0.453125q0 0.390625 0.296875 0.65625q0.296875 0.25 0.859375 0.25q0.5625 0 0.984375 -0.25q0.4375 -0.25 0.65625 -0.671875q0.140625 -0.328125 0.140625 -0.96875l0 -0.34375zm2.2702484 2.859375l0 -7.875l0.96875 0l0 7.875l-0.96875 0zm2.4456024 -5.09375l-0.28125 -1.484375l0 -1.296875l1.109375 0l0 1.296875l-0.25 1.484375l-0.578125 0zm1.765625 0l-0.265625 -1.484375l0 -1.296875l1.109375 0l0 1.296875l-0.265625 1.484375l-0.578125 0zm7.555908 1.8125l0 0.875q-0.40625 0 -0.671875 0.21875q-0.265625 0.21875 -0.359375 0.59375q-0.078125 0.359375 -0.078125 1.265625q0 0.890625 -0.03125 1.171875q-0.046875 0.453125 -0.1875 0.71875q-0.125 0.28125 -0.328125 0.4375q-0.1875 0.171875 -0.484375 0.25q-0.203125 0.0625 -0.671875 0.0625l-0.296875 0l0 -0.84375l0.171875 0q0.5625 0 0.734375 -0.203125q0.1875 -0.203125 0.1875 -0.90625q0 -1.34375 0.046875 -1.703125q0.09375 -0.59375 0.34375 -0.9375q0.265625 -0.359375 0.734375 -0.5625q-0.625 -0.296875 -0.875 -0.78125q-0.25 -0.484375 -0.25 -1.640625q0 -1.046875 -0.03125 -1.25q-0.03125 -0.359375 -0.21875 -0.5q-0.171875 -0.15625 -0.671875 -0.15625l-0.171875 0l0 -0.84375l0.296875 0q0.53125 0 0.765625 0.09375q0.34375 0.125 0.5625 0.40625q0.234375 0.265625 0.296875 0.703125q0.078125 0.421875 0.078125 1.390625q0 0.953125 0.078125 1.328125q0.09375 0.359375 0.359375 0.578125q0.265625 0.21875 0.671875 0.234375z" fill-rule="nonzero"></path><path fill="#000000" d="m11.640916 115.25077l0 -1.390625l1.5 0l0 1.390625l-1.5 0zm0 6.484375l0 -5.703125l1.5 0l0 5.703125l-1.5 0zm8.148147 0l-1.515625 0l0 -2.90625q0 -0.921875 -0.09375 -1.1875q-0.09375 -0.28125 -0.3125 -0.421875q-0.21875 -0.15625 -0.53125 -0.15625q-0.390625 0 -0.703125 0.21875q-0.3125 0.203125 -0.4375 0.5625q-0.109375 0.34375 -0.109375 1.3125l0 2.578125l-1.499999 0l0 -5.703125l1.40625 0l0 0.84375q0.73437405 -0.96875 1.874999 -0.96875q0.5 0 0.90625 0.1875q0.421875 0.171875 0.625 0.453125q0.21875 0.265625 0.296875 0.625q0.09375 0.359375 0.09375 1.015625l0 3.546875zm6.540512 0l-1.390625 0l0 -0.84375q-0.359375 0.5 -0.84375 0.734375q-0.46875 0.234375 -0.9375 0.234375q-0.984375 0 -1.6875 -0.78125q-0.703125 -0.796875 -0.703125 -2.21875q0 -1.453125 0.671875 -2.203125q0.6875 -0.75 1.734375 -0.75q0.953125 0 1.65625 0.796875l0 -2.84375l1.5 0l0 7.875zm-4.015625 -2.96875q0 0.90625 0.25 1.3125q0.359375 0.59375 1.015625 0.59375q0.515625 0 0.875 -0.4375q0.375 -0.453125 0.375 -1.328125q0 -0.984375 -0.359375 -1.40625q-0.34375 -0.4375 -0.90625 -0.4375q-0.53125 0 -0.890625 0.421875q-0.359375 0.421875 -0.359375 1.28125zm8.603012 1.15625l1.5 0.25q-0.28125 0.828125 -0.90625 1.265625q-0.625 0.421875 -1.578125 0.421875q-1.484375 0 -2.203125 -0.96875q-0.5625 -0.78125 -0.5625 -1.96875q0 -1.421875 0.734375 -2.21875q0.75 -0.796875 1.890625 -0.796875q1.265625 0 2.0 0.84375q0.734375 0.828125 0.703125 2.5625l-3.78125 0q0.015625 0.671875 0.359375 1.046875q0.359375 0.375 0.875 0.375q0.359375 0 0.59375 -0.1875q0.25 -0.203125 0.375 -0.625zm0.078125 -1.53125q-0.015625 -0.65625 -0.34375 -0.984375q-0.3125 -0.34375 -0.765625 -0.34375q-0.5 0 -0.828125 0.359375q-0.3125 0.359375 -0.3125 0.96875l2.25 0zm1.8171234 3.34375l2.0625 -2.9375l-1.96875 -2.765625l1.84375 0l1.0 1.5625l1.0625 -1.5625l1.78125 0l-1.9375 2.703125l2.109375 3.0l-1.859375 0l-1.15625 -1.765625l-1.171875 1.765625l-1.765625 0zm6.2546234 -2.5625l1.546875 -0.15625q0.140625 0.78125 0.5625 1.15625q0.4375 0.359375 1.15625 0.359375q0.78125 0 1.15625 -0.328125q0.390625 -0.328125 0.390625 -0.75q0 -0.28125 -0.171875 -0.46875q-0.15625 -0.203125 -0.5625 -0.359375q-0.28125 -0.09375 -1.265625 -0.34375q-1.28125 -0.3125 -1.796875 -0.78125q-0.71875 -0.640625 -0.71875 -1.578125q0 -0.59375 0.328125 -1.109375q0.34375 -0.53125 0.984375 -0.8125q0.640625 -0.28125 1.5625 -0.28125q1.46875 0 2.21875 0.65625q0.75 0.65625 0.796875 1.734375l-1.59375 0.078125q-0.109375 -0.609375 -0.4375 -0.875q-0.328125 -0.265625 -1.0 -0.265625q-0.703125 0 -1.09375 0.28125q-0.25 0.1875 -0.25 0.484375q0 0.28125 0.234375 0.484375q0.296875 0.25 1.453125 0.53125q1.171875 0.265625 1.71875 0.5625q0.5625 0.28125 0.875 0.796875q0.3125 0.5 0.3125 1.25q0 0.6875 -0.375 1.28125q-0.375 0.578125 -1.0625 0.875q-0.6875 0.28125 -1.71875 0.28125q-1.484375 0 -2.296875 -0.6875q-0.796875 -0.6875 -0.953125 -2.015625zm10.8107605 0.75l1.5 0.25q-0.28125 0.828125 -0.90625 1.265625q-0.625 0.421875 -1.578125 0.421875q-1.484375 0 -2.203125 -0.96875q-0.5625 -0.78125 -0.5625 -1.96875q0 -1.421875 0.734375 -2.21875q0.75 -0.796875 1.890625 -0.796875q1.265625 0 2.0 0.84375q0.734375 0.828125 0.703125 2.5625l-3.78125 0q0.015625 0.671875 0.359375 1.046875q0.359375 0.375 0.875 0.375q0.359375 0 0.59375 -0.1875q0.25 -0.203125 0.375 -0.625zm0.078125 -1.53125q-0.015625 -0.65625 -0.34375 -0.984375q-0.3125 -0.34375 -0.765625 -0.34375q-0.5 0 -0.828125 0.359375q-0.3125 0.359375 -0.3125 0.96875l2.25 0zm5.1608734 -2.359375l0 1.203125l-1.03125 0l0 2.296875q0 0.703125 0.03125 0.828125q0.03125 0.109375 0.125 0.1875q0.109375 0.0625 0.265625 0.0625q0.203125 0 0.609375 -0.140625l0.125 1.171875q-0.53125 0.21875 -1.1875 0.21875q-0.421875 0 -0.75 -0.125q-0.328125 -0.140625 -0.484375 -0.359375q-0.140625 -0.21875 -0.203125 -0.59375q-0.046875 -0.265625 -0.046875 -1.0625l0 -2.484375l-0.6875 0l0 -1.203125l0.6875 0l0 -1.140625l1.515625 -0.875l0 2.015625l1.03125 0z" fill-rule="nonzero"></path><path fill="#000000" d="m56.258957 117.12577l0 -1.09375l1.09375 0l0 1.09375l-1.09375 0zm0 4.609375l0 -1.09375l1.09375 0l0 1.09375l-1.09375 0zm5.765045 0l0 -7.875l1.0625 0l4.140625 6.1875l0 -6.1875l1.0 0l0 7.875l-1.078125 0l-4.125 -6.1875l0 6.1875l-1.0 0zm11.320602 0l0 -0.84375q-0.671875 0.96875 -1.8125 0.96875q-0.5 0 -0.953125 -0.1875q-0.4375 -0.203125 -0.65625 -0.484375q-0.203125 -0.296875 -0.28125 -0.71875q-0.0625 -0.28125 -0.0625 -0.90625l0 -3.53125l0.96875 0l0 3.15625q0 0.765625 0.0625 1.03125q0.09375 0.375 0.375 0.59375q0.296875 0.21875 0.734375 0.21875q0.4375 0 0.8125 -0.21875q0.390625 -0.234375 0.546875 -0.609375q0.15625 -0.390625 0.15625 -1.109375l0 -3.0625l0.96875 0l0 5.703125l-0.859375 0zm2.2702484 0l0 -7.875l1.578125 0l1.859375 5.578125q0.25 0.78125 0.375 1.15625q0.140625 -0.421875 0.421875 -1.25l1.875 -5.484375l1.40625 0l0 7.875l-1.0 0l0 -6.59375l-2.296875 6.59375l-0.9375 0l-2.265625 -6.703125l0 6.703125l-1.015625 0zm8.8767395 0l0 -7.875l1.03125 0l0 6.953125l3.875 0l0 0.921875l-4.90625 0zm5.6139984 -2.53125l0.984375 -0.078125q0.0625 0.578125 0.3125 0.96875q0.265625 0.375 0.796875 0.609375q0.53125 0.234375 1.203125 0.234375q0.609375 0 1.0625 -0.171875q0.453125 -0.1875 0.671875 -0.484375q0.234375 -0.3125 0.234375 -0.6875q0 -0.375 -0.21875 -0.640625q-0.21875 -0.28125 -0.71875 -0.46875q-0.3125 -0.125 -1.40625 -0.375q-1.078125 -0.265625 -1.515625 -0.5q-0.5625 -0.296875 -0.84375 -0.734375q-0.265625 -0.4375 -0.265625 -0.984375q0 -0.59375 0.328125 -1.109375q0.34375 -0.515625 0.984375 -0.78125q0.65625 -0.28125 1.453125 -0.28125q0.875 0 1.546875 0.296875q0.671875 0.28125 1.03125 0.828125q0.359375 0.546875 0.390625 1.234375l-1.0 0.078125q-0.078125 -0.75 -0.546875 -1.125q-0.46875 -0.390625 -1.375 -0.390625q-0.9375 0 -1.375 0.359375q-0.4375 0.34375 -0.4375 0.828125q0 0.421875 0.3125 0.703125q0.296875 0.265625 1.5625 0.5625q1.28125 0.28125 1.75 0.5q0.6875 0.3125 1.015625 0.796875q0.328125 0.484375 0.328125 1.125q0 0.625 -0.359375 1.1875q-0.359375 0.546875 -1.046875 0.859375q-0.671875 0.3125 -1.515625 0.3125q-1.0625 0 -1.78125 -0.3125q-0.71875 -0.3125 -1.140625 -0.9375q-0.40625 -0.625 -0.421875 -1.421875zm7.6388855 2.53125l0 -7.875l1.03125 0l0 7.875l-1.03125 0zm6.3512726 0l0 -0.71875q-0.53125 0.84375 -1.59375 0.84375q-0.671875 0 -1.25 -0.375q-0.578125 -0.375 -0.890625 -1.046875q-0.3125 -0.671875 -0.3125 -1.546875q0 -0.859375 0.28125 -1.546875q0.296875 -0.703125 0.859375 -1.0625q0.5625 -0.375 1.265625 -0.375q0.515625 0 0.921875 0.21875q0.40625 0.21875 0.65625 0.5625l0 -2.828125l0.96875 0l0 7.875l-0.90625 0zm-3.046875 -2.84375q0 1.09375 0.453125 1.640625q0.46875 0.53125 1.09375 0.53125q0.640625 0 1.078125 -0.515625q0.4375 -0.515625 0.4375 -1.578125q0 -1.171875 -0.453125 -1.71875q-0.4375 -0.546875 -1.109375 -0.546875q-0.640625 0 -1.078125 0.53125q-0.421875 0.515625 -0.421875 1.65625zm5.4108734 2.84375l0 -7.875l3.5 0q1.046875 0 1.59375 0.21875q0.546875 0.203125 0.875 0.75q0.328125 0.53125 0.328125 1.1875q0 0.828125 -0.546875 1.40625q-0.53125 0.578125 -1.671875 0.734375q0.421875 0.1875 0.625 0.390625q0.46875 0.421875 0.875 1.046875l1.359375 2.140625l-1.296875 0l-1.046875 -1.640625q-0.453125 -0.703125 -0.75 -1.078125q-0.296875 -0.375 -0.53125 -0.53125q-0.234375 -0.15625 -0.46875 -0.203125q-0.1875 -0.046875 -0.59375 -0.046875l-1.203125 0l0 3.5l-1.046875 0zm1.046875 -4.40625l2.234375 0q0.71875 0 1.125 -0.140625q0.40625 -0.140625 0.609375 -0.46875q0.203125 -0.328125 0.203125 -0.703125q0 -0.5625 -0.40625 -0.921875q-0.390625 -0.359375 -1.265625 -0.359375l-2.5 0l0 2.59375zm10.414352 2.5625l1.0 0.125q-0.234375 0.875 -0.875 1.359375q-0.640625 0.484375 -1.625 0.484375q-1.25 0 -1.984375 -0.765625q-0.734375 -0.765625 -0.734375 -2.15625q0 -1.453125 0.734375 -2.234375q0.75 -0.796875 1.921875 -0.796875q1.15625 0 1.875 0.78125q0.71875 0.765625 0.71875 2.1875q0 0.078125 0 0.25l-4.25 0q0.046875 0.9375 0.515625 1.4375q0.484375 0.5 1.203125 0.5q0.53125 0 0.90625 -0.265625q0.375 -0.28125 0.59375 -0.90625zm-3.171875 -1.5625l3.1875 0q-0.0625 -0.71875 -0.359375 -1.078125q-0.46875 -0.546875 -1.203125 -0.546875q-0.671875 0 -1.125 0.453125q-0.453125 0.4375 -0.5 1.171875zm5.4264984 3.40625l0 -4.953125l-0.84375 0l0 -0.75l0.84375 0l0 -0.609375q0 -0.578125 0.109375 -0.859375q0.140625 -0.375 0.484375 -0.609375q0.359375 -0.234375 0.984375 -0.234375q0.40625 0 0.90625 0.109375l-0.140625 0.84375q-0.3125 -0.0625 -0.578125 -0.0625q-0.4375 0 -0.625 0.1875q-0.171875 0.1875 -0.171875 0.703125l0 0.53125l1.109375 0l0 0.75l-1.109375 0l0 4.953125l-0.96875 0zm5.28067 -3.28125q0.40625 -0.015625 0.65625 -0.21875q0.265625 -0.21875 0.34375 -0.59375q0.09375 -0.375 0.09375 -1.265625q0.015625 -0.890625 0.046875 -1.1875q0.046875 -0.453125 0.171875 -0.71875q0.140625 -0.28125 0.328125 -0.4375q0.203125 -0.171875 0.5 -0.25q0.203125 -0.0625 0.65625 -0.0625l0.3125 0l0 0.84375l-0.171875 0q-0.5625 0 -0.75 0.203125q-0.171875 0.203125 -0.171875 0.90625q0 1.40625 -0.0625 1.78125q-0.09375 0.5625 -0.328125 0.875q-0.234375 0.3125 -0.734375 0.5625q0.59375 0.25 0.859375 0.765625q0.265625 0.5 0.265625 1.640625q0 1.0625 0.015625 1.25q0.046875 0.375 0.21875 0.515625q0.171875 0.140625 0.6875 0.140625l0.171875 0l0 0.84375l-0.3125 0q-0.515625 0 -0.75 -0.078125q-0.34375 -0.125 -0.578125 -0.40625q-0.21875 -0.28125 -0.296875 -0.703125q-0.0625 -0.421875 -0.078125 -1.390625q0 -0.96875 -0.09375 -1.328125q-0.078125 -0.375 -0.34375 -0.59375q-0.25 -0.21875 -0.65625 -0.21875l0 -0.875zm10.675919 3.28125l0 -0.84375q-0.671875 0.96875 -1.8125 0.96875q-0.5 0 -0.953125 -0.1875q-0.4375 -0.203125 -0.65625 -0.484375q-0.203125 -0.296875 -0.28125 -0.71875q-0.0625 -0.28125 -0.0625 -0.90625l0 -3.53125l0.96875 0l0 3.15625q0 0.765625 0.0625 1.03125q0.09375 0.375 0.375 0.59375q0.296875 0.21875 0.734375 0.21875q0.4375 0 0.8125 -0.21875q0.390625 -0.234375 0.546875 -0.609375q0.15625 -0.390625 0.15625 -1.109375l0 -3.0625l0.96875 0l0 5.703125l-0.859375 0zm1.8014984 -1.703125l0.953125 -0.15625q0.078125 0.578125 0.4375 0.890625q0.375 0.296875 1.03125 0.296875q0.671875 0 0.984375 -0.265625q0.328125 -0.265625 0.328125 -0.640625q0 -0.328125 -0.28125 -0.515625q-0.203125 -0.125 -0.984375 -0.328125q-1.0625 -0.265625 -1.484375 -0.453125q-0.40625 -0.203125 -0.625 -0.546875q-0.203125 -0.34375 -0.203125 -0.765625q0 -0.390625 0.171875 -0.703125q0.171875 -0.328125 0.484375 -0.546875q0.21875 -0.171875 0.609375 -0.28125q0.390625 -0.109375 0.828125 -0.109375q0.671875 0 1.171875 0.1875q0.515625 0.1875 0.75 0.53125q0.25 0.328125 0.34375 0.875l-0.9375 0.125q-0.078125 -0.4375 -0.390625 -0.671875q-0.296875 -0.25 -0.859375 -0.25q-0.671875 0 -0.953125 0.21875q-0.28125 0.21875 -0.28125 0.515625q0 0.1875 0.109375 0.328125q0.125 0.15625 0.375 0.265625q0.140625 0.046875 0.859375 0.25q1.015625 0.265625 1.421875 0.4375q0.40625 0.171875 0.640625 0.515625q0.234375 0.328125 0.234375 0.828125q0 0.484375 -0.28125 0.90625q-0.28125 0.421875 -0.8125 0.65625q-0.53125 0.234375 -1.203125 0.234375q-1.109375 0 -1.703125 -0.453125q-0.578125 -0.46875 -0.734375 -1.375zm9.609375 -0.140625l1.0 0.125q-0.234375 0.875 -0.875 1.359375q-0.640625 0.484375 -1.625 0.484375q-1.25 0 -1.984375 -0.765625q-0.734375 -0.765625 -0.734375 -2.15625q0 -1.453125 0.734375 -2.234375q0.75 -0.796875 1.921875 -0.796875q1.15625 0 1.875 0.78125q0.71875 0.765625 0.71875 2.1875q0 0.078125 0 0.25l-4.25 0q0.046875 0.9375 0.515625 1.4375q0.484375 0.5 1.203125 0.5q0.53125 0 0.90625 -0.265625q0.375 -0.28125 0.59375 -0.90625zm-3.171875 -1.5625l3.1875 0q-0.0625 -0.71875 -0.359375 -1.078125q-0.46875 -0.546875 -1.203125 -0.546875q-0.671875 0 -1.125 0.453125q-0.453125 0.4375 -0.5 1.171875zm10.285873 -1.21875l-5.203125 0l0 -0.90625l5.203125 0l0 0.90625zm0 2.390625l-5.203125 0l0 -0.90625l5.203125 0l0 0.90625zm1.1918335 -2.859375l-0.28125 -1.484375l0 -1.296875l1.109375 0l0 1.296875l-0.25 1.484375l-0.578125 0zm1.765625 0l-0.265625 -1.484375l0 -1.296875l1.109375 0l0 1.296875l-0.265625 1.484375l-0.578125 0zm1.5952606 2.234375q0 -1.578125 0.890625 -2.34375q0.734375 -0.625 1.796875 -0.625q1.171875 0 1.90625 0.765625q0.75 0.765625 0.75 2.125q0 1.109375 -0.328125 1.75q-0.328125 0.625 -0.96875 0.96875q-0.625 0.34375 -1.359375 0.34375q-1.203125 0 -1.953125 -0.765625q-0.734375 -0.765625 -0.734375 -2.21875zm1.0 0q0 1.109375 0.46875 1.65625q0.484375 0.53125 1.21875 0.53125q0.71875 0 1.1875 -0.546875q0.484375 -0.546875 0.484375 -1.671875q0 -1.046875 -0.484375 -1.59375q-0.484375 -0.546875 -1.1875 -0.546875q-0.734375 0 -1.21875 0.546875q-0.46875 0.53125 -0.46875 1.625zm5.2858734 5.046875l0 -7.890625l0.890625 0l0 0.734375q0.3125 -0.421875 0.703125 -0.640625q0.390625 -0.21875 0.953125 -0.21875q0.71875 0 1.28125 0.375q0.5625 0.375 0.84375 1.0625q0.28125 0.671875 0.28125 1.5q0 0.875 -0.3125 1.578125q-0.3125 0.6875 -0.921875 1.0625q-0.59375 0.375 -1.25 0.375q-0.484375 0 -0.875 -0.203125q-0.375 -0.203125 -0.625 -0.515625l0 2.78125l-0.96875 0zm0.875 -5.0q0 1.09375 0.453125 1.625q0.453125 0.515625 1.078125 0.515625q0.640625 0 1.09375 -0.53125q0.46875 -0.546875 0.46875 -1.703125q0 -1.078125 -0.453125 -1.625q-0.4375 -0.546875 -1.0625 -0.546875q-0.625 0 -1.109375 0.578125q-0.46875 0.578125 -0.46875 1.6875zm7.1764984 1.953125l0.125 0.84375q-0.40625 0.09375 -0.71875 0.09375q-0.53125 0 -0.828125 -0.171875q-0.28125 -0.171875 -0.40625 -0.4375q-0.109375 -0.265625 -0.109375 -1.140625l0 -3.28125l-0.71875 0l0 -0.75l0.71875 0l0 -1.40625l0.953125 -0.59375l0 2.0l0.984375 0l0 0.75l-0.984375 0l0 3.34375q0 0.40625 0.046875 0.53125q0.0625 0.109375 0.171875 0.1875q0.125 0.0625 0.328125 0.0625q0.171875 0 0.4375 -0.03125zm0.8512726 -5.90625l0 -1.109375l0.96875 0l0 1.109375l-0.96875 0zm0 6.765625l0 -5.703125l0.96875 0l0 5.703125l-0.96875 0zm1.9924774 -2.859375q0 -1.578125 0.890625 -2.34375q0.734375 -0.625 1.796875 -0.625q1.171875 0 1.90625 0.765625q0.75 0.765625 0.75 2.125q0 1.109375 -0.328125 1.75q-0.328125 0.625 -0.96875 0.96875q-0.625 0.34375 -1.359375 0.34375q-1.203125 0 -1.953125 -0.765625q-0.734375 -0.765625 -0.734375 -2.21875zm1.0 0q0 1.109375 0.46875 1.65625q0.484375 0.53125 1.21875 0.53125q0.71875 0 1.1875 -0.546875q0.484375 -0.546875 0.484375 -1.671875q0 -1.046875 -0.484375 -1.59375q-0.484375 -0.546875 -1.1875 -0.546875q-0.734375 0 -1.21875 0.546875q-0.46875 0.53125 -0.46875 1.625zm5.2858734 2.859375l0 -5.703125l0.875 0l0 0.8125q0.625 -0.9375 1.8125 -0.9375q0.515625 0 0.953125 0.1875q0.4375 0.171875 0.640625 0.484375q0.21875 0.296875 0.3125 0.703125q0.046875 0.28125 0.046875 0.953125l0 3.5l-0.96875 0l0 -3.46875q0 -0.59375 -0.109375 -0.875q-0.109375 -0.296875 -0.40625 -0.46875q-0.28125 -0.1875 -0.671875 -0.1875q-0.609375 0 -1.0625 0.390625q-0.453125 0.390625 -0.453125 1.5l0 3.109375l-0.96875 0zm9.660873 -0.703125q-0.546875 0.453125 -1.046875 0.640625q-0.484375 0.1875 -1.0625 0.1875q-0.9375 0 -1.453125 -0.453125q-0.5 -0.46875 -0.5 -1.171875q0 -0.421875 0.1875 -0.765625q0.203125 -0.34375 0.5 -0.546875q0.3125 -0.21875 0.703125 -0.328125q0.28125 -0.078125 0.859375 -0.140625q1.171875 -0.140625 1.71875 -0.34375q0.015625 -0.1875 0.015625 -0.25q0 -0.59375 -0.28125 -0.828125q-0.359375 -0.328125 -1.09375 -0.328125q-0.6875 0 -1.015625 0.234375q-0.3125 0.234375 -0.46875 0.84375l-0.953125 -0.125q0.125 -0.609375 0.421875 -0.984375q0.296875 -0.375 0.859375 -0.5625q0.5625 -0.203125 1.296875 -0.203125q0.734375 0 1.1875 0.171875q0.453125 0.171875 0.65625 0.4375q0.21875 0.25 0.3125 0.640625q0.046875 0.25 0.046875 0.90625l0 1.28125q0 1.34375 0.0625 1.703125q0.0625 0.359375 0.25 0.6875l-1.015625 0q-0.15625 -0.296875 -0.1875 -0.703125zm-0.09375 -2.15625q-0.515625 0.21875 -1.578125 0.359375q-0.59375 0.09375 -0.84375 0.203125q-0.234375 0.09375 -0.375 0.3125q-0.140625 0.203125 -0.140625 0.453125q0 0.390625 0.296875 0.65625q0.296875 0.25 0.859375 0.25q0.5625 0 0.984375 -0.25q0.4375 -0.25 0.65625 -0.671875q0.140625 -0.328125 0.140625 -0.96875l0 -0.34375zm2.2702484 2.859375l0 -7.875l0.96875 0l0 7.875l-0.96875 0zm2.4456024 -5.09375l-0.28125 -1.484375l0 -1.296875l1.109375 0l0 1.296875l-0.25 1.484375l-0.578125 0zm1.765625 0l-0.265625 -1.484375l0 -1.296875l1.109375 0l0 1.296875l-0.265625 1.484375l-0.578125 0zm7.555908 1.8125l0 0.875q-0.40625 0 -0.671875 0.21875q-0.265625 0.21875 -0.359375 0.59375q-0.078125 0.359375 -0.078125 1.265625q0 0.890625 -0.03125 1.171875q-0.046875 0.453125 -0.1875 0.71875q-0.125 0.28125 -0.328125 0.4375q-0.1875 0.171875 -0.484375 0.25q-0.203125 0.0625 -0.671875 0.0625l-0.296875 0l0 -0.84375l0.171875 0q0.5625 0 0.734375 -0.203125q0.1875 -0.203125 0.1875 -0.90625q0 -1.34375 0.046875 -1.703125q0.09375 -0.59375 0.34375 -0.9375q0.265625 -0.359375 0.734375 -0.5625q-0.625 -0.296875 -0.875 -0.78125q-0.25 -0.484375 -0.25 -1.640625q0 -1.046875 -0.03125 -1.25q-0.03125 -0.359375 -0.21875 -0.5q-0.171875 -0.15625 -0.671875 -0.15625l-0.171875 0l0 -0.84375l0.296875 0q0.53125 0 0.765625 0.09375q0.34375 0.125 0.5625 0.40625q0.234375 0.265625 0.296875 0.703125q0.078125 0.421875 0.078125 1.390625q0 0.953125 0.078125 1.328125q0.09375 0.359375 0.359375 0.578125q0.265625 0.21875 0.671875 0.234375z" fill-rule="nonzero"></path><path fill="#000000" fill-opacity="0.0" d="m109.86404 50.991737l0 -9.6377945" fill-rule="evenodd"></path><path stroke="#000000" stroke-width="1.0" stroke-linejoin="round" stroke-linecap="butt" d="m109.86404 50.991737l0 -9.6377945" fill-rule="evenodd"></path><path fill="#ffffff" d="m103.80105 41.353943l6.0629883 -12.629923l6.062996 12.629923z" fill-rule="evenodd"></path><path stroke="#000000" stroke-width="1.0" stroke-linejoin="round" stroke-linecap="butt" d="m103.80105 41.353943l6.0629883 -12.629923l6.062996 12.629923z" fill-rule="evenodd"></path><path fill="#ffffff" d="m62.127632 1.939805l95.46456 0l0 27.02362l-95.46456 0z" fill-rule="evenodd"></path><path stroke="#000000" stroke-width="1.0" stroke-linejoin="round" stroke-linecap="butt" d="m62.127632 1.939805l95.46456 0l0 27.02362l-95.46456 0z" fill-rule="evenodd"></path><path fill="#000000" d="m86.870056 16.644741l1.53125 -0.078125q0.03125 0.734375 0.265625 0.984375q0.34375 0.421875 1.296875 0.421875q0.796875 0 1.15625 -0.28125q0.359375 -0.28125 0.359375 -0.6875q0 -0.359375 -0.296875 -0.59375q-0.203125 -0.171875 -1.125 -0.56249905q-0.90625 -0.40625 -1.328125 -0.671875q-0.421875 -0.265625 -0.671875 -0.6875q-0.234375 -0.4375 -0.234375 -1.0q0 -1.0 0.71875 -1.65625q0.71875 -0.65625 2.078125 -0.65625q1.390625 0 2.140625 0.65625q0.765625 0.65625 0.84375 1.734375l-1.546875 0.0625q-0.0625 -0.5625 -0.421875 -0.859375q-0.34375 -0.296875 -1.015625 -0.296875q-0.671875 0 -0.96875 0.234375q-0.28125 0.234375 -0.28125 0.59375q0 0.34375 0.265625 0.5625q0.265625 0.21875 1.15625 0.609375q1.359375 0.59375 1.734375 0.953125q0.546875 0.53125 0.546875 1.374999q0 1.046875 -0.828125 1.796875q-0.8125 0.734375 -2.28125 0.734375q-1.015625 0 -1.765625 -0.34375q-0.734375 -0.34375 -1.046875 -0.953125q-0.3125 -0.609375 -0.28125 -1.390625zm6.8576355 2.546875l1.640625 -7.874999l5.84375 0l-0.28125 1.3125l-4.21875 0l-0.375 1.796875l4.078125 0l-0.265625 1.3125l-4.078125 0l-0.5 2.140624l4.578125 0l-0.28125 1.3125l-6.140625 0zm7.1388855 0l1.640625 -7.874999l2.125 0q0.890625 0 1.125 0.03125q0.5 0.046875 0.875 0.203125q0.390625 0.140625 0.703125 0.421875q0.3125 0.265625 0.53125 0.65625q0.234375 0.375 0.359375 0.875q0.125 0.484375 0.125 1.078125q0 1.28125 -0.484375 2.265624q-0.484375 0.984375 -1.21875 1.5625q-0.5625 0.453125 -1.453125 0.65625q-0.515625 0.125 -1.5625 0.125l-2.765625 0zm1.875 -1.265625l0.828125 0q0.890625 0 1.28125 -0.109375q0.40625 -0.109375 0.734375 -0.40625q0.484375 -0.4375 0.8125 -1.15625q0.328125 -0.73437405 0.328125 -1.718749q0 -0.84375 -0.28125 -1.265625q-0.265625 -0.421875 -0.65625 -0.5625q-0.28125 -0.09375 -1.0 -0.09375l-0.9375 0l-1.109375 5.312499zm5.7737274 1.265625l1.65625 -7.874999l2.6875 0q0.875 0 1.21875 0.046875q0.578125 0.09375 0.984375 0.34375q0.40625 0.234375 0.609375 0.640625q0.21875 0.390625 0.21875 0.875q0 0.65625 -0.375 1.140625q-0.359375 0.484375 -1.125 0.734375q0.609375 0.15625 0.953125 0.59375q0.34375 0.42187405 0.34375 0.95312405q0 0.71875 -0.40625 1.359375q-0.40625 0.625 -1.125 0.90625q-0.703125 0.28125 -1.921875 0.28125l-3.71875 0zm2.609375 -4.687499l1.234375 0q0.828125 0 1.1875 -0.125q0.375 -0.125 0.546875 -0.390625q0.1875 -0.265625 0.1875 -0.578125q0 -0.296875 -0.171875 -0.484375q-0.171875 -0.203125 -0.484375 -0.265625q-0.1875 -0.03125 -0.859375 -0.03125l-1.25 0l-0.390625 1.875zm-0.71875 3.421874l1.5625 0q0.984375 0 1.3125 -0.125q0.34375 -0.125 0.546875 -0.40625q0.203125 -0.296875 0.203125 -0.625q0 -0.390625 -0.296875 -0.640625q-0.296875 -0.26562405 -0.96875 -0.26562405l-1.9375 0l-0.421875 2.062499zm7.9768524 -2.828124l-1.5 -0.125q0.265625 -0.765625 0.90625 -1.1875q0.640625 -0.4375 1.703125 -0.4375q1.09375 0 1.609375 0.453125q0.53125 0.4375 0.53125 1.078125q0 0.25 -0.046875 0.546875q-0.03125 0.296875 -0.3125 1.531249q-0.21875 1.015625 -0.21875 1.421875q0 0.359375 0.125 0.8125l-1.5 0q-0.09375 -0.3125 -0.109375 -0.640625q-0.34375 0.375 -0.78125 0.578125q-0.4375 0.203125 -0.890625 0.203125q-0.703125 0 -1.171875 -0.46875q-0.453125 -0.46875 -0.453125 -1.203125q0 -0.8125 0.5 -1.296875q0.515625 -0.48437405 1.8125 -0.59374905q1.109375 -0.09375 1.46875 -0.21875q0.109375 -0.328125 0.109375 -0.515625q0 -0.25 -0.203125 -0.40625q-0.203125 -0.171875 -0.59375 -0.171875q-0.40625 0 -0.65625 0.171875q-0.234375 0.15625 -0.328125 0.46875zm1.46875 1.437499q-0.140625 0.03125 -0.359375 0.0625q-1.171875 0.140625 -1.515625 0.40625q-0.265625 0.203125 -0.265625 0.53125q0 0.265625 0.1875 0.453125q0.203125 0.1875 0.515625 0.1875q0.359375 0 0.65625 -0.171875q0.3125 -0.171875 0.46875 -0.4375q0.15625 -0.265625 0.28125 -0.828125l0.03125 -0.203125zm2.0827484 1.0625l1.5 -0.234375q0.203125 0.46875 0.5 0.671875q0.296875 0.1875 0.796875 0.1875q0.53125 0 0.84375 -0.234375q0.21875 -0.15625 0.21875 -0.390625q0 -0.15625 -0.109375 -0.28125q-0.109375 -0.125 -0.640625 -0.296875q-1.390625 -0.453125 -1.734375 -0.71875q-0.515625 -0.42187405 -0.515625 -1.093749q0 -0.6875 0.5 -1.171875q0.703125 -0.6875 2.09375 -0.6875q1.109375 0 1.671875 0.40625q0.5625 0.40625 0.703125 1.09375l-1.421875 0.25q-0.109375 -0.3125 -0.359375 -0.46875q-0.34375 -0.21875 -0.828125 -0.21875q-0.484375 0 -0.703125 0.171875q-0.203125 0.15625 -0.203125 0.359375q0 0.21875 0.21875 0.359375q0.125 0.09375 0.859375 0.296875q1.125 0.328125 1.515625 0.65624905q0.53125 0.4375 0.53125 1.0625q0 0.8125 -0.6875 1.421875q-0.671875 0.59375 -1.921875 0.59375q-1.234375 0 -1.90625 -0.453125q-0.671875 -0.46875 -0.921875 -1.28125zm11.692123 -0.78125l-3.875 0q0 0.09375 0 0.140625q0 0.5625 0.3125 0.921875q0.328125 0.34375 0.796875 0.34375q0.765625 0 1.203125 -0.796875l1.375 0.234375q-0.390625 0.828125 -1.078125 1.25q-0.671875 0.421875 -1.5 0.421875q-1.15625 0 -1.875 -0.734375q-0.71875 -0.734375 -0.71875 -1.921875q0 -1.171874 0.65625 -2.093749q0.875 -1.234375 2.515625 -1.234375q1.046875 0 1.671875 0.65625q0.625 0.640625 0.625 1.8125q0 0.56249905 -0.109375 0.99999905zm-1.3125 -0.93749905q0.015625 -0.109375 0.015625 -0.15625q0 -0.640625 -0.296875 -0.953125q-0.28125 -0.3125 -0.75 -0.3125q-0.484375 0 -0.859375 0.359375q-0.375 0.359375 -0.515625 1.0625l2.40625 0z" fill-rule="nonzero"></path><path fill="#ffffff" d="m211.72966 147.30708l223.71654 0l0 27.02362l-223.71654 0z" fill-rule="evenodd"></path><path stroke="#000000" stroke-width="1.0" stroke-linejoin="round" stroke-linecap="butt" d="m211.72966 147.30708l223.71654 0l0 27.02362l-223.71654 0z" fill-rule="evenodd"></path><path fill="#000000" d="m311.5376 161.9964l1.546875 -0.15625q0.140625 0.78125 0.5625 1.15625q0.4375 0.359375 1.15625 0.359375q0.78125 0 1.15625 -0.328125q0.390625 -0.328125 0.390625 -0.75q0 -0.28125 -0.171875 -0.46875q-0.15625 -0.203125 -0.5625 -0.359375q-0.28125 -0.09375 -1.265625 -0.34375q-1.28125 -0.3125 -1.796875 -0.78125q-0.71875 -0.640625 -0.71875 -1.578125q0 -0.59375 0.328125 -1.109375q0.34375 -0.53125 0.984375 -0.8125q0.640625 -0.28125 1.5625 -0.28125q1.46875 0 2.21875 0.65625q0.75 0.65625 0.796875 1.734375l-1.59375 0.078125q-0.109375 -0.609375 -0.4375 -0.875q-0.328125 -0.265625 -1.0 -0.265625q-0.703125 0 -1.09375 0.28125q-0.25 0.1875 -0.25 0.484375q0 0.28125 0.234375 0.484375q0.296875 0.25 1.453125 0.53125q1.171875 0.265625 1.71875 0.5625q0.5625 0.28125 0.875 0.796875q0.3125 0.5 0.3125 1.25q0 0.6875 -0.375 1.28125q-0.375 0.578125 -1.0625 0.875q-0.6875 0.28125 -1.71875 0.28125q-1.484375 0 -2.296875 -0.6875q-0.796875 -0.6875 -0.953125 -2.015625zm7.5138855 2.5625l0 -7.875l1.5 0l0 7.875l-1.5 0zm2.9606323 -6.484375l0 -1.390625l1.5 0l0 1.390625l-1.5 0zm0 6.484375l0 -5.703125l1.5 0l0 5.703125l-1.5 0zm7.929413 -4.015625l-1.484375 0.265625q-0.078125 -0.4375 -0.34375 -0.65625q-0.265625 -0.234375 -0.6875 -0.234375q-0.5625 0 -0.90625 0.390625q-0.328125 0.375 -0.328125 1.296875q0 1.015625 0.328125 1.4375q0.34375 0.421875 0.921875 0.421875q0.4375 0 0.703125 -0.25q0.28125 -0.25 0.390625 -0.84375l1.484375 0.25q-0.234375 1.03125 -0.890625 1.546875q-0.65625 0.515625 -1.75 0.515625q-1.265625 0 -2.015625 -0.78125q-0.734375 -0.796875 -0.734375 -2.1875q0 -1.421875 0.75 -2.203125q0.75 -0.78125 2.015625 -0.78125q1.046875 0 1.65625 0.453125q0.625 0.4375 0.890625 1.359375zm4.254608 2.203125l1.5 0.25q-0.28125 0.828125 -0.90625 1.265625q-0.625 0.421875 -1.578125 0.421875q-1.484375 0 -2.203125 -0.96875q-0.5625 -0.78125 -0.5625 -1.96875q0 -1.421875 0.734375 -2.21875q0.75 -0.796875 1.890625 -0.796875q1.265625 0 2.0 0.84375q0.734375 0.828125 0.703125 2.5625l-3.78125 0q0.015625 0.671875 0.359375 1.046875q0.359375 0.375 0.875 0.375q0.359375 0 0.59375 -0.1875q0.25 -0.203125 0.375 -0.625zm0.078125 -1.53125q-0.015625 -0.65625 -0.34375 -0.984375q-0.3125 -0.34375 -0.765625 -0.34375q-0.5 0 -0.828125 0.359375q-0.3125 0.359375 -0.3125 0.96875l2.25 0z" fill-rule="nonzero"></path><path fill="#ffffff" d="m211.73093 174.25458l223.71655 0l0 37.228348l-223.71655 0z" fill-rule="evenodd"></path><path stroke="#000000" stroke-width="1.0" stroke-linejoin="round" stroke-linecap="butt" d="m211.73093 174.25458l223.71655 0l0 37.228348l-223.71655 0z" fill-rule="evenodd"></path><path fill="#000000" d="m222.9653 190.10875l-1.515625 0l0 -5.703125l1.40625 0l0 0.8125q0.359375 -0.578125 0.640625 -0.75q0.296875 -0.1875 0.65625 -0.1875q0.515625 0 1.0 0.28125l-0.46875 1.3125q-0.375 -0.25 -0.703125 -0.25q-0.328125 0 -0.546875 0.1875q-0.21875 0.171875 -0.34375 0.625q-0.125 0.453125 -0.125 1.90625l0 1.765625zm6.006363 -1.8125l1.5 0.25q-0.28125 0.828125 -0.90625 1.265625q-0.625 0.421875 -1.578125 0.421875q-1.484375 0 -2.203125 -0.96875q-0.5625 -0.78125 -0.5625 -1.96875q0 -1.421875 0.734375 -2.21875q0.75 -0.796875 1.890625 -0.796875q1.265625 0 2.0 0.84375q0.734375 0.828125 0.703125 2.5625l-3.78125 0q0.015625 0.671875 0.359375 1.046875q0.359375 0.375 0.875 0.375q0.359375 0 0.59375 -0.1875q0.25 -0.203125 0.375 -0.625zm0.078125 -1.53125q-0.015625 -0.65625 -0.34375 -0.984375q-0.3125 -0.34375 -0.765625 -0.34375q-0.5 0 -0.828125 0.359375q-0.3125 0.359375 -0.3125 0.96875l2.25 0zm1.8796234 -2.359375l0.84375 0l0 -0.4375q0 -0.71875 0.140625 -1.0625q0.15625 -0.359375 0.5625 -0.578125q0.421875 -0.234375 1.046875 -0.234375q0.65625 0 1.265625 0.203125l-0.203125 1.046875q-0.359375 -0.078125 -0.6875 -0.078125q-0.328125 0 -0.484375 0.15625q-0.140625 0.140625 -0.140625 0.578125l0 0.40625l1.140625 0l0 1.1875l-1.140625 0l0 4.515625l-1.5 0l0 -4.515625l-0.84375 0l0 -1.1875zm7.5173645 3.890625l1.5 0.25q-0.28125 0.828125 -0.90625 1.265625q-0.625 0.421875 -1.578125 0.421875q-1.484375 0 -2.203125 -0.96875q-0.5625 -0.78125 -0.5625 -1.96875q0 -1.421875 0.734375 -2.21875q0.75 -0.796875 1.890625 -0.796875q1.265625 0 2.0 0.84375q0.734375 0.828125 0.703125 2.5625l-3.78125 0q0.015625 0.671875 0.359375 1.046875q0.359375 0.375 0.875 0.375q0.359375 0 0.59375 -0.1875q0.25 -0.203125 0.375 -0.625zm0.078125 -1.53125q-0.015625 -0.65625 -0.34375 -0.984375q-0.3125 -0.34375 -0.765625 -0.34375q-0.5 0 -0.828125 0.359375q-0.3125 0.359375 -0.3125 0.96875l2.25 0zm3.9889984 3.34375l-1.515625 0l0 -5.703125l1.40625 0l0 0.8125q0.359375 -0.578125 0.640625 -0.75q0.296875 -0.1875 0.65625 -0.1875q0.515625 0 1.0 0.28125l-0.46875 1.3125q-0.375 -0.25 -0.703125 -0.25q-0.328125 0 -0.546875 0.1875q-0.21875 0.171875 -0.34375 0.625q-0.125 0.453125 -0.125 1.90625l0 1.765625zm6.006363 -1.8125l1.5 0.25q-0.28125 0.828125 -0.90625 1.265625q-0.625 0.421875 -1.578125 0.421875q-1.484375 0 -2.203125 -0.96875q-0.5625 -0.78125 -0.5625 -1.96875q0 -1.421875 0.734375 -2.21875q0.75 -0.796875 1.890625 -0.796875q1.265625 0 2.0 0.84375q0.734375 0.828125 0.703125 2.5625l-3.78125 0q0.015625 0.671875 0.359375 1.046875q0.359375 0.375 0.875 0.375q0.359375 0 0.59375 -0.1875q0.25 -0.203125 0.375 -0.625zm0.078125 -1.53125q-0.015625 -0.65625 -0.34375 -0.984375q-0.3125 -0.34375 -0.765625 -0.34375q-0.5 0 -0.828125 0.359375q-0.3125 0.359375 -0.3125 0.96875l2.25 0zm7.7390137 3.34375l-1.5156403 0l0 -2.90625q0 -0.921875 -0.09375 -1.1875q-0.09375 -0.28125 -0.3125 -0.421875q-0.21875 -0.15625 -0.53125 -0.15625q-0.390625 0 -0.703125 0.21875q-0.3125 0.203125 -0.4375 0.5625q-0.109375 0.34375 -0.109375 1.3125l0 2.578125l-1.5 0l0 -5.703125l1.40625 0l0 0.84375q0.734375 -0.96875 1.875 -0.96875q0.5 0 0.90625 0.1875q0.421875 0.171875 0.625 0.453125q0.21876526 0.265625 0.29689026 0.625q0.09375 0.359375 0.09375 1.015625l0 3.546875zm6.290497 -4.015625l-1.484375 0.265625q-0.078125 -0.4375 -0.34375 -0.65625q-0.265625 -0.234375 -0.6875 -0.234375q-0.5625 0 -0.90625 0.390625q-0.328125 0.375 -0.328125 1.296875q0 1.015625 0.328125 1.4375q0.34375 0.421875 0.921875 0.421875q0.4375 0 0.703125 -0.25q0.28125 -0.25 0.390625 -0.84375l1.484375 0.25q-0.234375 1.03125 -0.890625 1.546875q-0.65625 0.515625 -1.75 0.515625q-1.265625 0 -2.015625 -0.78125q-0.734375 -0.796875 -0.734375 -2.1875q0 -1.421875 0.75 -2.203125q0.75 -0.78125 2.015625 -0.78125q1.046875 0 1.65625 0.453125q0.625 0.4375 0.890625 1.359375zm4.2546387 2.203125l1.5 0.25q-0.28125 0.828125 -0.90625 1.265625q-0.625 0.421875 -1.578125 0.421875q-1.484375 0 -2.203125 -0.96875q-0.5625 -0.78125 -0.5625 -1.96875q0 -1.421875 0.734375 -2.21875q0.75 -0.796875 1.890625 -0.796875q1.265625 0 2.0 0.84375q0.734375 0.828125 0.703125 2.5625l-3.78125 0q0.015625 0.671875 0.359375 1.046875q0.359375 0.375 0.875 0.375q0.359375 0 0.59375 -0.1875q0.25 -0.203125 0.375 -0.625zm0.078125 -1.53125q-0.015625 -0.65625 -0.34375 -0.984375q-0.3125 -0.34375 -0.765625 -0.34375q-0.5 0 -0.828125 0.359375q-0.3125 0.359375 -0.3125 0.96875l2.25 0z" fill-rule="nonzero"></path><path fill="#000000" d="m269.71527 185.49937l0 -1.09375l1.09375 0l0 1.09375l-1.09375 0zm0 4.609375l0 -1.09375l1.09375 0l0 1.09375l-1.09375 0zm5.765045 0l0 -7.875l1.0625 0l4.140625 6.1875l0 -6.1875l1.0 0l0 7.875l-1.078125 0l-4.125 -6.1875l0 6.1875l-1.0 0zm11.320618 0l0 -0.84375q-0.671875 0.96875 -1.8125 0.96875q-0.5 0 -0.953125 -0.1875q-0.4375 -0.203125 -0.65625 -0.484375q-0.203125 -0.296875 -0.28125 -0.71875q-0.0625 -0.28125 -0.0625 -0.90625l0 -3.53125l0.96875 0l0 3.15625q0 0.765625 0.0625 1.03125q0.09375 0.375 0.375 0.59375q0.296875 0.21875 0.734375 0.21875q0.4375 0 0.8125 -0.21875q0.390625 -0.234375 0.546875 -0.609375q0.15625 -0.390625 0.15625 -1.109375l0 -3.0625l0.96875 0l0 5.703125l-0.859375 0zm2.2702332 0l0 -7.875l1.578125 0l1.859375 5.578125q0.25 0.78125 0.375 1.15625q0.140625 -0.421875 0.421875 -1.25l1.875 -5.484375l1.40625 0l0 7.875l-1.0 0l0 -6.59375l-2.296875 6.59375l-0.9375 0l-2.265625 -6.703125l0 6.703125l-1.015625 0zm8.8767395 0l0 -7.875l1.03125 0l0 6.953125l3.875 0l0 0.921875l-4.90625 0zm5.6140137 -2.53125l0.984375 -0.078125q0.0625 0.578125 0.3125 0.96875q0.265625 0.375 0.796875 0.609375q0.53125 0.234375 1.203125 0.234375q0.609375 0 1.0625 -0.171875q0.453125 -0.1875 0.671875 -0.484375q0.234375 -0.3125 0.234375 -0.6875q0 -0.375 -0.21875 -0.640625q-0.21875 -0.28125 -0.71875 -0.46875q-0.3125 -0.125 -1.40625 -0.375q-1.078125 -0.265625 -1.515625 -0.5q-0.5625 -0.296875 -0.84375 -0.734375q-0.265625 -0.4375 -0.265625 -0.984375q0 -0.59375 0.328125 -1.109375q0.34375 -0.515625 0.984375 -0.78125q0.65625 -0.28125 1.453125 -0.28125q0.875 0 1.546875 0.296875q0.671875 0.28125 1.03125 0.828125q0.359375 0.546875 0.390625 1.234375l-1.0 0.078125q-0.078125 -0.75 -0.546875 -1.125q-0.46875 -0.390625 -1.375 -0.390625q-0.9375 0 -1.375 0.359375q-0.4375 0.34375 -0.4375 0.828125q0 0.421875 0.3125 0.703125q0.296875 0.265625 1.5625 0.5625q1.28125 0.28125 1.75 0.5q0.6875 0.3125 1.015625 0.796875q0.328125 0.484375 0.328125 1.125q0 0.625 -0.359375 1.1875q-0.359375 0.546875 -1.046875 0.859375q-0.671875 0.3125 -1.515625 0.3125q-1.0625 0 -1.78125 -0.3125q-0.71875 -0.3125 -1.140625 -0.9375q-0.40625 -0.625 -0.421875 -1.421875zm7.6388855 2.53125l0 -7.875l1.03125 0l0 7.875l-1.03125 0zm6.3512573 0l0 -0.71875q-0.53125 0.84375 -1.59375 0.84375q-0.671875 0 -1.25 -0.375q-0.578125 -0.375 -0.890625 -1.046875q-0.3125 -0.671875 -0.3125 -1.546875q0 -0.859375 0.28125 -1.546875q0.296875 -0.703125 0.859375 -1.0625q0.5625 -0.375 1.265625 -0.375q0.515625 0 0.921875 0.21875q0.40625 0.21875 0.65625 0.5625l0 -2.828125l0.96875 0l0 7.875l-0.90625 0zm-3.046875 -2.84375q0 1.09375 0.453125 1.640625q0.46875 0.53125 1.09375 0.53125q0.640625 0 1.078125 -0.515625q0.4375 -0.515625 0.4375 -1.578125q0 -1.171875 -0.453125 -1.71875q-0.4375 -0.546875 -1.109375 -0.546875q-0.640625 0 -1.078125 0.53125q-0.421875 0.515625 -0.421875 1.65625zm5.4108887 2.84375l0 -7.875l3.5 0q1.046875 0 1.59375 0.21875q0.546875 0.203125 0.875 0.75q0.328125 0.53125 0.328125 1.1875q0 0.828125 -0.546875 1.40625q-0.53125 0.578125 -1.671875 0.734375q0.421875 0.1875 0.625 0.390625q0.46875 0.421875 0.875 1.046875l1.359375 2.140625l-1.296875 0l-1.046875 -1.640625q-0.453125 -0.703125 -0.75 -1.078125q-0.296875 -0.375 -0.53125 -0.53125q-0.234375 -0.15625 -0.46875 -0.203125q-0.1875 -0.046875 -0.59375 -0.046875l-1.203125 0l0 3.5l-1.046875 0zm1.046875 -4.40625l2.234375 0q0.71875 0 1.125 -0.140625q0.40625 -0.140625 0.609375 -0.46875q0.203125 -0.328125 0.203125 -0.703125q0 -0.5625 -0.40625 -0.921875q-0.390625 -0.359375 -1.265625 -0.359375l-2.5 0l0 2.59375zm10.414337 2.5625l1.0 0.125q-0.234375 0.875 -0.875 1.359375q-0.640625 0.484375 -1.625 0.484375q-1.25 0 -1.984375 -0.765625q-0.734375 -0.765625 -0.734375 -2.15625q0 -1.453125 0.734375 -2.234375q0.75 -0.796875 1.921875 -0.796875q1.15625 0 1.875 0.78125q0.71875 0.765625 0.71875 2.1875q0 0.078125 0 0.25l-4.25 0q0.046875 0.9375 0.515625 1.4375q0.484375 0.5 1.203125 0.5q0.53125 0 0.90625 -0.265625q0.375 -0.28125 0.59375 -0.90625zm-3.171875 -1.5625l3.1875 0q-0.0625 -0.71875 -0.359375 -1.078125q-0.46875 -0.546875 -1.203125 -0.546875q-0.671875 0 -1.125 0.453125q-0.453125 0.4375 -0.5 1.171875zm5.4265137 3.40625l0 -4.953125l-0.84375 0l0 -0.75l0.84375 0l0 -0.609375q0 -0.578125 0.109375 -0.859375q0.140625 -0.375 0.484375 -0.609375q0.359375 -0.234375 0.984375 -0.234375q0.40625 0 0.90625 0.109375l-0.140625 0.84375q-0.3125 -0.0625 -0.578125 -0.0625q-0.4375 0 -0.625 0.1875q-0.171875 0.1875 -0.171875 0.703125l0 0.53125l1.109375 0l0 0.75l-1.109375 0l0 4.953125l-0.96875 0zm5.28067 -3.28125q0.40625 -0.015625 0.65625 -0.21875q0.265625 -0.21875 0.34375 -0.59375q0.09375 -0.375 0.09375 -1.265625q0.015625 -0.890625 0.046875 -1.1875q0.046875 -0.453125 0.171875 -0.71875q0.140625 -0.28125 0.328125 -0.4375q0.203125 -0.171875 0.5 -0.25q0.203125 -0.0625 0.65625 -0.0625l0.3125 0l0 0.84375l-0.171875 0q-0.5625 0 -0.75 0.203125q-0.171875 0.203125 -0.171875 0.90625q0 1.40625 -0.0625 1.78125q-0.09375 0.5625 -0.328125 0.875q-0.234375 0.3125 -0.734375 0.5625q0.59375 0.25 0.859375 0.765625q0.265625 0.5 0.265625 1.640625q0 1.0625 0.015625 1.25q0.046875 0.375 0.21875 0.515625q0.171875 0.140625 0.6875 0.140625l0.171875 0l0 0.84375l-0.3125 0q-0.515625 0 -0.75 -0.078125q-0.34375 -0.125 -0.578125 -0.40625q-0.21875 -0.28125 -0.296875 -0.703125q-0.0625 -0.421875 -0.078125 -1.390625q0 -0.96875 -0.09375 -1.328125q-0.078125 -0.375 -0.34375 -0.59375q-0.25 -0.21875 -0.65625 -0.21875l0 -0.875zm10.675903 3.28125l0 -0.84375q-0.671875 0.96875 -1.8125 0.96875q-0.5 0 -0.953125 -0.1875q-0.4375 -0.203125 -0.65625 -0.484375q-0.203125 -0.296875 -0.28125 -0.71875q-0.0625 -0.28125 -0.0625 -0.90625l0 -3.53125l0.96875 0l0 3.15625q0 0.765625 0.0625 1.03125q0.09375 0.375 0.375 0.59375q0.296875 0.21875 0.734375 0.21875q0.4375 0 0.8125 -0.21875q0.390625 -0.234375 0.546875 -0.609375q0.15625 -0.390625 0.15625 -1.109375l0 -3.0625l0.96875 0l0 5.703125l-0.859375 0zm1.8015137 -1.703125l0.953125 -0.15625q0.078125 0.578125 0.4375 0.890625q0.375 0.296875 1.03125 0.296875q0.671875 0 0.984375 -0.265625q0.328125 -0.265625 0.328125 -0.640625q0 -0.328125 -0.28125 -0.515625q-0.203125 -0.125 -0.984375 -0.328125q-1.0625 -0.265625 -1.484375 -0.453125q-0.40625 -0.203125 -0.625 -0.546875q-0.203125 -0.34375 -0.203125 -0.765625q0 -0.390625 0.171875 -0.703125q0.171875 -0.328125 0.484375 -0.546875q0.21875 -0.171875 0.609375 -0.28125q0.390625 -0.109375 0.828125 -0.109375q0.671875 0 1.171875 0.1875q0.515625 0.1875 0.75 0.53125q0.25 0.328125 0.34375 0.875l-0.9375 0.125q-0.078125 -0.4375 -0.390625 -0.671875q-0.296875 -0.25 -0.859375 -0.25q-0.671875 0 -0.953125 0.21875q-0.28125 0.21875 -0.28125 0.515625q0 0.1875 0.109375 0.328125q0.125 0.15625 0.375 0.265625q0.140625 0.046875 0.859375 0.25q1.015625 0.265625 1.421875 0.4375q0.40625 0.171875 0.640625 0.515625q0.234375 0.328125 0.234375 0.828125q0 0.484375 -0.28125 0.90625q-0.28125 0.421875 -0.8125 0.65625q-0.53125 0.234375 -1.203125 0.234375q-1.109375 0 -1.703125 -0.453125q-0.578125 -0.46875 -0.734375 -1.375zm9.609375 -0.140625l1.0 0.125q-0.234375 0.875 -0.875 1.359375q-0.640625 0.484375 -1.625 0.484375q-1.25 0 -1.984375 -0.765625q-0.734375 -0.765625 -0.734375 -2.15625q0 -1.453125 0.734375 -2.234375q0.75 -0.796875 1.921875 -0.796875q1.15625 0 1.875 0.78125q0.71875 0.765625 0.71875 2.1875q0 0.078125 0 0.25l-4.25 0q0.046875 0.9375 0.515625 1.4375q0.484375 0.5 1.203125 0.5q0.53125 0 0.90625 -0.265625q0.375 -0.28125 0.59375 -0.90625zm-3.171875 -1.5625l3.1875 0q-0.0625 -0.71875 -0.359375 -1.078125q-0.46875 -0.546875 -1.203125 -0.546875q-0.671875 0 -1.125 0.453125q-0.453125 0.4375 -0.5 1.171875zm10.285858 -1.21875l-5.203125 0l0 -0.90625l5.203125 0l0 0.90625zm0 2.390625l-5.203125 0l0 -0.90625l5.203125 0l0 0.90625zm1.1918335 -2.859375l-0.28125 -1.484375l0 -1.296875l1.109375 0l0 1.296875l-0.25 1.484375l-0.578125 0zm1.765625 0l-0.265625 -1.484375l0 -1.296875l1.109375 0l0 1.296875l-0.265625 1.484375l-0.578125 0zm1.9546509 5.09375l0 -5.703125l0.859375 0l0 0.859375q0.34375 -0.609375 0.625 -0.796875q0.28125 -0.1875 0.609375 -0.1875q0.5 0 1.0 0.3125l-0.328125 0.890625q-0.359375 -0.203125 -0.71875 -0.203125q-0.3125 0 -0.5625 0.1875q-0.25 0.1875 -0.359375 0.53125q-0.15625 0.515625 -0.15625 1.125l0 2.984375l-0.96875 0zm7.4548645 -1.84375l1.0 0.125q-0.234375 0.875 -0.875 1.359375q-0.640625 0.484375 -1.625 0.484375q-1.25 0 -1.984375 -0.765625q-0.734375 -0.765625 -0.734375 -2.15625q0 -1.453125 0.734375 -2.234375q0.75 -0.796875 1.921875 -0.796875q1.15625 0 1.875 0.78125q0.71875 0.765625 0.71875 2.1875q0 0.078125 0 0.25l-4.25 0q0.046875 0.9375 0.515625 1.4375q0.484375 0.5 1.203125 0.5q0.53125 0 0.90625 -0.265625q0.375 -0.28125 0.59375 -0.90625zm-3.171875 -1.5625l3.1875 0q-0.0625 -0.71875 -0.359375 -1.078125q-0.46875 -0.546875 -1.203125 -0.546875q-0.671875 0 -1.125 0.453125q-0.453125 0.4375 -0.5 1.171875zm8.832733 5.59375l0 -2.796875q-0.21875 0.3125 -0.625 0.53125q-0.40625 0.203125 -0.859375 0.203125q-1.015625 0 -1.75 -0.8125q-0.734375 -0.8125 -0.734375 -2.21875q0 -0.859375 0.296875 -1.53125q0.296875 -0.6875 0.859375 -1.03125q0.5625 -0.359375 1.25 -0.359375q1.046875 0 1.65625 0.890625l0 -0.765625l0.875 0l0 7.890625l-0.96875 0zm-2.984375 -5.0625q0 1.109375 0.453125 1.65625q0.46875 0.546875 1.125 0.546875q0.609375 0 1.046875 -0.515625q0.453125 -0.53125 0.453125 -1.59375q0 -1.140625 -0.46875 -1.71875q-0.46875 -0.578125 -1.09375 -0.578125q-0.640625 0 -1.078125 0.546875q-0.4375 0.53125 -0.4375 1.65625zm9.020264 2.875l0 -0.84375q-0.671875 0.96875 -1.8125 0.96875q-0.5 0 -0.953125 -0.1875q-0.4375 -0.203125 -0.65625 -0.484375q-0.203125 -0.296875 -0.28125 -0.71875q-0.0625 -0.28125 -0.0625 -0.90625l0 -3.53125l0.96875 0l0 3.15625q0 0.765625 0.0625 1.03125q0.09375 0.375 0.375 0.59375q0.296875 0.21875 0.734375 0.21875q0.4375 0 0.8125 -0.21875q0.390625 -0.234375 0.546875 -0.609375q0.15625 -0.390625 0.15625 -1.109375l0 -3.0625l0.96875 0l0 5.703125l-0.859375 0zm2.1921082 -6.765625l0 -1.109375l0.96875 0l0 1.109375l-0.96875 0zm0 6.765625l0 -5.703125l0.96875 0l0 5.703125l-0.96875 0zm2.3518677 0l0 -5.703125l0.859375 0l0 0.859375q0.34375 -0.609375 0.625 -0.796875q0.28125 -0.1875 0.609375 -0.1875q0.5 0 1.0 0.3125l-0.328125 0.890625q-0.359375 -0.203125 -0.71875 -0.203125q-0.3125 0 -0.5625 0.1875q-0.25 0.1875 -0.359375 0.53125q-0.15625 0.515625 -0.15625 1.125l0 2.984375l-0.96875 0zm7.4548645 -1.84375l1.0 0.125q-0.234375 0.875 -0.875 1.359375q-0.640625 0.484375 -1.625 0.484375q-1.25 0 -1.984375 -0.765625q-0.734375 -0.765625 -0.734375 -2.15625q0 -1.453125 0.734375 -2.234375q0.75 -0.796875 1.921875 -0.796875q1.15625 0 1.875 0.78125q0.71875 0.765625 0.71875 2.1875q0 0.078125 0 0.25l-4.25 0q0.046875 0.9375 0.515625 1.4375q0.484375 0.5 1.203125 0.5q0.53125 0 0.90625 -0.265625q0.375 -0.28125 0.59375 -0.90625zm-3.171875 -1.5625l3.1875 0q-0.0625 -0.71875 -0.359375 -1.078125q-0.46875 -0.546875 -1.203125 -0.546875q-0.671875 0 -1.125 0.453125q-0.453125 0.4375 -0.5 1.171875zm8.895233 3.40625l0 -0.71875q-0.53125 0.84375 -1.59375 0.84375q-0.671875 0 -1.25 -0.375q-0.578125 -0.375 -0.890625 -1.046875q-0.3125 -0.671875 -0.3125 -1.546875q0 -0.859375 0.28125 -1.546875q0.296875 -0.703125 0.859375 -1.0625q0.5625 -0.375 1.265625 -0.375q0.515625 0 0.921875 0.21875q0.40625 0.21875 0.65625 0.5625l0 -2.828125l0.96875 0l0 7.875l-0.90625 0zm-3.046875 -2.84375q0 1.09375 0.453125 1.640625q0.46875 0.53125 1.09375 0.53125q0.640625 0 1.078125 -0.515625q0.4375 -0.515625 0.4375 -1.578125q0 -1.171875 -0.453125 -1.71875q-0.4375 -0.546875 -1.109375 -0.546875q-0.640625 0 -1.078125 0.53125q-0.421875 0.515625 -0.421875 1.65625zm5.3327637 -2.25l-0.28125 -1.484375l0 -1.296875l1.109375 0l0 1.296875l-0.25 1.484375l-0.578125 0zm1.765625 0l-0.265625 -1.484375l0 -1.296875l1.109375 0l0 1.296875l-0.265625 1.484375l-0.578125 0zm7.555908 1.8125l0 0.875q-0.40625 0 -0.671875 0.21875q-0.265625 0.21875 -0.359375 0.59375q-0.078125 0.359375 -0.078125 1.265625q0 0.890625 -0.03125 1.171875q-0.046875 0.453125 -0.1875 0.71875q-0.125 0.28125 -0.328125 0.4375q-0.1875 0.171875 -0.484375 0.25q-0.203125 0.0625 -0.671875 0.0625l-0.296875 0l0 -0.84375l0.171875 0q0.5625 0 0.734375 -0.203125q0.1875 -0.203125 0.1875 -0.90625q0 -1.34375 0.046875 -1.703125q0.09375 -0.59375 0.34375 -0.9375q0.265625 -0.359375 0.734375 -0.5625q-0.625 -0.296875 -0.875 -0.78125q-0.25 -0.484375 -0.25 -1.640625q0 -1.046875 -0.03125 -1.25q-0.03125 -0.359375 -0.21875 -0.5q-0.171875 -0.15625 -0.671875 -0.15625l-0.171875 0l0 -0.84375l0.296875 0q0.53125 0 0.765625 0.09375q0.34375 0.125 0.5625 0.40625q0.234375 0.265625 0.296875 0.703125q0.078125 0.421875 0.078125 1.390625q0 0.953125 0.078125 1.328125q0.09375 0.359375 0.359375 0.578125q0.265625 0.21875 0.671875 0.234375z" fill-rule="nonzero"></path><path fill="#000000" d="m223.0903 203.10875l-2.296875 -5.703125l1.578125 0l1.078125 2.90625l0.3125 0.96875q0.125 -0.359375 0.15625 -0.484375q0.078125 -0.234375 0.15625 -0.484375l1.09375 -2.90625l1.546875 0l-2.265625 5.703125l-1.359375 0zm5.4889984 -3.96875l-1.375 -0.25q0.234375 -0.8125 0.796875 -1.203125q0.5625 -0.40625 1.671875 -0.40625q1.015625 0 1.5 0.234375q0.5 0.234375 0.703125 0.609375q0.203125 0.359375 0.203125 1.34375l-0.015625 1.765625q0 0.75 0.0625 1.109375q0.078125 0.359375 0.28125 0.765625l-1.5 0q-0.0625 -0.15625 -0.140625 -0.453125q-0.03125 -0.125 -0.046875 -0.171875q-0.390625 0.375 -0.84375 0.5625q-0.4375 0.1875 -0.9375 0.1875q-0.875 0 -1.390625 -0.46875q-0.5 -0.484375 -0.5 -1.21875q0 -0.484375 0.234375 -0.859375q0.234375 -0.375 0.640625 -0.578125q0.421875 -0.203125 1.203125 -0.359375q1.0625 -0.1875 1.46875 -0.359375l0 -0.15625q0 -0.4375 -0.21875 -0.609375q-0.21875 -0.1875 -0.8125 -0.1875q-0.390625 0 -0.625 0.15625q-0.21875 0.15625 -0.359375 0.546875zm2.015625 1.234375q-0.296875 0.09375 -0.921875 0.234375q-0.625 0.125 -0.8125 0.25q-0.296875 0.21875 -0.296875 0.53125q0 0.328125 0.234375 0.5625q0.234375 0.21875 0.59375 0.21875q0.40625 0 0.78125 -0.265625q0.28125 -0.203125 0.359375 -0.5q0.0625 -0.1875 0.0625 -0.734375l0 -0.296875zm2.7858734 2.734375l0 -7.875l1.5 0l0 7.875l-1.5 0zm6.7106476 0l0 -0.859375q-0.3125 0.46875 -0.828125 0.734375q-0.5 0.25 -1.0625 0.25q-0.578125 0 -1.03125 -0.25q-0.453125 -0.25 -0.671875 -0.703125q-0.203125 -0.46875 -0.203125 -1.265625l0 -3.609375l1.515625 0l0 2.625q0 1.203125 0.078125 1.46875q0.09375 0.265625 0.3125 0.4375q0.21875 0.15625 0.5625 0.15625q0.375 0 0.6875 -0.203125q0.3125 -0.21875 0.421875 -0.53125q0.109375 -0.328125 0.109375 -1.546875l0 -2.40625l1.515625 0l0 5.703125l-1.40625 0zm6.056137 -1.8125l1.5 0.25q-0.28125 0.828125 -0.90625 1.265625q-0.625 0.421875 -1.578125 0.421875q-1.484375 0 -2.203125 -0.96875q-0.5625 -0.78125 -0.5625 -1.96875q0 -1.421875 0.734375 -2.21875q0.75 -0.796875 1.890625 -0.796875q1.265625 0 2.0 0.84375q0.734375 0.828125 0.703125 2.5625l-3.78125 0q0.015625 0.671875 0.359375 1.046875q0.359375 0.375 0.875 0.375q0.359375 0 0.59375 -0.1875q0.25 -0.203125 0.375 -0.625zm0.078125 -1.53125q-0.015625 -0.65625 -0.34375 -0.984375q-0.3125 -0.34375 -0.765625 -0.34375q-0.5 0 -0.828125 0.359375q-0.3125 0.359375 -0.3125 0.96875l2.25 0z" fill-rule="nonzero"></path><path fill="#000000" d="m248.98033 198.49937l0 -1.09375l1.09375 0l0 1.09375l-1.09375 0zm0 4.609375l0 -1.09375l1.09375 0l0 1.09375l-1.09375 0zm5.265045 -1.703125l0.953125 -0.15625q0.078125 0.578125 0.4375 0.890625q0.37501526 0.296875 1.0312653 0.296875q0.671875 0 0.984375 -0.265625q0.328125 -0.265625 0.328125 -0.640625q0 -0.328125 -0.28125 -0.515625q-0.203125 -0.125 -0.984375 -0.328125q-1.0625153 -0.265625 -1.4843903 -0.453125q-0.40625 -0.203125 -0.625 -0.546875q-0.203125 -0.34375 -0.203125 -0.765625q0 -0.390625 0.171875 -0.703125q0.171875 -0.328125 0.484375 -0.546875q0.21875 -0.171875 0.609375 -0.28125q0.39064026 -0.109375 0.82814026 -0.109375q0.671875 0 1.171875 0.1875q0.515625 0.1875 0.75 0.53125q0.25 0.328125 0.34375 0.875l-0.9375 0.125q-0.078125 -0.4375 -0.390625 -0.671875q-0.296875 -0.25 -0.859375 -0.25q-0.67189026 0 -0.95314026 0.21875q-0.28125 0.21875 -0.28125 0.515625q0 0.1875 0.109375 0.328125q0.125 0.15625 0.375 0.265625q0.140625 0.046875 0.85939026 0.25q1.015625 0.265625 1.421875 0.4375q0.40625 0.171875 0.640625 0.515625q0.234375 0.328125 0.234375 0.828125q0 0.484375 -0.28125 0.90625q-0.28125 0.421875 -0.8125 0.65625q-0.53125 0.234375 -1.203125 0.234375q-1.1093903 0 -1.7031403 -0.453125q-0.578125 -0.46875 -0.734375 -1.375zm7.8281403 0.84375l0.125 0.84375q-0.40625 0.09375 -0.71875 0.09375q-0.53125 0 -0.828125 -0.171875q-0.28125 -0.171875 -0.40625 -0.4375q-0.109375 -0.265625 -0.109375 -1.140625l0 -3.28125l-0.71875 0l0 -0.75l0.71875 0l0 -1.40625l0.953125 -0.59375l0 2.0l0.984375 0l0 0.75l-0.984375 0l0 3.34375q0 0.40625 0.046875 0.53125q0.0625 0.109375 0.171875 0.1875q0.125 0.0625 0.328125 0.0625q0.171875 0 0.4375 -0.03125zm0.8356323 0.859375l0 -5.703125l0.859375 0l0 0.859375q0.34375 -0.609375 0.625 -0.796875q0.28125 -0.1875 0.609375 -0.1875q0.5 0 1.0 0.3125l-0.328125 0.890625q-0.359375 -0.203125 -0.71875 -0.203125q-0.3125 0 -0.5625 0.1875q-0.25 0.1875 -0.359375 0.53125q-0.15625 0.515625 -0.15625 1.125l0 2.984375l-0.96875 0zm3.5642395 -6.765625l0 -1.109375l0.96875 0l0 1.109375l-0.96875 0zm0 6.765625l0 -5.703125l0.96875 0l0 5.703125l-0.96875 0zm2.3518677 0l0 -5.703125l0.875 0l0 0.8125q0.625 -0.9375 1.8125 -0.9375q0.515625 0 0.953125 0.1875q0.4375 0.171875 0.640625 0.484375q0.21875 0.296875 0.3125 0.703125q0.046875 0.28125 0.046875 0.953125l0 3.5l-0.96875 0l0 -3.46875q0 -0.59375 -0.109375 -0.875q-0.109375 -0.296875 -0.40625 -0.46875q-0.28125 -0.1875 -0.671875 -0.1875q-0.609375 0 -1.0625 0.390625q-0.453125 0.390625 -0.453125 1.5l0 3.109375l-0.96875 0zm5.754608 0.46875l0.9375 0.140625q0.0625 0.4375 0.328125 0.640625q0.359375 0.265625 0.984375 0.265625q0.671875 0 1.03125 -0.265625q0.375 -0.265625 0.5 -0.75q0.078125 -0.296875 0.078125 -1.25q-0.640625 0.75 -1.59375 0.75q-1.171875 0 -1.8125 -0.84375q-0.640625 -0.859375 -0.640625 -2.046875q0 -0.8125 0.296875 -1.5q0.296875 -0.6875 0.84375 -1.0625q0.5625 -0.375 1.328125 -0.375q1.0 0 1.65625 0.8125l0 -0.6875l0.890625 0l0 4.921875q0 1.34375 -0.265625 1.890625q-0.265625 0.5625 -0.859375 0.875q-0.59375 0.328125 -1.453125 0.328125q-1.015625 0 -1.640625 -0.46875q-0.625 -0.453125 -0.609375 -1.375zm0.796875 -3.421875q0 1.125 0.4375 1.640625q0.453125 0.515625 1.125 0.515625q0.671875 0 1.125 -0.515625q0.453125 -0.515625 0.453125 -1.609375q0 -1.046875 -0.46875 -1.578125q-0.46875 -0.53125 -1.125 -0.53125q-0.640625 0 -1.09375 0.53125q-0.453125 0.515625 -0.453125 1.546875zm7.855896 -0.328125q0.40625 -0.015625 0.65625 -0.21875q0.265625 -0.21875 0.34375 -0.59375q0.09375 -0.375 0.09375 -1.265625q0.015625 -0.890625 0.046875 -1.1875q0.046875 -0.453125 0.171875 -0.71875q0.140625 -0.28125 0.328125 -0.4375q0.203125 -0.171875 0.5 -0.25q0.203125 -0.0625 0.65625 -0.0625l0.3125 0l0 0.84375l-0.171875 0q-0.5625 0 -0.75 0.203125q-0.171875 0.203125 -0.171875 0.90625q0 1.40625 -0.0625 1.78125q-0.09375 0.5625 -0.328125 0.875q-0.234375 0.3125 -0.734375 0.5625q0.59375 0.25 0.859375 0.765625q0.265625 0.5 0.265625 1.640625q0 1.0625 0.015625 1.25q0.046875 0.375 0.21875 0.515625q0.171875 0.140625 0.6875 0.140625l0.171875 0l0 0.84375l-0.3125 0q-0.515625 0 -0.75 -0.078125q-0.34375 -0.125 -0.578125 -0.40625q-0.21875 -0.28125 -0.296875 -0.703125q-0.0625 -0.421875 -0.078125 -1.390625q0 -0.96875 -0.09375 -1.328125q-0.078125 -0.375 -0.34375 -0.59375q-0.25 -0.21875 -0.65625 -0.21875l0 -0.875zm10.675934 3.28125l0 -0.84375q-0.671875 0.96875 -1.8125 0.96875q-0.5 0 -0.953125 -0.1875q-0.4375 -0.203125 -0.65625 -0.484375q-0.203125 -0.296875 -0.28125 -0.71875q-0.0625 -0.28125 -0.0625 -0.90625l0 -3.53125l0.96875 0l0 3.15625q0 0.765625 0.0625 1.03125q0.09375 0.375 0.375 0.59375q0.296875 0.21875 0.734375 0.21875q0.4375 0 0.8125 -0.21875q0.390625 -0.234375 0.546875 -0.609375q0.15625 -0.390625 0.15625 -1.109375l0 -3.0625l0.96875 0l0 5.703125l-0.859375 0zm1.8014832 -1.703125l0.953125 -0.15625q0.078125 0.578125 0.4375 0.890625q0.375 0.296875 1.03125 0.296875q0.671875 0 0.984375 -0.265625q0.328125 -0.265625 0.328125 -0.640625q0 -0.328125 -0.28125 -0.515625q-0.203125 -0.125 -0.984375 -0.328125q-1.0625 -0.265625 -1.484375 -0.453125q-0.40625 -0.203125 -0.625 -0.546875q-0.203125 -0.34375 -0.203125 -0.765625q0 -0.390625 0.171875 -0.703125q0.171875 -0.328125 0.484375 -0.546875q0.21875 -0.171875 0.609375 -0.28125q0.390625 -0.109375 0.828125 -0.109375q0.671875 0 1.171875 0.1875q0.515625 0.1875 0.75 0.53125q0.25 0.328125 0.34375 0.875l-0.9375 0.125q-0.078125 -0.4375 -0.390625 -0.671875q-0.296875 -0.25 -0.859375 -0.25q-0.671875 0 -0.953125 0.21875q-0.28125 0.21875 -0.28125 0.515625q0 0.1875 0.109375 0.328125q0.125 0.15625 0.375 0.265625q0.140625 0.046875 0.859375 0.25q1.015625 0.265625 1.421875 0.4375q0.40625 0.171875 0.640625 0.515625q0.234375 0.328125 0.234375 0.828125q0 0.484375 -0.28125 0.90625q-0.28125 0.421875 -0.8125 0.65625q-0.53125 0.234375 -1.203125 0.234375q-1.109375 0 -1.703125 -0.453125q-0.578125 -0.46875 -0.734375 -1.375zm9.609375 -0.140625l1.0 0.125q-0.234375 0.875 -0.875 1.359375q-0.640625 0.484375 -1.625 0.484375q-1.25 0 -1.984375 -0.765625q-0.734375 -0.765625 -0.734375 -2.15625q0 -1.453125 0.734375 -2.234375q0.75 -0.796875 1.921875 -0.796875q1.15625 0 1.875 0.78125q0.71875 0.765625 0.71875 2.1875q0 0.078125 0 0.25l-4.25 0q0.046875 0.9375 0.515625 1.4375q0.484375 0.5 1.203125 0.5q0.53125 0 0.90625 -0.265625q0.375 -0.28125 0.59375 -0.90625zm-3.171875 -1.5625l3.1875 0q-0.0625 -0.71875 -0.359375 -1.078125q-0.46875 -0.546875 -1.203125 -0.546875q-0.671875 0 -1.125 0.453125q-0.453125 0.4375 -0.5 1.171875zm10.285889 -1.21875l-5.203125 0l0 -0.90625l5.203125 0l0 0.90625zm0 2.390625l-5.203125 0l0 -0.90625l5.203125 0l0 0.90625zm1.1918335 -2.859375l-0.28125 -1.484375l0 -1.296875l1.109375 0l0 1.296875l-0.25 1.484375l-0.578125 0zm1.765625 0l-0.265625 -1.484375l0 -1.296875l1.109375 0l0 1.296875l-0.265625 1.484375l-0.578125 0zm1.9546204 5.09375l0 -5.703125l0.859375 0l0 0.859375q0.34375 -0.609375 0.625 -0.796875q0.28125 -0.1875 0.609375 -0.1875q0.5 0 1.0 0.3125l-0.328125 0.890625q-0.359375 -0.203125 -0.71875 -0.203125q-0.3125 0 -0.5625 0.1875q-0.25 0.1875 -0.359375 0.53125q-0.15625 0.515625 -0.15625 1.125l0 2.984375l-0.96875 0zm7.4548645 -1.84375l1.0 0.125q-0.234375 0.875 -0.875 1.359375q-0.640625 0.484375 -1.625 0.484375q-1.25 0 -1.984375 -0.765625q-0.734375 -0.765625 -0.734375 -2.15625q0 -1.453125 0.734375 -2.234375q0.75 -0.796875 1.921875 -0.796875q1.15625 0 1.875 0.78125q0.71875 0.765625 0.71875 2.1875q0 0.078125 0 0.25l-4.25 0q0.046875 0.9375 0.515625 1.4375q0.484375 0.5 1.203125 0.5q0.53125 0 0.90625 -0.265625q0.375 -0.28125 0.59375 -0.90625zm-3.171875 -1.5625l3.1875 0q-0.0625 -0.71875 -0.359375 -1.078125q-0.46875 -0.546875 -1.203125 -0.546875q-0.671875 0 -1.125 0.453125q-0.453125 0.4375 -0.5 1.171875zm8.832764 5.59375l0 -2.796875q-0.21875 0.3125 -0.625 0.53125q-0.40625 0.203125 -0.859375 0.203125q-1.015625 0 -1.75 -0.8125q-0.734375 -0.8125 -0.734375 -2.21875q0 -0.859375 0.296875 -1.53125q0.296875 -0.6875 0.859375 -1.03125q0.5625 -0.359375 1.25 -0.359375q1.046875 0 1.65625 0.890625l0 -0.765625l0.875 0l0 7.890625l-0.96875 0zm-2.984375 -5.0625q0 1.109375 0.453125 1.65625q0.46875 0.546875 1.125 0.546875q0.609375 0 1.046875 -0.515625q0.453125 -0.53125 0.453125 -1.59375q0 -1.140625 -0.46875 -1.71875q-0.46875 -0.578125 -1.09375 -0.578125q-0.640625 0 -1.078125 0.546875q-0.4375 0.53125 -0.4375 1.65625zm9.020233 2.875l0 -0.84375q-0.671875 0.96875 -1.8125 0.96875q-0.5 0 -0.953125 -0.1875q-0.4375 -0.203125 -0.65625 -0.484375q-0.203125 -0.296875 -0.28125 -0.71875q-0.0625 -0.28125 -0.0625 -0.90625l0 -3.53125l0.96875 0l0 3.15625q0 0.765625 0.0625 1.03125q0.09375 0.375 0.375 0.59375q0.296875 0.21875 0.734375 0.21875q0.4375 0 0.8125 -0.21875q0.390625 -0.234375 0.546875 -0.609375q0.15625 -0.390625 0.15625 -1.109375l0 -3.0625l0.96875 0l0 5.703125l-0.859375 0zm2.1921387 -6.765625l0 -1.109375l0.96875 0l0 1.109375l-0.96875 0zm0 6.765625l0 -5.703125l0.96875 0l0 5.703125l-0.96875 0zm2.3518372 0l0 -5.703125l0.859375 0l0 0.859375q0.34375 -0.609375 0.625 -0.796875q0.28125 -0.1875 0.609375 -0.1875q0.5 0 1.0 0.3125l-0.328125 0.890625q-0.359375 -0.203125 -0.71875 -0.203125q-0.3125 0 -0.5625 0.1875q-0.25 0.1875 -0.359375 0.53125q-0.15625 0.515625 -0.15625 1.125l0 2.984375l-0.96875 0zm7.4548645 -1.84375l1.0 0.125q-0.234375 0.875 -0.875 1.359375q-0.640625 0.484375 -1.625 0.484375q-1.25 0 -1.984375 -0.765625q-0.734375 -0.765625 -0.734375 -2.15625q0 -1.453125 0.734375 -2.234375q0.75 -0.796875 1.921875 -0.796875q1.15625 0 1.875 0.78125q0.71875 0.765625 0.71875 2.1875q0 0.078125 0 0.25l-4.25 0q0.046875 0.9375 0.515625 1.4375q0.484375 0.5 1.203125 0.5q0.53125 0 0.90625 -0.265625q0.375 -0.28125 0.59375 -0.90625zm-3.171875 -1.5625l3.1875 0q-0.0625 -0.71875 -0.359375 -1.078125q-0.46875 -0.546875 -1.203125 -0.546875q-0.671875 0 -1.125 0.453125q-0.453125 0.4375 -0.5 1.171875zm8.895264 3.40625l0 -0.71875q-0.53125 0.84375 -1.59375 0.84375q-0.671875 0 -1.25 -0.375q-0.578125 -0.375 -0.890625 -1.046875q-0.3125 -0.671875 -0.3125 -1.546875q0 -0.859375 0.28125 -1.546875q0.296875 -0.703125 0.859375 -1.0625q0.5625 -0.375 1.265625 -0.375q0.515625 0 0.921875 0.21875q0.40625 0.21875 0.65625 0.5625l0 -2.828125l0.96875 0l0 7.875l-0.90625 0zm-3.046875 -2.84375q0 1.09375 0.453125 1.640625q0.46875 0.53125 1.09375 0.53125q0.640625 0 1.078125 -0.515625q0.4375 -0.515625 0.4375 -1.578125q0 -1.171875 -0.453125 -1.71875q-0.4375 -0.546875 -1.109375 -0.546875q-0.640625 0 -1.078125 0.53125q-0.421875 0.515625 -0.421875 1.65625zm5.332733 -2.25l-0.28125 -1.484375l0 -1.296875l1.109375 0l0 1.296875l-0.25 1.484375l-0.578125 0zm1.765625 0l-0.265625 -1.484375l0 -1.296875l1.109375 0l0 1.296875l-0.265625 1.484375l-0.578125 0zm7.555908 1.8125l0 0.875q-0.40625 0 -0.671875 0.21875q-0.265625 0.21875 -0.359375 0.59375q-0.078125 0.359375 -0.078125 1.265625q0 0.890625 -0.03125 1.171875q-0.046875 0.453125 -0.1875 0.71875q-0.125 0.28125 -0.328125 0.4375q-0.1875 0.171875 -0.484375 0.25q-0.203125 0.0625 -0.671875 0.0625l-0.296875 0l0 -0.84375l0.171875 0q0.5625 0 0.734375 -0.203125q0.1875 -0.203125 0.1875 -0.90625q0 -1.34375 0.046875 -1.703125q0.09375 -0.59375 0.34375 -0.9375q0.265625 -0.359375 0.734375 -0.5625q-0.625 -0.296875 -0.875 -0.78125q-0.25 -0.484375 -0.25 -1.640625q0 -1.046875 -0.03125 -1.25q-0.03125 -0.359375 -0.21875 -0.5q-0.171875 -0.15625 -0.671875 -0.15625l-0.171875 0l0 -0.84375l0.296875 0q0.53125 0 0.765625 0.09375q0.34375 0.125 0.5625 0.40625q0.234375 0.265625 0.296875 0.703125q0.078125 0.421875 0.078125 1.390625q0 0.953125 0.078125 1.328125q0.09375 0.359375 0.359375 0.578125q0.265625 0.21875 0.671875 0.234375z" fill-rule="nonzero"></path></g></svg>

