<?xml version="1.0" standalone="yes"?>

<svg version="1.1" viewBox="0.0 0.0 394.1653543307087 236.89501312335958" fill="none" stroke="none" stroke-linecap="square" stroke-miterlimit="10" xmlns="http://www.w3.org/2000/svg" xmlns:xlink="http://www.w3.org/1999/xlink"><clipPath id="p.0"><path d="m0 0l394.16534 0l0 236.89502l-394.16534 0l0 -236.89502z" clip-rule="nonzero"></path></clipPath><g clip-path="url(#p.0)"><path fill="#000000" fill-opacity="0.0" d="m0 0l394.16534 0l0 236.89502l-394.16534 0z" fill-rule="evenodd"></path><path fill="#ffffff" d="m3.2447982 51.501312l199.14961 0l0 27.02362l-199.14961 0z" fill-rule="evenodd"></path><path stroke="#000000" stroke-width="1.0" stroke-linejoin="round" stroke-linecap="butt" d="m3.2447982 51.501312l199.14961 0l0 27.02362l-199.14961 0z" fill-rule="evenodd"></path><path fill="#000000" d="m88.20965 68.75312l0 -7.874996l2.375 0l1.4375 5.374996l1.40625 -5.374996l2.390625 0l0 7.874996l-1.484375 0l0 -6.203121l-1.5625 6.203121l-1.53125 0l-1.5625 -6.203121l0 6.203121l-1.46875 0zm8.5329895 -2.9375q0 -0.75 0.375 -1.453125q0.375 -0.7031212 1.046875 -1.0624962q0.6875 -0.375 1.515625 -0.375q1.296875 0 2.125 0.84375q0.828125 0.8281212 0.828125 2.1093712q0 1.296875 -0.84375 2.15625q-0.828125 0.84375 -2.09375 0.84375q-0.78125 0 -1.5 -0.34375q-0.703125 -0.359375 -1.078125 -1.046875q-0.375 -0.6875 -0.375 -1.671875zm1.546875 0.078125q0 0.859375 0.40625 1.3125q0.40625 0.453125 1.0 0.453125q0.578125 0 0.984375 -0.453125q0.40625 -0.453125 0.40625 -1.3125q0 -0.84375 -0.40625 -1.296875q-0.40625 -0.453125 -0.984375 -0.453125q-0.59375 0 -1.0 0.453125q-0.40625 0.453125 -0.40625 1.296875zm10.540512 2.859375l-1.390625 0l0 -0.84375q-0.359375 0.5 -0.84375 0.734375q-0.46875 0.234375 -0.9375 0.234375q-0.984375 0 -1.6875 -0.78125q-0.703125 -0.796875 -0.703125 -2.21875q0 -1.453125 0.671875 -2.2031212q0.6875 -0.75 1.734375 -0.75q0.953125 0 1.65625 0.796875l0 -2.84375l1.5 0l0 7.874996zm-4.015625 -2.96875q0 0.90625 0.25 1.3125q0.359375 0.59375 1.015625 0.59375q0.515625 0 0.875 -0.4375q0.375 -0.453125 0.375 -1.328125q0 -0.984375 -0.359375 -1.40625q-0.34375 -0.4375 -0.90625 -0.4375q-0.53125 0 -0.890625 0.421875q-0.359375 0.421875 -0.359375 1.28125zm8.603012 1.15625l1.5 0.25q-0.28125 0.828125 -0.90625 1.265625q-0.625 0.421875 -1.578125 0.421875q-1.484375 0 -2.203125 -0.96875q-0.5625 -0.78125 -0.5625 -1.96875q0 -1.421875 0.734375 -2.2187462q0.75 -0.796875 1.890625 -0.796875q1.265625 0 2.0 0.84375q0.734375 0.8281212 0.703125 2.5624962l-3.78125 0q0.015625 0.671875 0.359375 1.046875q0.359375 0.375 0.875 0.375q0.359375 0 0.59375 -0.1875q0.25 -0.203125 0.375 -0.625zm0.078125 -1.53125q-0.015625 -0.65625 -0.34375 -0.984375q-0.3125 -0.34375 -0.765625 -0.34375q-0.5 0 -0.828125 0.359375q-0.3125 0.359375 -0.3125 0.96875l2.25 0zm2.5514984 3.34375l0 -7.874996l1.5 0l0 7.874996l-1.5 0z" fill-rule="nonzero"></path><path fill="#ffffff" d="m3.2440944 78.448875l199.14961 0l0 62.99212l-199.14961 0z" fill-rule="evenodd"></path><path stroke="#000000" stroke-width="1.0" stroke-linejoin="round" stroke-linecap="butt" d="m3.2440944 78.448875l199.14961 0l0 62.99212l-199.14961 0z" fill-rule="evenodd"></path><path fill="#000000" d="m13.04097 87.70056l0 -1.390625l1.5 0l0 1.390625l-1.5 0zm0 6.484375l0 -5.703125l1.5 0l0 5.703125l-1.5 0zm8.179398 0l-1.390625 0l0 -0.84375q-0.359375 0.5 -0.84375 0.734375q-0.46875 0.234375 -0.9375 0.234375q-0.984375 0 -1.6875 -0.78125q-0.703125 -0.796875 -0.703125 -2.21875q0 -1.453125 0.671875 -2.203125q0.6875 -0.75 1.734375 -0.75q0.953125 0 1.65625 0.796875l0 -2.84375l1.5 0l0 7.875zm-4.015625 -2.96875q0 0.90625 0.25 1.3125q0.359375 0.59375 1.015625 0.59375q0.515625 0 0.875 -0.4375q0.375 -0.453125 0.375 -1.328125q0 -0.984375 -0.359375 -1.40625q-0.34375 -0.4375 -0.90625 -0.4375q-0.53125 0 -0.890625 0.421875q-0.359375 0.421875 -0.359375 1.28125z" fill-rule="nonzero"></path><path fill="#000000" d="m22.714005 89.57556l0 -1.09375l1.09375 0l0 1.09375l-1.09375 0zm0 4.609375l0 -1.09375l1.09375 0l0 1.09375l-1.09375 0zm5.421295 -2.53125l0.984375 -0.078125q0.0625 0.578125 0.3125 0.96875q0.265625 0.375 0.796875 0.609375q0.53125 0.234375 1.203125 0.234375q0.609375 0 1.0625 -0.171875q0.453125 -0.1875 0.671875 -0.484375q0.234375 -0.3125 0.234375 -0.6875q0 -0.375 -0.21875 -0.640625q-0.21875 -0.28125 -0.71875 -0.46875q-0.3125 -0.125 -1.40625 -0.375q-1.078125 -0.265625 -1.515625 -0.5q-0.5625 -0.296875 -0.84375 -0.734375q-0.265625 -0.4375 -0.265625 -0.984375q0 -0.59375 0.328125 -1.109375q0.34375 -0.515625 0.984375 -0.78125q0.65625 -0.28125 1.453125 -0.28125q0.875 0 1.546875 0.296875q0.671875 0.28125 1.03125 0.828125q0.359375 0.546875 0.390625 1.234375l-1.0 0.078125q-0.078125 -0.75 -0.546875 -1.125q-0.46875 -0.390625 -1.375 -0.390625q-0.9375 0 -1.375 0.359375q-0.4375 0.34375 -0.4375 0.828125q0 0.421875 0.3125 0.703125q0.296875 0.265625 1.5625 0.5625q1.28125 0.28125 1.75 0.5q0.6875 0.3125 1.015625 0.796875q0.328125 0.484375 0.328125 1.125q0 0.625 -0.359375 1.1875q-0.359375 0.546875 -1.046875 0.859375q-0.671875 0.3125 -1.515625 0.3125q-1.0625 0 -1.78125 -0.3125q-0.71875 -0.3125 -1.140625 -0.9375q-0.40625 -0.625 -0.421875 -1.421875zm7.6388855 2.53125l0 -7.875l1.03125 0l0 7.875l-1.03125 0zm6.3512726 0l0 -0.71875q-0.53125 0.84375 -1.59375 0.84375q-0.671875 0 -1.25 -0.375q-0.578125 -0.375 -0.890625 -1.046875q-0.3125 -0.671875 -0.3125 -1.546875q0 -0.859375 0.28125 -1.546875q0.296875 -0.703125 0.859375 -1.0625q0.5625 -0.375 1.265625 -0.375q0.515625 0 0.921875 0.21875q0.40625 0.21875 0.65625 0.5625l0 -2.828125l0.96875 0l0 7.875l-0.90625 0zm-3.046875 -2.84375q0 1.09375 0.453125 1.640625q0.46875 0.53125 1.09375 0.53125q0.640625 0 1.078125 -0.515625q0.4375 -0.515625 0.4375 -1.578125q0 -1.171875 -0.453125 -1.71875q-0.4375 -0.546875 -1.109375 -0.546875q-0.640625 0 -1.078125 0.53125q-0.421875 0.515625 -0.421875 1.65625z" fill-rule="nonzero"></path><path fill="#000000" d="m18.22847 107.18494l-1.515625 0l0 -2.90625q0 -0.921875 -0.09375 -1.1875q-0.09375 -0.28125 -0.3125 -0.421875q-0.21875 -0.15625 -0.53125 -0.15625q-0.390625 0 -0.703125 0.21875q-0.3125 0.203125 -0.4375 0.5625q-0.109375 0.34375 -0.109375 1.3125l0 2.578125l-1.5 0l0 -5.703125l1.40625 0l0 0.84375q0.734375 -0.96875 1.875 -0.96875q0.5 0 0.90625 0.1875q0.421875 0.171875 0.625 0.453125q0.21875 0.265625 0.296875 0.625q0.09375 0.359375 0.09375 1.015625l0 3.546875zm2.446762 -3.96875l-1.375 -0.25q0.234375 -0.8125 0.796875 -1.203125q0.5625 -0.40625 1.671875 -0.40625q1.015625 0 1.5 0.234375q0.5 0.234375 0.703125 0.609375q0.203125 0.359375 0.203125 1.34375l-0.015625 1.765625q0 0.75 0.0625 1.109375q0.078125 0.359375 0.28125 0.765625l-1.5 0q-0.0625 -0.15625 -0.140625 -0.453125q-0.03125 -0.125 -0.046875 -0.171875q-0.390625 0.375 -0.84375 0.5625q-0.4375 0.1875 -0.9375 0.1875q-0.875 0 -1.390625 -0.46875q-0.5 -0.484375 -0.5 -1.21875q0 -0.484375 0.234375 -0.859375q0.234375 -0.375 0.640625 -0.578125q0.421875 -0.203125 1.203125 -0.359375q1.0625 -0.1875 1.46875 -0.359375l0 -0.15625q0 -0.4375 -0.21875 -0.609375q-0.21875 -0.1875 -0.8125 -0.1875q-0.390625 0 -0.625 0.15625q-0.21875 0.15625 -0.359375 0.546875zm2.015625 1.234375q-0.296875 0.09375 -0.921875 0.234375q-0.625 0.125 -0.8125 0.25q-0.296875 0.21875 -0.296875 0.53125q0 0.328125 0.234375 0.5625q0.234375 0.21875 0.59375 0.21875q0.40625 0 0.78125 -0.265625q0.28125 -0.203125 0.359375 -0.5q0.0625 -0.1875 0.0625 -0.734375l0 -0.296875zm2.6608734 -2.96875l1.390625 0l0 0.78125q0.75 -0.90625 1.78125 -0.90625q0.546875 0 0.953125 0.234375q0.40625 0.21875 0.65625 0.671875q0.375 -0.453125 0.8125 -0.671875q0.4375 -0.234375 0.9375 -0.234375q0.625 0 1.0625 0.25q0.4375 0.25 0.640625 0.75q0.15625 0.359375 0.15625 1.1875l0 3.640625l-1.5 0l0 -3.265625q0 -0.84375 -0.15625 -1.09375q-0.21875 -0.3125 -0.65625 -0.3125q-0.3125 0 -0.59375 0.1875q-0.28125 0.1875 -0.40625 0.5625q-0.109375 0.375 -0.109375 1.1875l0 2.734375l-1.515625 0l0 -3.125q0 -0.828125 -0.078125 -1.0625q-0.078125 -0.25 -0.25 -0.359375q-0.171875 -0.125 -0.46875 -0.125q-0.34375 0 -0.625 0.1875q-0.28125 0.1875 -0.40625 0.546875q-0.109375 0.34375 -0.109375 1.171875l0 2.765625l-1.515625 0l0 -5.703125zm12.896988 3.890625l1.5 0.25q-0.28125 0.828125 -0.90625 1.265625q-0.625 0.421875 -1.578125 0.421875q-1.484375 0 -2.203125 -0.96875q-0.5625 -0.78125 -0.5625 -1.96875q0 -1.421875 0.734375 -2.21875q0.75 -0.796875 1.890625 -0.796875q1.265625 0 2.0 0.84375q0.734375 0.828125 0.703125 2.5625l-3.78125 0q0.015625 0.671875 0.359375 1.046875q0.359375 0.375 0.875 0.375q0.359375 0 0.59375 -0.1875q0.25 -0.203125 0.375 -0.625zm0.078125 -1.53125q-0.015625 -0.65625 -0.34375 -0.984375q-0.3125 -0.34375 -0.765625 -0.34375q-0.5 0 -0.828125 0.359375q-0.3125 0.359375 -0.3125 0.96875l2.25 0z" fill-rule="nonzero"></path><path fill="#000000" d="m41.081467 102.57556l0 -1.09375l1.09375 0l0 1.09375l-1.09375 0zm0 4.609375l0 -1.09375l1.09375 0l0 1.09375l-1.09375 0zm5.265045 -1.703125l0.953125 -0.15625q0.078125 0.578125 0.4375 0.890625q0.375 0.296875 1.03125 0.296875q0.671875 0 0.984375 -0.265625q0.328125 -0.265625 0.328125 -0.640625q0 -0.328125 -0.28125 -0.515625q-0.203125 -0.125 -0.984375 -0.328125q-1.0625 -0.265625 -1.484375 -0.453125q-0.40625 -0.203125 -0.625 -0.546875q-0.203125 -0.34375 -0.203125 -0.765625q0 -0.390625 0.171875 -0.703125q0.171875 -0.328125 0.484375 -0.546875q0.21875 -0.171875 0.609375 -0.28125q0.390625 -0.109375 0.828125 -0.109375q0.671875 0 1.171875 0.1875q0.515625 0.1875 0.75 0.53125q0.25 0.328125 0.34375 0.875l-0.9375 0.125q-0.078125 -0.4375 -0.390625 -0.671875q-0.296875 -0.25 -0.859375 -0.25q-0.671875 0 -0.953125 0.21875q-0.28125 0.21875 -0.28125 0.515625q0 0.1875 0.109375 0.328125q0.125 0.15625 0.375 0.265625q0.140625 0.046875 0.859375 0.25q1.015625 0.265625 1.421875 0.4375q0.40625 0.171875 0.640625 0.515625q0.234375 0.328125 0.234375 0.828125q0 0.484375 -0.28125 0.90625q-0.28125 0.421875 -0.8125 0.65625q-0.53125 0.234375 -1.203125 0.234375q-1.109375 0 -1.703125 -0.453125q-0.578125 -0.46875 -0.734375 -1.375zm7.828125 0.84375l0.125 0.84375q-0.40625 0.09375 -0.71875 0.09375q-0.53125 0 -0.828125 -0.171875q-0.28125 -0.171875 -0.40625 -0.4375q-0.109375 -0.265625 -0.109375 -1.140625l0 -3.28125l-0.71875 0l0 -0.75l0.71875 0l0 -1.40625l0.953125 -0.59375l0 2.0l0.984375 0l0 0.75l-0.984375 0l0 3.34375q0 0.40625 0.046875 0.53125q0.0625 0.109375 0.171875 0.1875q0.125 0.0625 0.328125 0.0625q0.171875 0 0.4375 -0.03125zm0.8356476 0.859375l0 -5.703125l0.859375 0l0 0.859375q0.34375 -0.609375 0.625 -0.796875q0.28125 -0.1875 0.609375 -0.1875q0.5 0 1.0 0.3125l-0.328125 0.890625q-0.359375 -0.203125 -0.71875 -0.203125q-0.3125 0 -0.5625 0.1875q-0.25 0.1875 -0.359375 0.53125q-0.15625 0.515625 -0.15625 1.125l0 2.984375l-0.96875 0zm3.5642395 -6.765625l0 -1.109375l0.96875 0l0 1.109375l-0.96875 0zm0 6.765625l0 -5.703125l0.96875 0l0 5.703125l-0.96875 0zm2.3518524 0l0 -5.703125l0.875 0l0 0.8125q0.625 -0.9375 1.8125 -0.9375q0.515625 0 0.953125 0.1875q0.4375 0.171875 0.640625 0.484375q0.21875 0.296875 0.3125 0.703125q0.046875 0.28125 0.046875 0.953125l0 3.5l-0.96875 0l0 -3.46875q0 -0.59375 -0.109375 -0.875q-0.109375 -0.296875 -0.40625 -0.46875q-0.28125 -0.1875 -0.671875 -0.1875q-0.609375 0 -1.0625 0.390625q-0.453125 0.390625 -0.453125 1.5l0 3.109375l-0.96875 0zm5.7546234 0.46875l0.9375 0.140625q0.0625 0.4375 0.328125 0.640625q0.359375 0.265625 0.984375 0.265625q0.671875 0 1.03125 -0.265625q0.375 -0.265625 0.5 -0.75q0.078125 -0.296875 0.078125 -1.25q-0.640625 0.75 -1.59375 0.75q-1.171875 0 -1.8125 -0.84375q-0.640625 -0.859375 -0.640625 -2.046875q0 -0.8125 0.296875 -1.5q0.296875 -0.6875 0.84375 -1.0625q0.5625 -0.375 1.328125 -0.375q1.0 0 1.65625 0.8125l0 -0.6875l0.890625 0l0 4.921875q0 1.34375 -0.265625 1.890625q-0.265625 0.5625 -0.859375 0.875q-0.59375 0.328125 -1.453125 0.328125q-1.015625 0 -1.640625 -0.46875q-0.625 -0.453125 -0.609375 -1.375zm0.796875 -3.421875q0 1.125 0.4375 1.640625q0.453125 0.515625 1.125 0.515625q0.671875 0 1.125 -0.515625q0.453125 -0.515625 0.453125 -1.609375q0 -1.046875 -0.46875 -1.578125q-0.46875 -0.53125 -1.125 -0.53125q-0.640625 0 -1.09375 0.53125q-0.453125 0.515625 -0.453125 1.546875zm7.855896 -0.328125q0.40625 -0.015625 0.65625 -0.21875q0.265625 -0.21875 0.34375 -0.59375q0.09375 -0.375 0.09375 -1.265625q0.015625 -0.890625 0.046875 -1.1875q0.046875 -0.453125 0.171875 -0.71875q0.140625 -0.28125 0.328125 -0.4375q0.203125 -0.171875 0.5 -0.25q0.203125 -0.0625 0.65625 -0.0625l0.3125 0l0 0.84375l-0.171875 0q-0.5625 0 -0.75 0.203125q-0.171875 0.203125 -0.171875 0.90625q0 1.40625 -0.0625 1.78125q-0.09375 0.5625 -0.328125 0.875q-0.234375 0.3125 -0.734375 0.5625q0.59375 0.25 0.859375 0.765625q0.265625 0.5 0.265625 1.640625q0 1.0625 0.015625 1.25q0.046875 0.375 0.21875 0.515625q0.171875 0.140625 0.6875 0.140625l0.171875 0l0 0.84375l-0.3125 0q-0.515625 0 -0.75 -0.078125q-0.34375 -0.125 -0.578125 -0.40625q-0.21875 -0.28125 -0.296875 -0.703125q-0.0625 -0.421875 -0.078125 -1.390625q0 -0.96875 -0.09375 -1.328125q-0.078125 -0.375 -0.34375 -0.59375q-0.25 -0.21875 -0.65625 -0.21875l0 -0.875zm10.675919 3.28125l0 -0.84375q-0.671875 0.96875 -1.8125 0.96875q-0.5 0 -0.953125 -0.1875q-0.4375 -0.203125 -0.65625 -0.484375q-0.203125 -0.296875 -0.28125 -0.71875q-0.0625 -0.28125 -0.0625 -0.90625l0 -3.53125l0.96875 0l0 3.15625q0 0.765625 0.0625 1.03125q0.09375 0.375 0.375 0.59375q0.296875 0.21875 0.734375 0.21875q0.4375 0 0.8125 -0.21875q0.390625 -0.234375 0.546875 -0.609375q0.15625 -0.390625 0.15625 -1.109375l0 -3.0625l0.96875 0l0 5.703125l-0.859375 0zm1.8014984 -1.703125l0.953125 -0.15625q0.078125 0.578125 0.4375 0.890625q0.375 0.296875 1.03125 0.296875q0.671875 0 0.984375 -0.265625q0.328125 -0.265625 0.328125 -0.640625q0 -0.328125 -0.28125 -0.515625q-0.203125 -0.125 -0.984375 -0.328125q-1.0625 -0.265625 -1.484375 -0.453125q-0.40625 -0.203125 -0.625 -0.546875q-0.203125 -0.34375 -0.203125 -0.765625q0 -0.390625 0.171875 -0.703125q0.171875 -0.328125 0.484375 -0.546875q0.21875 -0.171875 0.609375 -0.28125q0.390625 -0.109375 0.828125 -0.109375q0.671875 0 1.171875 0.1875q0.515625 0.1875 0.75 0.53125q0.25 0.328125 0.34375 0.875l-0.9375 0.125q-0.078125 -0.4375 -0.390625 -0.671875q-0.296875 -0.25 -0.859375 -0.25q-0.671875 0 -0.953125 0.21875q-0.28125 0.21875 -0.28125 0.515625q0 0.1875 0.109375 0.328125q0.125 0.15625 0.375 0.265625q0.140625 0.046875 0.859375 0.25q1.015625 0.265625 1.421875 0.4375q0.40625 0.171875 0.640625 0.515625q0.234375 0.328125 0.234375 0.828125q0 0.484375 -0.28125 0.90625q-0.28125 0.421875 -0.8125 0.65625q-0.53125 0.234375 -1.203125 0.234375q-1.109375 0 -1.703125 -0.453125q-0.578125 -0.46875 -0.734375 -1.375zm9.609375 -0.140625l1.0 0.125q-0.234375 0.875 -0.875 1.359375q-0.640625 0.484375 -1.625 0.484375q-1.25 0 -1.984375 -0.765625q-0.734375 -0.765625 -0.734375 -2.15625q0 -1.453125 0.734375 -2.234375q0.75 -0.796875 1.921875 -0.796875q1.15625 0 1.875 0.78125q0.71875 0.765625 0.71875 2.1875q0 0.078125 0 0.25l-4.25 0q0.046875 0.9375 0.515625 1.4375q0.484375 0.5 1.203125 0.5q0.53125 0 0.90625 -0.265625q0.375 -0.28125 0.59375 -0.90625zm-3.171875 -1.5625l3.1875 0q-0.0625 -0.71875 -0.359375 -1.078125q-0.46875 -0.546875 -1.203125 -0.546875q-0.671875 0 -1.125 0.453125q-0.453125 0.4375 -0.5 1.171875zm10.285873 -1.21875l-5.203125 0l0 -0.90625l5.203125 0l0 0.90625zm0 2.390625l-5.203125 0l0 -0.90625l5.203125 0l0 0.90625zm1.1918335 -2.859375l-0.28125 -1.484375l0 -1.296875l1.109375 0l0 1.296875l-0.25 1.484375l-0.578125 0zm1.765625 0l-0.265625 -1.484375l0 -1.296875l1.109375 0l0 1.296875l-0.265625 1.484375l-0.578125 0zm1.5952606 2.234375q0 -1.578125 0.890625 -2.34375q0.734375 -0.625 1.796875 -0.625q1.171875 0 1.90625 0.765625q0.75 0.765625 0.75 2.125q0 1.109375 -0.328125 1.75q-0.328125 0.625 -0.96875 0.96875q-0.625 0.34375 -1.359375 0.34375q-1.203125 0 -1.953125 -0.765625q-0.734375 -0.765625 -0.734375 -2.21875zm1.0 0q0 1.109375 0.46875 1.65625q0.484375 0.53125 1.21875 0.53125q0.71875 0 1.1875 -0.546875q0.484375 -0.546875 0.484375 -1.671875q0 -1.046875 -0.484375 -1.59375q-0.484375 -0.546875 -1.1875 -0.546875q-0.734375 0 -1.21875 0.546875q-0.46875 0.53125 -0.46875 1.625zm5.2858734 5.046875l0 -7.890625l0.890625 0l0 0.734375q0.3125 -0.421875 0.703125 -0.640625q0.390625 -0.21875 0.953125 -0.21875q0.71875 0 1.28125 0.375q0.5625 0.375 0.84375 1.0625q0.28125 0.671875 0.28125 1.5q0 0.875 -0.3125 1.578125q-0.3125 0.6875 -0.921875 1.0625q-0.59375 0.375 -1.25 0.375q-0.484375 0 -0.875 -0.203125q-0.375 -0.203125 -0.625 -0.515625l0 2.78125l-0.96875 0zm0.875 -5.0q0 1.09375 0.453125 1.625q0.453125 0.515625 1.078125 0.515625q0.640625 0 1.09375 -0.53125q0.46875 -0.546875 0.46875 -1.703125q0 -1.078125 -0.453125 -1.625q-0.4375 -0.546875 -1.0625 -0.546875q-0.625 0 -1.109375 0.578125q-0.46875 0.578125 -0.46875 1.6875zm7.1764984 1.953125l0.125 0.84375q-0.40625 0.09375 -0.71875 0.09375q-0.53125 0 -0.828125 -0.171875q-0.28125 -0.171875 -0.40625 -0.4375q-0.109375 -0.265625 -0.109375 -1.140625l0 -3.28125l-0.71875 0l0 -0.75l0.71875 0l0 -1.40625l0.953125 -0.59375l0 2.0l0.984375 0l0 0.75l-0.984375 0l0 3.34375q0 0.40625 0.046875 0.53125q0.0625 0.109375 0.171875 0.1875q0.125 0.0625 0.328125 0.0625q0.171875 0 0.4375 -0.03125zm0.8512726 -5.90625l0 -1.109375l0.96875 0l0 1.109375l-0.96875 0zm0 6.765625l0 -5.703125l0.96875 0l0 5.703125l-0.96875 0zm1.9924774 -2.859375q0 -1.578125 0.890625 -2.34375q0.734375 -0.625 1.796875 -0.625q1.171875 0 1.90625 0.765625q0.75 0.765625 0.75 2.125q0 1.109375 -0.328125 1.75q-0.328125 0.625 -0.96875 0.96875q-0.625 0.34375 -1.359375 0.34375q-1.203125 0 -1.953125 -0.765625q-0.734375 -0.765625 -0.734375 -2.21875zm1.0 0q0 1.109375 0.46875 1.65625q0.484375 0.53125 1.21875 0.53125q0.71875 0 1.1875 -0.546875q0.484375 -0.546875 0.484375 -1.671875q0 -1.046875 -0.484375 -1.59375q-0.484375 -0.546875 -1.1875 -0.546875q-0.734375 0 -1.21875 0.546875q-0.46875 0.53125 -0.46875 1.625zm5.2858734 2.859375l0 -5.703125l0.875 0l0 0.8125q0.625 -0.9375 1.8125 -0.9375q0.515625 0 0.953125 0.1875q0.4375 0.171875 0.640625 0.484375q0.21875 0.296875 0.3125 0.703125q0.046875 0.28125 0.046875 0.953125l0 3.5l-0.96875 0l0 -3.46875q0 -0.59375 -0.109375 -0.875q-0.109375 -0.296875 -0.40625 -0.46875q-0.28125 -0.1875 -0.671875 -0.1875q-0.609375 0 -1.0625 0.390625q-0.453125 0.390625 -0.453125 1.5l0 3.109375l-0.96875 0zm9.660873 -0.703125q-0.546875 0.453125 -1.046875 0.640625q-0.484375 0.1875 -1.0625 0.1875q-0.9375 0 -1.453125 -0.453125q-0.5 -0.46875 -0.5 -1.171875q0 -0.421875 0.1875 -0.765625q0.203125 -0.34375 0.5 -0.546875q0.3125 -0.21875 0.703125 -0.328125q0.28125 -0.078125 0.859375 -0.140625q1.171875 -0.140625 1.71875 -0.34375q0.015625 -0.1875 0.015625 -0.25q0 -0.59375 -0.28125 -0.828125q-0.359375 -0.328125 -1.09375 -0.328125q-0.6875 0 -1.015625 0.234375q-0.3125 0.234375 -0.46875 0.84375l-0.953125 -0.125q0.125 -0.609375 0.421875 -0.984375q0.296875 -0.375 0.859375 -0.5625q0.5625 -0.203125 1.296875 -0.203125q0.734375 0 1.1875 0.171875q0.453125 0.171875 0.65625 0.4375q0.21875 0.25 0.3125 0.640625q0.046875 0.25 0.046875 0.90625l0 1.28125q0 1.34375 0.0625 1.703125q0.0625 0.359375 0.25 0.6875l-1.015625 0q-0.15625 -0.296875 -0.1875 -0.703125zm-0.09375 -2.15625q-0.515625 0.21875 -1.578125 0.359375q-0.59375 0.09375 -0.84375 0.203125q-0.234375 0.09375 -0.375 0.3125q-0.140625 0.203125 -0.140625 0.453125q0 0.390625 0.296875 0.65625q0.296875 0.25 0.859375 0.25q0.5625 0 0.984375 -0.25q0.4375 -0.25 0.65625 -0.671875q0.140625 -0.328125 0.140625 -0.96875l0 -0.34375zm2.2702484 2.859375l0 -7.875l0.96875 0l0 7.875l-0.96875 0zm2.4456024 -5.09375l-0.28125 -1.484375l0 -1.296875l1.109375 0l0 1.296875l-0.25 1.484375l-0.578125 0zm1.765625 0l-0.265625 -1.484375l0 -1.296875l1.109375 0l0 1.296875l-0.265625 1.484375l-0.578125 0zm7.555908 1.8125l0 0.875q-0.40625 0 -0.671875 0.21875q-0.265625 0.21875 -0.359375 0.59375q-0.078125 0.359375 -0.078125 1.265625q0 0.890625 -0.03125 1.171875q-0.046875 0.453125 -0.1875 0.71875q-0.125 0.28125 -0.328125 0.4375q-0.1875 0.171875 -0.484375 0.25q-0.203125 0.0625 -0.671875 0.0625l-0.296875 0l0 -0.84375l0.171875 0q0.5625 0 0.734375 -0.203125q0.1875 -0.203125 0.1875 -0.90625q0 -1.34375 0.046875 -1.703125q0.09375 -0.59375 0.34375 -0.9375q0.265625 -0.359375 0.734375 -0.5625q-0.625 -0.296875 -0.875 -0.78125q-0.25 -0.484375 -0.25 -1.640625q0 -1.046875 -0.03125 -1.25q-0.03125 -0.359375 -0.21875 -0.5q-0.171875 -0.15625 -0.671875 -0.15625l-0.171875 0l0 -0.84375l0.296875 0q0.53125 0 0.765625 0.09375q0.34375 0.125 0.5625 0.40625q0.234375 0.265625 0.296875 0.703125q0.078125 0.421875 0.078125 1.390625q0 0.953125 0.078125 1.328125q0.09375 0.359375 0.359375 0.578125q0.265625 0.21875 0.671875 0.234375z" fill-rule="nonzero"></path><path fill="#000000" d="m13.04097 120.18494l0 -7.875l1.5 0l0 7.875l-1.5 0zm4.0856476 -3.96875l-1.375 -0.25q0.234375 -0.8125 0.796875 -1.203125q0.5625 -0.40625 1.671875 -0.40625q1.015625 0 1.5 0.234375q0.5 0.234375 0.703125 0.609375q0.203125 0.359375 0.203125 1.34375l-0.015625 1.765625q0 0.75 0.0625 1.109375q0.078125 0.359375 0.28125 0.765625l-1.5 0q-0.0625 -0.15625 -0.140625 -0.453125q-0.03125 -0.125 -0.046875 -0.171875q-0.390625 0.375 -0.84375 0.5625q-0.4375 0.1875 -0.9375 0.1875q-0.875 0 -1.390625 -0.46875q-0.5 -0.484375 -0.5 -1.21875q0 -0.484375 0.234375 -0.859375q0.234375 -0.375 0.640625 -0.578125q0.421875 -0.203125 1.203125 -0.359375q1.0625 -0.1875 1.46875 -0.359375l0 -0.15625q0 -0.4375 -0.21875 -0.609375q-0.21875 -0.1875 -0.8125 -0.1875q-0.390625 0 -0.625 0.15625q-0.21875 0.15625 -0.359375 0.546875zm2.015625 1.234375q-0.296875 0.09375 -0.921875 0.234375q-0.625 0.125 -0.8125 0.25q-0.296875 0.21875 -0.296875 0.53125q0 0.328125 0.234375 0.5625q0.234375 0.21875 0.59375 0.21875q0.40625 0 0.78125 -0.265625q0.28125 -0.203125 0.359375 -0.5q0.0625 -0.1875 0.0625 -0.734375l0 -0.296875zm7.9733734 2.734375l-1.515625 0l0 -2.90625q0 -0.921875 -0.09375 -1.1875q-0.09375 -0.28125 -0.3125 -0.421875q-0.21875 -0.15625 -0.53125 -0.15625q-0.390625 0 -0.703125 0.21875q-0.3125 0.203125 -0.4375 0.5625q-0.109375 0.34375 -0.109375 1.3125l0 2.578125l-1.5 0l0 -5.703125l1.40625 0l0 0.84375q0.734375 -0.96875 1.875 -0.96875q0.5 0 0.90625 0.1875q0.421875 0.171875 0.625 0.453125q0.21875 0.265625 0.296875 0.625q0.09375 0.359375 0.09375 1.015625l0 3.546875zm1.1811371 0.375l1.71875 0.203125q0.046875 0.3125 0.203125 0.421875q0.203125 0.15625 0.671875 0.15625q0.59375 0 0.890625 -0.171875q0.1875 -0.125 0.296875 -0.375q0.0625 -0.203125 0.0625 -0.703125l0 -0.828125q-0.671875 0.921875 -1.703125 0.921875q-1.140625 0 -1.8125 -0.96875q-0.53125 -0.765625 -0.53125 -1.921875q0 -1.421875 0.6875 -2.171875q0.6875 -0.765625 1.71875 -0.765625q1.0625 0 1.75 0.921875l0 -0.796875l1.40625 0l0 5.125q0 1.0 -0.171875 1.5q-0.15625 0.5 -0.46875 0.78125q-0.296875 0.296875 -0.796875 0.453125q-0.5 0.15625 -1.265625 0.15625q-1.453125 0 -2.0625 -0.5q-0.609375 -0.484375 -0.609375 -1.25q0 -0.078125 0.015625 -0.1875zm1.34375 -3.34375q0 0.90625 0.34375 1.328125q0.359375 0.421875 0.875 0.421875q0.546875 0 0.921875 -0.421875q0.390625 -0.4375 0.390625 -1.296875q0 -0.875 -0.375 -1.296875q-0.359375 -0.4375 -0.90625 -0.4375q-0.546875 0 -0.90625 0.421875q-0.34375 0.421875 -0.34375 1.28125zm9.056137 2.96875l0 -0.859375q-0.3125 0.46875 -0.828125 0.734375q-0.5 0.25 -1.0625 0.25q-0.578125 0 -1.03125 -0.25q-0.453125 -0.25 -0.671875 -0.703125q-0.203125 -0.46875 -0.203125 -1.265625l0 -3.609375l1.515625 0l0 2.625q0 1.203125 0.078125 1.46875q0.09375 0.265625 0.3125 0.4375q0.21875 0.15625 0.5625 0.15625q0.375 0 0.6875 -0.203125q0.3125 -0.21875 0.421875 -0.53125q0.109375 -0.328125 0.109375 -1.546875l0 -2.40625l1.515625 0l0 5.703125l-1.40625 0zm3.884262 -3.96875l-1.375 -0.25q0.234375 -0.8125 0.796875 -1.203125q0.5625 -0.40625 1.671875 -0.40625q1.015625 0 1.5 0.234375q0.5 0.234375 0.703125 0.609375q0.203125 0.359375 0.203125 1.34375l-0.015625 1.765625q0 0.75 0.0625 1.109375q0.078125 0.359375 0.28125 0.765625l-1.5 0q-0.0625 -0.15625 -0.140625 -0.453125q-0.03125 -0.125 -0.046875 -0.171875q-0.390625 0.375 -0.84375 0.5625q-0.4375 0.1875 -0.9375 0.1875q-0.875 0 -1.390625 -0.46875q-0.5 -0.484375 -0.5 -1.21875q0 -0.484375 0.234375 -0.859375q0.234375 -0.375 0.640625 -0.578125q0.421875 -0.203125 1.203125 -0.359375q1.0625 -0.1875 1.46875 -0.359375l0 -0.15625q0 -0.4375 -0.21875 -0.609375q-0.21875 -0.1875 -0.8125 -0.1875q-0.390625 0 -0.625 0.15625q-0.21875 0.15625 -0.359375 0.546875zm2.015625 1.234375q-0.296875 0.09375 -0.921875 0.234375q-0.625 0.125 -0.8125 0.25q-0.296875 0.21875 -0.296875 0.53125q0 0.328125 0.234375 0.5625q0.234375 0.21875 0.59375 0.21875q0.40625 0 0.78125 -0.265625q0.28125 -0.203125 0.359375 -0.5q0.0625 -0.1875 0.0625 -0.734375l0 -0.296875zm2.6452484 3.109375l1.71875 0.203125q0.046875 0.3125 0.203125 0.421875q0.203125 0.15625 0.671875 0.15625q0.59375 0 0.890625 -0.171875q0.1875 -0.125 0.296875 -0.375q0.0625 -0.203125 0.0625 -0.703125l0 -0.828125q-0.671875 0.921875 -1.703125 0.921875q-1.140625 0 -1.8125 -0.96875q-0.53125 -0.765625 -0.53125 -1.921875q0 -1.421875 0.6875 -2.171875q0.6875 -0.765625 1.71875 -0.765625q1.0625 0 1.75 0.921875l0 -0.796875l1.40625 0l0 5.125q0 1.0 -0.171875 1.5q-0.15625 0.5 -0.46875 0.78125q-0.296875 0.296875 -0.796875 0.453125q-0.5 0.15625 -1.265625 0.15625q-1.453125 0 -2.0625 -0.5q-0.609375 -0.484375 -0.609375 -1.25q0 -0.078125 0.015625 -0.1875zm1.34375 -3.34375q0 0.90625 0.34375 1.328125q0.359375 0.421875 0.875 0.421875q0.546875 0 0.921875 -0.421875q0.390625 -0.4375 0.390625 -1.296875q0 -0.875 -0.375 -1.296875q-0.359375 -0.4375 -0.90625 -0.4375q-0.546875 0 -0.90625 0.421875q-0.34375 0.421875 -0.34375 1.28125zm8.603012 1.15625l1.5 0.25q-0.28125 0.828125 -0.90625 1.265625q-0.625 0.421875 -1.578125 0.421875q-1.484375 0 -2.203125 -0.96875q-0.5625 -0.78125 -0.5625 -1.96875q0 -1.421875 0.734375 -2.21875q0.75 -0.796875 1.890625 -0.796875q1.265625 0 2.0 0.84375q0.734375 0.828125 0.703125 2.5625l-3.78125 0q0.015625 0.671875 0.359375 1.046875q0.359375 0.375 0.875 0.375q0.359375 0 0.59375 -0.1875q0.25 -0.203125 0.375 -0.625zm0.078125 -1.53125q-0.015625 -0.65625 -0.34375 -0.984375q-0.3125 -0.34375 -0.765625 -0.34375q-0.5 0 -0.828125 0.359375q-0.3125 0.359375 -0.3125 0.96875l2.25 0z" fill-rule="nonzero"></path><path fill="#000000" d="m60.021286 115.57556l0 -1.09375l1.09375 0l0 1.09375l-1.09375 0zm0 4.609375l0 -1.09375l1.09375 0l0 1.09375l-1.09375 0zm9.37442 -0.703125q-0.546875 0.453125 -1.046875 0.640625q-0.484375 0.1875 -1.0625 0.1875q-0.9375 0 -1.453125 -0.453125q-0.5 -0.46875 -0.5 -1.171875q0 -0.421875 0.1875 -0.765625q0.203125 -0.34375 0.5 -0.546875q0.3125 -0.21875 0.703125 -0.328125q0.28125 -0.078125 0.859375 -0.140625q1.171875 -0.140625 1.71875 -0.34375q0.015625 -0.1875 0.015625 -0.25q0 -0.59375 -0.28125 -0.828125q-0.359375 -0.328125 -1.09375 -0.328125q-0.6875 0 -1.015625 0.234375q-0.3125 0.234375 -0.46875 0.84375l-0.953125 -0.125q0.125 -0.609375 0.421875 -0.984375q0.296875 -0.375 0.859375 -0.5625q0.5625 -0.203125 1.296875 -0.203125q0.734375 0 1.1875 0.171875q0.453125 0.171875 0.65625 0.4375q0.21875 0.25 0.3125 0.640625q0.046875 0.25 0.046875 0.90625l0 1.28125q0 1.34375 0.0625 1.703125q0.0625 0.359375 0.25 0.6875l-1.015625 0q-0.15625 -0.296875 -0.1875 -0.703125zm-0.09375 -2.15625q-0.515625 0.21875 -1.578125 0.359375q-0.59375 0.09375 -0.84375 0.203125q-0.234375 0.09375 -0.375 0.3125q-0.140625 0.203125 -0.140625 0.453125q0 0.390625 0.296875 0.65625q0.296875 0.25 0.859375 0.25q0.5625 0 0.984375 -0.25q0.4375 -0.25 0.65625 -0.671875q0.140625 -0.328125 0.140625 -0.96875l0 -0.34375zm2.2858734 2.859375l0 -5.703125l0.875 0l0 0.8125q0.625 -0.9375 1.8125 -0.9375q0.515625 0 0.953125 0.1875q0.4375 0.171875 0.640625 0.484375q0.21875 0.296875 0.3125 0.703125q0.046875 0.28125 0.046875 0.953125l0 3.5l-0.96875 0l0 -3.46875q0 -0.59375 -0.109375 -0.875q-0.109375 -0.296875 -0.40625 -0.46875q-0.28125 -0.1875 -0.671875 -0.1875q-0.609375 0 -1.0625 0.390625q-0.453125 0.390625 -0.453125 1.5l0 3.109375l-0.96875 0zm5.8952484 2.203125l-0.109375 -0.90625q0.3125 0.078125 0.546875 0.078125q0.328125 0 0.515625 -0.109375q0.203125 -0.109375 0.3125 -0.296875q0.09375 -0.140625 0.296875 -0.71875q0.03125 -0.078125 0.09375 -0.234375l-2.171875 -5.71875l1.046875 0l1.1875 3.296875q0.234375 0.640625 0.40625 1.328125q0.171875 -0.671875 0.40625 -1.296875l1.21875 -3.328125l0.96875 0l-2.171875 5.796875q-0.34375 0.9375 -0.546875 1.296875q-0.25 0.484375 -0.59375 0.703125q-0.328125 0.21875 -0.78125 0.21875q-0.28125 0 -0.625 -0.109375zm10.65625 -10.078125l1.046875 0l0 4.546875q0 1.1875 -0.28125 1.890625q-0.265625 0.703125 -0.96875 1.140625q-0.6875 0.4375 -1.828125 0.4375q-1.109375 0 -1.8125 -0.375q-0.703125 -0.390625 -1.015625 -1.109375q-0.296875 -0.734375 -0.296875 -1.984375l0 -4.546875l1.046875 0l0 4.546875q0 1.03125 0.1875 1.515625q0.1875 0.484375 0.65625 0.75q0.46875 0.25 1.140625 0.25q1.140625 0 1.625 -0.515625q0.5 -0.515625 0.5 -2.0l0 -4.546875zm2.5393524 7.875l0 -7.875l3.5 0q1.046875 0 1.59375 0.21875q0.546875 0.203125 0.875 0.75q0.328125 0.53125 0.328125 1.1875q0 0.828125 -0.546875 1.40625q-0.53125 0.578125 -1.671875 0.734375q0.421875 0.1875 0.625 0.390625q0.46875 0.421875 0.875 1.046875l1.359375 2.140625l-1.296875 0l-1.046875 -1.640625q-0.453125 -0.703125 -0.75 -1.078125q-0.296875 -0.375 -0.53125 -0.53125q-0.234375 -0.15625 -0.46875 -0.203125q-0.1875 -0.046875 -0.59375 -0.046875l-1.203125 0l0 3.5l-1.046875 0zm1.046875 -4.40625l2.234375 0q0.71875 0 1.125 -0.140625q0.40625 -0.140625 0.609375 -0.46875q0.203125 -0.328125 0.203125 -0.703125q0 -0.5625 -0.40625 -0.921875q-0.390625 -0.359375 -1.265625 -0.359375l-2.5 0l0 2.59375zm6.8206024 4.40625l0 -7.875l1.03125 0l0 7.875l-1.03125 0zm5.202545 -3.28125q0.40625 -0.015625 0.65625 -0.21875q0.265625 -0.21875 0.34375 -0.59375q0.09375 -0.375 0.09375 -1.265625q0.015625 -0.890625 0.046875 -1.1875q0.046875 -0.453125 0.171875 -0.71875q0.140625 -0.28125 0.328125 -0.4375q0.203125 -0.171875 0.5 -0.25q0.203125 -0.0625 0.65625 -0.0625l0.3125 0l0 0.84375l-0.171875 0q-0.5625 0 -0.75 0.203125q-0.171875 0.203125 -0.171875 0.90625q0 1.40625 -0.0625 1.78125q-0.09375 0.5625 -0.328125 0.875q-0.234375 0.3125 -0.734375 0.5625q0.59375 0.25 0.859375 0.765625q0.265625 0.5 0.265625 1.640625q0 1.0625 0.015625 1.25q0.046875 0.375 0.21875 0.515625q0.171875 0.140625 0.6875 0.140625l0.171875 0l0 0.84375l-0.3125 0q-0.515625 0 -0.75 -0.078125q-0.34375 -0.125 -0.578125 -0.40625q-0.21875 -0.28125 -0.296875 -0.703125q-0.0625 -0.421875 -0.078125 -1.390625q0 -0.96875 -0.09375 -1.328125q-0.078125 -0.375 -0.34375 -0.59375q-0.25 -0.21875 -0.65625 -0.21875l0 -0.875zm10.675919 3.28125l0 -0.84375q-0.671875 0.96875 -1.8125 0.96875q-0.5 0 -0.953125 -0.1875q-0.4375 -0.203125 -0.65625 -0.484375q-0.203125 -0.296875 -0.28125 -0.71875q-0.0625 -0.28125 -0.0625 -0.90625l0 -3.53125l0.96875 0l0 3.15625q0 0.765625 0.0625 1.03125q0.09375 0.375 0.375 0.59375q0.296875 0.21875 0.734375 0.21875q0.4375 0 0.8125 -0.21875q0.390625 -0.234375 0.546875 -0.609375q0.15625 -0.390625 0.15625 -1.109375l0 -3.0625l0.96875 0l0 5.703125l-0.859375 0zm1.8014984 -1.703125l0.953125 -0.15625q0.078125 0.578125 0.4375 0.890625q0.375 0.296875 1.03125 0.296875q0.671875 0 0.984375 -0.265625q0.328125 -0.265625 0.328125 -0.640625q0 -0.328125 -0.28125 -0.515625q-0.203125 -0.125 -0.984375 -0.328125q-1.0625 -0.265625 -1.484375 -0.453125q-0.40625 -0.203125 -0.625 -0.546875q-0.203125 -0.34375 -0.203125 -0.765625q0 -0.390625 0.171875 -0.703125q0.171875 -0.328125 0.484375 -0.546875q0.21875 -0.171875 0.609375 -0.28125q0.390625 -0.109375 0.828125 -0.109375q0.671875 0 1.171875 0.1875q0.515625 0.1875 0.75 0.53125q0.25 0.328125 0.34375 0.875l-0.9375 0.125q-0.078125 -0.4375 -0.390625 -0.671875q-0.296875 -0.25 -0.859375 -0.25q-0.671875 0 -0.953125 0.21875q-0.28125 0.21875 -0.28125 0.515625q0 0.1875 0.109375 0.328125q0.125 0.15625 0.375 0.265625q0.140625 0.046875 0.859375 0.25q1.015625 0.265625 1.421875 0.4375q0.40625 0.171875 0.640625 0.515625q0.234375 0.328125 0.234375 0.828125q0 0.484375 -0.28125 0.90625q-0.28125 0.421875 -0.8125 0.65625q-0.53125 0.234375 -1.203125 0.234375q-1.109375 0 -1.703125 -0.453125q-0.578125 -0.46875 -0.734375 -1.375zm9.609375 -0.140625l1.0 0.125q-0.234375 0.875 -0.875 1.359375q-0.640625 0.484375 -1.625 0.484375q-1.25 0 -1.984375 -0.765625q-0.734375 -0.765625 -0.734375 -2.15625q0 -1.453125 0.734375 -2.234375q0.75 -0.796875 1.921875 -0.796875q1.15625 0 1.875 0.78125q0.71875 0.765625 0.71875 2.1875q0 0.078125 0 0.25l-4.25 0q0.046875 0.9375 0.515625 1.4375q0.484375 0.5 1.203125 0.5q0.53125 0 0.90625 -0.265625q0.375 -0.28125 0.59375 -0.90625zm-3.171875 -1.5625l3.1875 0q-0.0625 -0.71875 -0.359375 -1.078125q-0.46875 -0.546875 -1.203125 -0.546875q-0.671875 0 -1.125 0.453125q-0.453125 0.4375 -0.5 1.171875zm10.285873 -1.21875l-5.203125 0l0 -0.90625l5.203125 0l0 0.90625zm0 2.390625l-5.203125 0l0 -0.90625l5.203125 0l0 0.90625zm1.1918335 -2.859375l-0.28125 -1.484375l0 -1.296875l1.109375 0l0 1.296875l-0.25 1.484375l-0.578125 0zm1.765625 0l-0.265625 -1.484375l0 -1.296875l1.109375 0l0 1.296875l-0.265625 1.484375l-0.578125 0zm1.5952606 2.234375q0 -1.578125 0.890625 -2.34375q0.734375 -0.625 1.796875 -0.625q1.171875 0 1.90625 0.765625q0.75 0.765625 0.75 2.125q0 1.109375 -0.328125 1.75q-0.328125 0.625 -0.96875 0.96875q-0.625 0.34375 -1.359375 0.34375q-1.203125 0 -1.953125 -0.765625q-0.734375 -0.765625 -0.734375 -2.21875zm1.0 0q0 1.109375 0.46875 1.65625q0.484375 0.53125 1.21875 0.53125q0.71875 0 1.1875 -0.546875q0.484375 -0.546875 0.484375 -1.671875q0 -1.046875 -0.484375 -1.59375q-0.484375 -0.546875 -1.1875 -0.546875q-0.734375 0 -1.21875 0.546875q-0.46875 0.53125 -0.46875 1.625zm5.2858734 5.046875l0 -7.890625l0.890625 0l0 0.734375q0.3125 -0.421875 0.703125 -0.640625q0.390625 -0.21875 0.953125 -0.21875q0.71875 0 1.28125 0.375q0.5625 0.375 0.84375 1.0625q0.28125 0.671875 0.28125 1.5q0 0.875 -0.3125 1.578125q-0.3125 0.6875 -0.921875 1.0625q-0.59375 0.375 -1.25 0.375q-0.484375 0 -0.875 -0.203125q-0.375 -0.203125 -0.625 -0.515625l0 2.78125l-0.96875 0zm0.875 -5.0q0 1.09375 0.453125 1.625q0.453125 0.515625 1.078125 0.515625q0.640625 0 1.09375 -0.53125q0.46875 -0.546875 0.46875 -1.703125q0 -1.078125 -0.453125 -1.625q-0.4375 -0.546875 -1.0625 -0.546875q-0.625 0 -1.109375 0.578125q-0.46875 0.578125 -0.46875 1.6875zm7.1764984 1.953125l0.125 0.84375q-0.40625 0.09375 -0.71875 0.09375q-0.53125 0 -0.828125 -0.171875q-0.28125 -0.171875 -0.40625 -0.4375q-0.109375 -0.265625 -0.109375 -1.140625l0 -3.28125l-0.71875 0l0 -0.75l0.71875 0l0 -1.40625l0.953125 -0.59375l0 2.0l0.984375 0l0 0.75l-0.984375 0l0 3.34375q0 0.40625 0.046875 0.53125q0.0625 0.109375 0.171875 0.1875q0.125 0.0625 0.328125 0.0625q0.171875 0 0.4375 -0.03125zm0.8512726 -5.90625l0 -1.109375l0.96875 0l0 1.109375l-0.96875 0zm0 6.765625l0 -5.703125l0.96875 0l0 5.703125l-0.96875 0zm1.9924774 -2.859375q0 -1.578125 0.890625 -2.34375q0.734375 -0.625 1.796875 -0.625q1.171875 0 1.90625 0.765625q0.75 0.765625 0.75 2.125q0 1.109375 -0.328125 1.75q-0.328125 0.625 -0.96875 0.96875q-0.625 0.34375 -1.359375 0.34375q-1.203125 0 -1.953125 -0.765625q-0.734375 -0.765625 -0.734375 -2.21875zm1.0 0q0 1.109375 0.46875 1.65625q0.484375 0.53125 1.21875 0.53125q0.71875 0 1.1875 -0.546875q0.484375 -0.546875 0.484375 -1.671875q0 -1.046875 -0.484375 -1.59375q-0.484375 -0.546875 -1.1875 -0.546875q-0.734375 0 -1.21875 0.546875q-0.46875 0.53125 -0.46875 1.625zm5.2858734 2.859375l0 -5.703125l0.875 0l0 0.8125q0.625 -0.9375 1.8125 -0.9375q0.515625 0 0.953125 0.1875q0.4375 0.171875 0.640625 0.484375q0.21875 0.296875 0.3125 0.703125q0.046875 0.28125 0.046875 0.953125l0 3.5l-0.96875 0l0 -3.46875q0 -0.59375 -0.109375 -0.875q-0.109375 -0.296875 -0.40625 -0.46875q-0.28125 -0.1875 -0.671875 -0.1875q-0.609375 0 -1.0625 0.390625q-0.453125 0.390625 -0.453125 1.5l0 3.109375l-0.96875 0zm9.660873 -0.703125q-0.546875 0.453125 -1.046875 0.640625q-0.484375 0.1875 -1.0625 0.1875q-0.9375 0 -1.453125 -0.453125q-0.5 -0.46875 -0.5 -1.171875q0 -0.421875 0.1875 -0.765625q0.203125 -0.34375 0.5 -0.546875q0.3125 -0.21875 0.703125 -0.328125q0.28125 -0.078125 0.859375 -0.140625q1.171875 -0.140625 1.71875 -0.34375q0.015625 -0.1875 0.015625 -0.25q0 -0.59375 -0.28125 -0.828125q-0.359375 -0.328125 -1.09375 -0.328125q-0.6875 0 -1.015625 0.234375q-0.3125 0.234375 -0.46875 0.84375l-0.953125 -0.125q0.125 -0.609375 0.421875 -0.984375q0.296875 -0.375 0.859375 -0.5625q0.5625 -0.203125 1.296875 -0.203125q0.734375 0 1.1875 0.171875q0.453125 0.171875 0.65625 0.4375q0.21875 0.25 0.3125 0.640625q0.046875 0.25 0.046875 0.90625l0 1.28125q0 1.34375 0.0625 1.703125q0.0625 0.359375 0.25 0.6875l-1.015625 0q-0.15625 -0.296875 -0.1875 -0.703125zm-0.09375 -2.15625q-0.515625 0.21875 -1.578125 0.359375q-0.59375 0.09375 -0.84375 0.203125q-0.234375 0.09375 -0.375 0.3125q-0.140625 0.203125 -0.140625 0.453125q0 0.390625 0.296875 0.65625q0.296875 0.25 0.859375 0.25q0.5625 0 0.984375 -0.25q0.4375 -0.25 0.65625 -0.671875q0.140625 -0.328125 0.140625 -0.96875l0 -0.34375zm2.2702484 2.859375l0 -7.875l0.96875 0l0 7.875l-0.96875 0zm2.4456024 -5.09375l-0.28125 -1.484375l0 -1.296875l1.109375 0l0 1.296875l-0.25 1.484375l-0.578125 0zm1.765625 0l-0.265625 -1.484375l0 -1.296875l1.109375 0l0 1.296875l-0.265625 1.484375l-0.578125 0zm7.555908 1.8125l0 0.875q-0.40625 0 -0.671875 0.21875q-0.265625 0.21875 -0.359375 0.59375q-0.078125 0.359375 -0.078125 1.265625q0 0.890625 -0.03125 1.171875q-0.046875 0.453125 -0.1875 0.71875q-0.125 0.28125 -0.328125 0.4375q-0.1875 0.171875 -0.484375 0.25q-0.203125 0.0625 -0.671875 0.0625l-0.296875 0l0 -0.84375l0.171875 0q0.5625 0 0.734375 -0.203125q0.1875 -0.203125 0.1875 -0.90625q0 -1.34375 0.046875 -1.703125q0.09375 -0.59375 0.34375 -0.9375q0.265625 -0.359375 0.734375 -0.5625q-0.625 -0.296875 -0.875 -0.78125q-0.25 -0.484375 -0.25 -1.640625q0 -1.046875 -0.03125 -1.25q-0.03125 -0.359375 -0.21875 -0.5q-0.171875 -0.15625 -0.671875 -0.15625l-0.171875 0l0 -0.84375l0.296875 0q0.53125 0 0.765625 0.09375q0.34375 0.125 0.5625 0.40625q0.234375 0.265625 0.296875 0.703125q0.078125 0.421875 0.078125 1.390625q0 0.953125 0.078125 1.328125q0.09375 0.359375 0.359375 0.578125q0.265625 0.21875 0.671875 0.234375z" fill-rule="nonzero"></path><path fill="#000000" d="m12.50972 131.55994l1.5 -0.234375q0.109375 0.4375 0.390625 0.671875q0.296875 0.21875 0.828125 0.21875q0.59375 0 0.890625 -0.203125q0.203125 -0.15625 0.203125 -0.40625q0 -0.171875 -0.109375 -0.28125q-0.125 -0.109375 -0.515625 -0.203125q-1.8125 -0.40625 -2.3125 -0.734375q-0.671875 -0.46875 -0.671875 -1.28125q0 -0.75 0.578125 -1.25q0.59375 -0.5 1.828125 -0.5q1.171875 0 1.734375 0.375q0.5625 0.375 0.78125 1.125l-1.421875 0.265625q-0.09375 -0.328125 -0.34375 -0.5q-0.25 -0.1875 -0.734375 -0.1875q-0.59375 0 -0.84375 0.171875q-0.171875 0.109375 -0.171875 0.296875q0 0.171875 0.140625 0.28125q0.203125 0.15625 1.40625 0.4375q1.21875 0.265625 1.6875 0.65625q0.484375 0.40625 0.484375 1.125q0 0.78125 -0.65625 1.34375q-0.65625 0.5625 -1.953125 0.5625q-1.15625 0 -1.84375 -0.46875q-0.671875 -0.46875 -0.875 -1.28125zm6.0983734 -1.3125q0 -0.75 0.375 -1.453125q0.375 -0.703125 1.046875 -1.0625q0.6875 -0.375 1.515625 -0.375q1.296875 0 2.125 0.84375q0.828125 0.828125 0.828125 2.109375q0 1.296875 -0.84375 2.15625q-0.828125 0.84375 -2.09375 0.84375q-0.78125 0 -1.5 -0.34375q-0.703125 -0.359375 -1.078125 -1.046875q-0.375 -0.6875 -0.375 -1.671875zm1.546875 0.078125q0 0.859375 0.40625 1.3125q0.40625 0.453125 1.0 0.453125q0.578125 0 0.984375 -0.453125q0.40625 -0.453125 0.40625 -1.3125q0 -0.84375 -0.40625 -1.296875q-0.40625 -0.453125 -0.984375 -0.453125q-0.59375 0 -1.0 0.453125q-0.40625 0.453125 -0.40625 1.296875zm9.071762 2.859375l0 -0.859375q-0.3125 0.46875 -0.828125 0.734375q-0.5 0.25 -1.0625 0.25q-0.578125 0 -1.03125 -0.25q-0.453125 -0.25 -0.671875 -0.703125q-0.203125 -0.46875 -0.203125 -1.265625l0 -3.609375l1.515625 0l0 2.625q0 1.203125 0.078125 1.46875q0.09375 0.265625 0.3125 0.4375q0.21875 0.15625 0.5625 0.15625q0.375 0 0.6875 -0.203125q0.3125 -0.21875 0.421875 -0.53125q0.109375 -0.328125 0.109375 -1.546875l0 -2.40625l1.515625 0l0 5.703125l-1.40625 0zm4.196762 0l-1.515625 0l0 -5.703125l1.40625 0l0 0.8125q0.359375 -0.578125 0.640625 -0.75q0.296875 -0.1875 0.65625 -0.1875q0.515625 0 1.0 0.28125l-0.46875 1.3125q-0.375 -0.25 -0.703125 -0.25q-0.328125 0 -0.546875 0.1875q-0.21875 0.171875 -0.34375 0.625q-0.125 0.453125 -0.125 1.90625l0 1.765625zm7.678238 -4.015625l-1.484375 0.265625q-0.078125 -0.4375 -0.34375 -0.65625q-0.265625 -0.234375 -0.6875 -0.234375q-0.5625 0 -0.90625 0.390625q-0.328125 0.375 -0.328125 1.296875q0 1.015625 0.328125 1.4375q0.34375 0.421875 0.921875 0.421875q0.4375 0 0.703125 -0.25q0.28125 -0.25 0.390625 -0.84375l1.484375 0.25q-0.234375 1.03125 -0.890625 1.546875q-0.65625 0.515625 -1.75 0.515625q-1.265625 0 -2.015625 -0.78125q-0.734375 -0.796875 -0.734375 -2.1875q0 -1.421875 0.75 -2.203125q0.75 -0.78125 2.015625 -0.78125q1.046875 0 1.65625 0.453125q0.625 0.4375 0.890625 1.359375zm4.2546234 2.203125l1.5 0.25q-0.28125 0.828125 -0.90625 1.265625q-0.625 0.421875 -1.578125 0.421875q-1.484375 0 -2.203125 -0.96875q-0.5625 -0.78125 -0.5625 -1.96875q0 -1.421875 0.734375 -2.21875q0.75 -0.796875 1.890625 -0.796875q1.265625 0 2.0 0.84375q0.734375 0.828125 0.703125 2.5625l-3.78125 0q0.015625 0.671875 0.359375 1.046875q0.359375 0.375 0.875 0.375q0.359375 0 0.59375 -0.1875q0.25 -0.203125 0.375 -0.625zm0.078125 -1.53125q-0.015625 -0.65625 -0.34375 -0.984375q-0.3125 -0.34375 -0.765625 -0.34375q-0.5 0 -0.828125 0.359375q-0.3125 0.359375 -0.3125 0.96875l2.25 0z" fill-rule="nonzero"></path><path fill="#000000" d="m48.189102 128.57556l0 -1.09375l1.09375 0l0 1.09375l-1.09375 0zm0 4.609375l0 -1.09375l1.09375 0l0 1.09375l-1.09375 0zm9.37442 -0.703125q-0.546875 0.453125 -1.046875 0.640625q-0.484375 0.1875 -1.0625 0.1875q-0.9375 0 -1.453125 -0.453125q-0.5 -0.46875 -0.5 -1.171875q0 -0.421875 0.1875 -0.765625q0.203125 -0.34375 0.5 -0.546875q0.3125 -0.21875 0.703125 -0.328125q0.28125 -0.078125 0.859375 -0.140625q1.171875 -0.140625 1.71875 -0.34375q0.015625 -0.1875 0.015625 -0.25q0 -0.59375 -0.28125 -0.828125q-0.359375 -0.328125 -1.09375 -0.328125q-0.6875 0 -1.015625 0.234375q-0.3125 0.234375 -0.46875 0.84375l-0.953125 -0.125q0.125 -0.609375 0.421875 -0.984375q0.296875 -0.375 0.859375 -0.5625q0.5625 -0.203125 1.296875 -0.203125q0.734375 0 1.1875 0.171875q0.453125 0.171875 0.65625 0.4375q0.21875 0.25 0.3125 0.640625q0.046875 0.25 0.046875 0.90625l0 1.28125q0 1.34375 0.0625 1.703125q0.0625 0.359375 0.25 0.6875l-1.015625 0q-0.15625 -0.296875 -0.1875 -0.703125zm-0.09375 -2.15625q-0.515625 0.21875 -1.578125 0.359375q-0.59375 0.09375 -0.84375 0.203125q-0.234375 0.09375 -0.375 0.3125q-0.140625 0.203125 -0.140625 0.453125q0 0.390625 0.296875 0.65625q0.296875 0.25 0.859375 0.25q0.5625 0 0.984375 -0.25q0.4375 -0.25 0.65625 -0.671875q0.140625 -0.328125 0.140625 -0.96875l0 -0.34375zm2.2858734 2.859375l0 -5.703125l0.875 0l0 0.8125q0.625 -0.9375 1.8125 -0.9375q0.515625 0 0.953125 0.1875q0.4375 0.171875 0.640625 0.484375q0.21875 0.296875 0.3125 0.703125q0.046875 0.28125 0.046875 0.953125l0 3.5l-0.96875 0l0 -3.46875q0 -0.59375 -0.109375 -0.875q-0.109375 -0.296875 -0.40625 -0.46875q-0.28125 -0.1875 -0.671875 -0.1875q-0.609375 0 -1.0625 0.390625q-0.453125 0.390625 -0.453125 1.5l0 3.109375l-0.96875 0zm5.8952484 2.203125l-0.109375 -0.90625q0.3125 0.078125 0.546875 0.078125q0.328125 0 0.515625 -0.109375q0.203125 -0.109375 0.3125 -0.296875q0.09375 -0.140625 0.296875 -0.71875q0.03125 -0.078125 0.09375 -0.234375l-2.171875 -5.71875l1.046875 0l1.1875 3.296875q0.234375 0.640625 0.40625 1.328125q0.171875 -0.671875 0.40625 -1.296875l1.21875 -3.328125l0.96875 0l-2.171875 5.796875q-0.34375 0.9375 -0.546875 1.296875q-0.25 0.484375 -0.59375 0.703125q-0.328125 0.21875 -0.78125 0.21875q-0.28125 0 -0.625 -0.109375zm10.65625 -10.078125l1.046875 0l0 4.546875q0 1.1875 -0.28125 1.890625q-0.265625 0.703125 -0.96875 1.140625q-0.6875 0.4375 -1.828125 0.4375q-1.109375 0 -1.8125 -0.375q-0.703125 -0.390625 -1.015625 -1.109375q-0.296875 -0.734375 -0.296875 -1.984375l0 -4.546875l1.046875 0l0 4.546875q0 1.03125 0.1875 1.515625q0.1875 0.484375 0.65625 0.75q0.46875 0.25 1.140625 0.25q1.140625 0 1.625 -0.515625q0.5 -0.515625 0.5 -2.0l0 -4.546875zm2.5393524 7.875l0 -7.875l3.5 0q1.046875 0 1.59375 0.21875q0.546875 0.203125 0.875 0.75q0.328125 0.53125 0.328125 1.1875q0 0.828125 -0.546875 1.40625q-0.53125 0.578125 -1.671875 0.734375q0.421875 0.1875 0.625 0.390625q0.46875 0.421875 0.875 1.046875l1.359375 2.140625l-1.296875 0l-1.046875 -1.640625q-0.453125 -0.703125 -0.75 -1.078125q-0.296875 -0.375 -0.53125 -0.53125q-0.234375 -0.15625 -0.46875 -0.203125q-0.1875 -0.046875 -0.59375 -0.046875l-1.203125 0l0 3.5l-1.046875 0zm1.046875 -4.40625l2.234375 0q0.71875 0 1.125 -0.140625q0.40625 -0.140625 0.609375 -0.46875q0.203125 -0.328125 0.203125 -0.703125q0 -0.5625 -0.40625 -0.921875q-0.390625 -0.359375 -1.265625 -0.359375l-2.5 0l0 2.59375zm6.8206024 4.40625l0 -7.875l1.03125 0l0 7.875l-1.03125 0z" fill-rule="nonzero"></path><path fill="#000000" fill-opacity="0.0" d="m102.8196 51.501312l0 -10.834644" fill-rule="evenodd"></path><path stroke="#000000" stroke-width="1.0" stroke-linejoin="round" stroke-linecap="butt" d="m102.8196 51.501312l0 -10.834644" fill-rule="evenodd"></path><path fill="#ffffff" d="m96.756615 40.660854l6.0629883 -12.629919l6.062996 12.629919z" fill-rule="evenodd"></path><path stroke="#000000" stroke-width="1.0" stroke-linejoin="round" stroke-linecap="butt" d="m96.756615 40.660854l6.0629883 -12.629919l6.062996 12.629919z" fill-rule="evenodd"></path><path fill="#ffffff" d="m57.472748 1.007874l90.67717 0l0 27.023623l-90.67717 0z" fill-rule="evenodd"></path><path stroke="#000000" stroke-width="1.0" stroke-linejoin="round" stroke-linecap="butt" d="m57.472748 1.007874l90.67717 0l0 27.023623l-90.67717 0z" fill-rule="evenodd"></path><path fill="#000000" d="m79.82147 15.712811l1.53125 -0.078125q0.03125 0.73437405 0.265625 0.98437405q0.34375 0.421875 1.296875 0.421875q0.796875 0 1.15625 -0.28125q0.359375 -0.28125 0.359375 -0.6875q0 -0.35937405 -0.296875 -0.59374905q-0.203125 -0.171875 -1.125 -0.5625q-0.90625 -0.40625 -1.328125 -0.671875q-0.421875 -0.265625 -0.671875 -0.6875q-0.234375 -0.4375 -0.234375 -1.0q0 -1.0 0.71875 -1.65625q0.71875 -0.65625 2.078125 -0.65625q1.390625 0 2.140625 0.65625q0.765625 0.65625 0.84375 1.734375l-1.546875 0.0625q-0.0625 -0.5625 -0.421875 -0.859375q-0.34375 -0.296875 -1.015625 -0.296875q-0.671875 0 -0.96875 0.234375q-0.28125 0.234375 -0.28125 0.59375q0 0.34375 0.265625 0.5625q0.265625 0.21875 1.15625 0.609375q1.359375 0.59375 1.734375 0.953125q0.546875 0.53125 0.546875 1.375q0 1.046874 -0.828125 1.796874q-0.8125 0.734375 -2.28125 0.734375q-1.015625 0 -1.765625 -0.34375q-0.734375 -0.34375 -1.046875 -0.953125q-0.3125 -0.609375 -0.28125 -1.390624zm6.8576355 2.546874l1.640625 -7.874999l5.84375 0l-0.28125 1.3125l-4.21875 0l-0.375 1.796875l4.078125 0l-0.265625 1.3125l-4.078125 0l-0.5 2.140624l4.578125 0l-0.28125 1.3125l-6.140625 0zm7.1388855 0l1.640625 -7.874999l2.125 0q0.890625 0 1.125 0.03125q0.5 0.046875 0.875 0.203125q0.390625 0.140625 0.703125 0.421875q0.3125 0.265625 0.53125 0.65625q0.234375 0.375 0.359375 0.875q0.125 0.484375 0.125 1.078125q0 1.28125 -0.484375 2.265625q-0.484375 0.98437405 -1.21875 1.562499q-0.5625 0.453125 -1.453125 0.65625q-0.515625 0.125 -1.5625 0.125l-2.765625 0zm1.875 -1.265625l0.828125 0q0.890625 0 1.28125 -0.109375q0.40625 -0.109375 0.734375 -0.40625q0.484375 -0.4375 0.8125 -1.156249q0.328125 -0.734375 0.328125 -1.71875q0 -0.84375 -0.28125 -1.265625q-0.265625 -0.421875 -0.65625 -0.5625q-0.28125 -0.09375 -1.0 -0.09375l-0.9375 0l-1.109375 5.312499zm5.7737274 1.265625l1.65625 -7.874999l2.6875 0q0.875 0 1.21875 0.046875q0.578125 0.09375 0.984375 0.34375q0.40625 0.234375 0.609375 0.640625q0.21875 0.390625 0.21875 0.875q0 0.65625 -0.375 1.140625q-0.359375 0.484375 -1.125 0.734375q0.609375 0.15625 0.953125 0.59375q0.34375 0.421875 0.34375 0.953125q0 0.71874905 -0.40625 1.359374q-0.40625 0.625 -1.125 0.90625q-0.703125 0.28125 -1.921875 0.28125l-3.71875 0zm2.609375 -4.687499l1.234375 0q0.828125 0 1.1875 -0.125q0.375 -0.125 0.546875 -0.390625q0.1875 -0.265625 0.1875 -0.578125q0 -0.296875 -0.171875 -0.484375q-0.171875 -0.203125 -0.484375 -0.265625q-0.1875 -0.03125 -0.859375 -0.03125l-1.25 0l-0.390625 1.875zm-0.71875 3.421874l1.5625 0q0.984375 0 1.3125 -0.125q0.34375 -0.125 0.546875 -0.40625q0.203125 -0.296875 0.203125 -0.62499905q0 -0.390625 -0.296875 -0.640625q-0.296875 -0.265625 -0.96875 -0.265625l-1.9375 0l-0.421875 2.062499zm7.9768524 -2.828124l-1.5 -0.125q0.265625 -0.765625 0.90625 -1.1875q0.640625 -0.4375 1.703125 -0.4375q1.09375 0 1.609375 0.453125q0.53125 0.4375 0.53125 1.078125q0 0.25 -0.046875 0.546875q-0.03125 0.296875 -0.3125 1.531249q-0.21875 1.015625 -0.21875 1.421875q0 0.359375 0.125 0.8125l-1.5 0q-0.09375 -0.3125 -0.109375 -0.640625q-0.34375 0.375 -0.78125 0.578125q-0.4375 0.203125 -0.890625 0.203125q-0.703125 0 -1.171875 -0.46875q-0.453125 -0.46875 -0.453125 -1.203125q0 -0.81249905 0.5 -1.296874q0.515625 -0.484375 1.8125 -0.59375q1.109375 -0.09375 1.46875 -0.21875q0.109375 -0.328125 0.109375 -0.515625q0 -0.25 -0.203125 -0.40625q-0.203125 -0.171875 -0.59375 -0.171875q-0.40625 0 -0.65625 0.171875q-0.234375 0.15625 -0.328125 0.46875zm1.46875 1.4375q-0.140625 0.03125 -0.359375 0.0625q-1.171875 0.140625 -1.515625 0.40624905q-0.265625 0.203125 -0.265625 0.53125q0 0.265625 0.1875 0.453125q0.203125 0.1875 0.515625 0.1875q0.359375 0 0.65625 -0.171875q0.3125 -0.171875 0.46875 -0.4375q0.15625 -0.265625 0.28125 -0.82812405l0.03125 -0.203125zm2.0827484 1.062499l1.5 -0.234375q0.203125 0.46875 0.5 0.671875q0.296875 0.1875 0.796875 0.1875q0.53125 0 0.84375 -0.234375q0.21875 -0.15625 0.21875 -0.390625q0 -0.15625 -0.109375 -0.28125q-0.109375 -0.125 -0.640625 -0.296875q-1.390625 -0.45312405 -1.734375 -0.71874905q-0.515625 -0.421875 -0.515625 -1.09375q0 -0.6875 0.5 -1.171875q0.703125 -0.6875 2.09375 -0.6875q1.109375 0 1.671875 0.40625q0.5625 0.40625 0.703125 1.09375l-1.421875 0.25q-0.109375 -0.3125 -0.359375 -0.46875q-0.34375 -0.21875 -0.828125 -0.21875q-0.484375 0 -0.703125 0.171875q-0.203125 0.15625 -0.203125 0.359375q0 0.21875 0.21875 0.359375q0.125 0.09375 0.859375 0.296875q1.125 0.328125 1.515625 0.65625q0.53125 0.4375 0.53125 1.062499q0 0.8125 -0.6875 1.421875q-0.671875 0.59375 -1.921875 0.59375q-1.234375 0 -1.90625 -0.453125q-0.671875 -0.46875 -0.921875 -1.28125zm11.692123 -0.78124905l-3.875 0q0 0.09375 0 0.14062405q0 0.5625 0.3125 0.921875q0.328125 0.34375 0.796875 0.34375q0.765625 0 1.203125 -0.796875l1.375 0.234375q-0.390625 0.828125 -1.078125 1.25q-0.671875 0.421875 -1.5 0.421875q-1.15625 0 -1.875 -0.734375q-0.71875 -0.734375 -0.71875 -1.921874q0 -1.171875 0.65625 -2.09375q0.875 -1.234375 2.515625 -1.234375q1.046875 0 1.671875 0.65625q0.625 0.640625 0.625 1.8125q0 0.5625 -0.109375 1.0zm-1.3125 -0.9375q0.015625 -0.109375 0.015625 -0.15625q0 -0.640625 -0.296875 -0.953125q-0.28125 -0.3125 -0.75 -0.3125q-0.484375 0 -0.859375 0.359375q-0.375 0.359375 -0.515625 1.0625l2.40625 0z" fill-rule="nonzero"></path><path fill="#000000" fill-opacity="0.0" d="m148.52094 206.88591l95.46457 0l0 14.992126l-95.46457 0z" fill-rule="evenodd"></path><path fill="#000000" d="m157.58344 220.27823l2.078125 -10.03125l2.15625 0l-0.15625 0.75l-1.171875 0l-1.78125 8.53125l1.1875 0l-0.15625 0.75l-2.15625 0zm7.1950226 -4.234375l0.984375 0.09375q-0.375 1.078125 -1.046875 1.59375q-0.671875 0.515625 -1.53125 0.515625q-0.9375 0 -1.515625 -0.59375q-0.5625 -0.609375 -0.5625 -1.6875q0 -0.9375 0.359375 -1.828125q0.375 -0.90625 1.0625 -1.375q0.6875 -0.46875 1.578125 -0.46875q0.921875 0 1.453125 0.515625q0.546875 0.515625 0.546875 1.375l-0.96875 0.0625q0 -0.546875 -0.3125 -0.84375q-0.296875 -0.3125 -0.8125 -0.3125q-0.578125 0 -1.015625 0.375q-0.421875 0.359375 -0.671875 1.125q-0.25 0.75 -0.25 1.453125q0 0.71875 0.328125 1.09375q0.328125 0.359375 0.796875 0.359375q0.46875 0 0.90625 -0.359375q0.4375 -0.359375 0.671875 -1.09375zm1.390625 2.078125l1.65625 -7.875l0.96875 0l-0.625 3.03125q0.53125 -0.53125 1.0 -0.75q0.46875 -0.234375 0.96875 -0.234375q0.703125 0 1.09375 0.375q0.390625 0.359375 0.390625 0.984375q0 0.296875 -0.171875 1.09375l-0.703125 3.375l-0.96875 0l0.71875 -3.453125q0.15625 -0.75 0.15625 -0.953125q0 -0.265625 -0.1875 -0.4375q-0.1875 -0.1875 -0.5625 -0.1875q-0.515625 0 -1.0 0.28125q-0.484375 0.265625 -0.75 0.75q-0.265625 0.484375 -0.5 1.546875l-0.5 2.453125l-0.984375 0zm9.785873 -0.703125q-0.515625 0.421875 -0.984375 0.625q-0.46875 0.203125 -1.0 0.203125q-0.78125 0 -1.265625 -0.453125q-0.484375 -0.46875 -0.484375 -1.203125q0 -0.46875 0.21875 -0.828125q0.21875 -0.375 0.578125 -0.59375q0.359375 -0.234375 0.875 -0.328125q0.328125 -0.0625 1.234375 -0.09375q0.921875 -0.046875 1.328125 -0.203125q0.109375 -0.390625 0.109375 -0.65625q0 -0.34375 -0.25 -0.53125q-0.328125 -0.265625 -0.984375 -0.265625q-0.609375 0 -1.0 0.265625q-0.390625 0.265625 -0.5625 0.765625l-0.984375 -0.078125q0.296875 -0.859375 0.9375 -1.296875q0.65625 -0.453125 1.65625 -0.453125q1.0625 0 1.671875 0.5q0.484375 0.375 0.484375 0.984375q0 0.453125 -0.140625 1.046875l-0.3125 1.421875q-0.15625 0.671875 -0.15625 1.09375q0 0.28125 0.125 0.78125l-0.984375 0q-0.078125 -0.28125 -0.109375 -0.703125zm0.359375 -2.1875q-0.21875 0.078125 -0.453125 0.125q-0.21875 0.046875 -0.765625 0.09375q-0.859375 0.078125 -1.203125 0.1875q-0.34375 0.109375 -0.53125 0.375q-0.171875 0.25 -0.171875 0.546875q0 0.40625 0.28125 0.671875q0.28125 0.265625 0.796875 0.265625q0.484375 0 0.921875 -0.25q0.453125 -0.265625 0.703125 -0.71875q0.265625 -0.453125 0.421875 -1.296875zm1.7077484 2.890625l1.203125 -5.703125l0.875 0l-0.203125 1.0q0.5625 -0.59375 1.0625 -0.859375q0.5 -0.265625 1.03125 -0.265625q0.6875 0 1.078125 0.375q0.40625 0.375 0.40625 1.0q0 0.3125 -0.140625 1.0l-0.734375 3.453125l-0.96875 0l0.765625 -3.609375q0.109375 -0.53125 0.109375 -0.78125q0 -0.28125 -0.203125 -0.453125q-0.1875 -0.1875 -0.5625 -0.1875q-0.75 0 -1.328125 0.546875q-0.578125 0.53125 -0.859375 1.828125l-0.546875 2.65625l-0.984375 0zm5.8796234 0.515625l0.984375 0.09375q-0.015625 0.328125 0.078125 0.484375q0.09375 0.171875 0.296875 0.265625q0.25 0.125 0.671875 0.125q0.890625 0 1.265625 -0.453125q0.265625 -0.3125 0.46875 -1.34375l0.09375 -0.453125q-0.75 0.765625 -1.609375 0.765625q-0.859375 0 -1.453125 -0.625q-0.578125 -0.640625 -0.578125 -1.8125q0 -0.96875 0.453125 -1.765625q0.46875 -0.8125 1.09375 -1.21875q0.640625 -0.40625 1.3125 -0.40625q1.125 0 1.734375 1.0625l0.1875 -0.9375l0.890625 0l-1.140625 5.5q-0.1875 0.90625 -0.5 1.40625q-0.296875 0.515625 -0.84375 0.796875q-0.546875 0.28125 -1.265625 0.28125q-0.6875 0 -1.1875 -0.1875q-0.484375 -0.171875 -0.734375 -0.515625q-0.25 -0.328125 -0.25 -0.765625q0 -0.140625 0.03125 -0.296875zm1.21875 -3.046875q0 0.59375 0.109375 0.890625q0.15625 0.40625 0.453125 0.625q0.296875 0.21875 0.671875 0.21875q0.46875 0 0.9375 -0.328125q0.484375 -0.34375 0.765625 -1.046875q0.296875 -0.703125 0.296875 -1.34375q0 -0.703125 -0.390625 -1.109375q-0.390625 -0.421875 -0.953125 -0.421875q-0.359375 0 -0.703125 0.1875q-0.328125 0.1875 -0.609375 0.578125q-0.28125 0.390625 -0.4375 0.9375q-0.140625 0.546875 -0.140625 0.8125zm8.957748 0.59375l0.9375 0.09375q-0.203125 0.703125 -0.9375 1.34375q-0.734375 0.625 -1.75 0.625q-0.625 0 -1.15625 -0.28125q-0.53125 -0.296875 -0.8125 -0.859375q-0.28125 -0.5625 -0.28125 -1.265625q0 -0.9375 0.4375 -1.8125q0.4375 -0.890625 1.125 -1.3125q0.6875 -0.421875 1.484375 -0.421875q1.015625 0 1.625 0.640625q0.609375 0.625 0.609375 1.71875q0 0.421875 -0.0625 0.859375l-4.203125 0q-0.03125 0.171875 -0.03125 0.296875q0 0.796875 0.359375 1.21875q0.375 0.421875 0.90625 0.421875q0.5 0 0.984375 -0.328125q0.484375 -0.328125 0.765625 -0.9375zm-2.828125 -1.421875l3.203125 0q0 -0.140625 0 -0.203125q0 -0.734375 -0.375 -1.125q-0.359375 -0.390625 -0.9375 -0.390625q-0.609375 0 -1.125 0.4375q-0.515625 0.421875 -0.765625 1.28125zm5.6921234 5.515625l-2.140625 0l0.15625 -0.75l1.1875 0l1.78125 -8.53125l-1.1875 0l0.15625 -0.75l2.171875 0l-2.125 10.03125z" fill-rule="nonzero"></path><path fill="#000000" fill-opacity="0.0" d="m214.08421 207.94304l36.0 0l0 14.992126l-36.0 0z" fill-rule="evenodd"></path><path fill="#000000" d="m224.53995 215.28847q0 -1.390625 0.28125 -2.234375q0.296875 -0.859375 0.859375 -1.3125q0.578125 -0.46875 1.4375 -0.46875q0.625 0 1.09375 0.265625q0.484375 0.25 0.796875 0.734375q0.3125 0.46875 0.484375 1.171875q0.1875 0.6875 0.1875 1.84375q0 1.390625 -0.296875 2.25q-0.28125 0.84375 -0.84375 1.3125q-0.5625 0.46875 -1.421875 0.46875q-1.140625 0 -1.796875 -0.828125q-0.78125 -0.984375 -0.78125 -3.203125zm1.0 0q0 1.953125 0.453125 2.59375q0.453125 0.640625 1.125 0.640625q0.65625 0 1.109375 -0.640625q0.453125 -0.65625 0.453125 -2.59375q0 -1.9375 -0.453125 -2.578125q-0.453125 -0.640625 -1.125 -0.640625q-0.671875 0 -1.0625 0.5625q-0.5 0.71875 -0.5 2.65625zm5.4733734 3.890625l0 -1.09375l1.09375 0l0 1.09375l-1.09375 0zm2.9606476 0l0 -1.09375l1.09375 0l0 1.09375l-1.09375 0zm2.3043976 -6.421875l0.25 -0.765625q0.84375 0.296875 1.234375 0.515625q-0.09375 -0.96875 -0.109375 -1.34375l0.78125 0q-0.015625 0.53125 -0.125 1.34375q0.5625 -0.28125 1.265625 -0.515625l0.25 0.765625q-0.671875 0.21875 -1.328125 0.296875q0.328125 0.28125 0.921875 1.015625l-0.640625 0.453125q-0.3125 -0.421875 -0.75 -1.15625q-0.390625 0.765625 -0.6875 1.15625l-0.640625 -0.453125q0.625 -0.765625 0.890625 -1.015625q-0.6875 -0.140625 -1.3125 -0.296875z" fill-rule="nonzero"></path><path fill="#000000" fill-opacity="0.0" d="m148.16547 222.84251l245.38583 0" fill-rule="evenodd"></path><path stroke="#000000" stroke-width="1.0" stroke-linejoin="round" stroke-linecap="butt" d="m148.16547 222.84251l245.38583 0" fill-rule="evenodd"></path><path fill="#000000" fill-opacity="0.0" d="m148.52094 223.172l0 -28.409454" fill-rule="evenodd"></path><path stroke="#000000" stroke-width="1.0" stroke-linejoin="round" stroke-linecap="butt" d="m148.52094 223.172l0 -28.409454" fill-rule="evenodd"></path><path fill="#000000" fill-opacity="0.0" d="m9.105529 180.80037l384.44095 0" fill-rule="evenodd"></path><path stroke="#000000" stroke-width="1.0" stroke-linejoin="round" stroke-linecap="butt" d="m9.105529 180.80037l384.44095 0" fill-rule="evenodd"></path><path fill="#000000" fill-opacity="0.0" d="m9.54824 166.43045l87.2126 0l0 14.992126l-87.2126 0z" fill-rule="evenodd"></path><path fill="#000000" d="m19.251366 177.6665l0 -7.875l0.96875 0l0 7.875l-0.96875 0zm2.3987274 -6.765625l0 -1.109375l0.96875 0l0 1.109375l-0.96875 0zm0 6.765625l0 -5.703125l0.96875 0l0 5.703125l-0.96875 0zm1.9768524 -1.703125l0.953125 -0.15625q0.078125 0.578125 0.4375 0.890625q0.375 0.296875 1.03125 0.296875q0.671875 0 0.984375 -0.265625q0.328125 -0.265625 0.328125 -0.640625q0 -0.328125 -0.28125 -0.515625q-0.203125 -0.125 -0.984375 -0.328125q-1.0625 -0.265625 -1.484375 -0.453125q-0.40625 -0.203125 -0.625 -0.546875q-0.203125 -0.34375 -0.203125 -0.765625q0 -0.390625 0.171875 -0.703125q0.171875 -0.328125 0.484375 -0.546875q0.21875 -0.171875 0.609375 -0.28125q0.390625 -0.109375 0.828125 -0.109375q0.671875 0 1.171875 0.1875q0.515625 0.1875 0.75 0.53125q0.25 0.328125 0.34375 0.875l-0.9375 0.125q-0.078125 -0.4375 -0.390625 -0.671875q-0.296875 -0.25 -0.859375 -0.25q-0.671875 0 -0.953125 0.21875q-0.28125 0.21875 -0.28125 0.515625q0 0.1875 0.109375 0.328125q0.125 0.15625 0.375 0.265625q0.140625 0.046875 0.859375 0.25q1.015625 0.265625 1.421875 0.4375q0.40625 0.171875 0.640625 0.515625q0.234375 0.328125 0.234375 0.828125q0 0.484375 -0.28125 0.90625q-0.28125 0.421875 -0.8125 0.65625q-0.53125 0.234375 -1.203125 0.234375q-1.109375 0 -1.703125 -0.453125q-0.578125 -0.46875 -0.734375 -1.375zm7.828125 0.84375l0.125 0.84375q-0.40625 0.09375 -0.71875 0.09375q-0.53125 0 -0.828125 -0.171875q-0.28125 -0.171875 -0.40625 -0.4375q-0.109375 -0.265625 -0.109375 -1.140625l0 -3.28125l-0.71875 0l0 -0.75l0.71875 0l0 -1.40625l0.953125 -0.59375l0 2.0l0.984375 0l0 0.75l-0.984375 0l0 3.34375q0 0.40625 0.046875 0.53125q0.0625 0.109375 0.171875 0.1875q0.125 0.0625 0.328125 0.0625q0.171875 0 0.4375 -0.03125zm0.6481476 -2.96875q0 -1.96875 1.046875 -3.078125q1.0625 -1.109375 2.71875 -1.109375q1.09375 0 1.96875 0.53125q0.875 0.515625 1.328125 1.453125q0.46875 0.921875 0.46875 2.109375q0 1.1875 -0.484375 2.140625q-0.484375 0.9375 -1.375 1.4375q-0.875 0.484375 -1.90625 0.484375q-1.109375 0 -1.984375 -0.53125q-0.875 -0.546875 -1.328125 -1.46875q-0.453125 -0.9375 -0.453125 -1.96875zm1.078125 0.015625q0 1.421875 0.765625 2.25q0.765625 0.8125 1.921875 0.8125q1.171875 0 1.921875 -0.828125q0.765625 -0.828125 0.765625 -2.359375q0 -0.953125 -0.328125 -1.671875q-0.3125 -0.71875 -0.9375 -1.109375q-0.625 -0.390625 -1.40625 -0.390625q-1.109375 0 -1.90625 0.765625q-0.796875 0.75 -0.796875 2.53125zm7.6325226 3.8125l0 -4.953125l-0.84375 0l0 -0.75l0.84375 0l0 -0.609375q0 -0.578125 0.109375 -0.859375q0.140625 -0.375 0.484375 -0.609375q0.359375 -0.234375 0.984375 -0.234375q0.40625 0 0.90625 0.109375l-0.140625 0.84375q-0.3125 -0.0625 -0.578125 -0.0625q-0.4375 0 -0.625 0.1875q-0.171875 0.1875 -0.171875 0.703125l0 0.53125l1.109375 0l0 0.75l-1.109375 0l0 4.953125l-0.96875 0zm8.476273 -2.765625l1.046875 0.265625q-0.328125 1.28125 -1.1875 1.96875q-0.84375 0.671875 -2.078125 0.671875q-1.28125 0 -2.078125 -0.515625q-0.796875 -0.53125 -1.21875 -1.515625q-0.40625 -0.984375 -0.40625 -2.109375q0 -1.21875 0.46875 -2.140625q0.46875 -0.921875 1.328125 -1.390625q0.875 -0.484375 1.921875 -0.484375q1.1875 0 1.984375 0.609375q0.8125 0.59375 1.125 1.6875l-1.03125 0.25q-0.265625 -0.859375 -0.796875 -1.25q-0.515625 -0.390625 -1.296875 -0.390625q-0.921875 0 -1.53125 0.4375q-0.609375 0.421875 -0.859375 1.15625q-0.234375 0.734375 -0.234375 1.515625q0 1.0 0.28125 1.75q0.296875 0.75 0.90625 1.125q0.625 0.375 1.34375 0.375q0.875 0 1.484375 -0.5q0.609375 -0.515625 0.828125 -1.515625zm1.9456024 2.765625l0 -7.875l0.96875 0l0 2.828125q0.6875 -0.78125 1.71875 -0.78125q0.625 0 1.09375 0.25q0.46875 0.25 0.671875 0.6875q0.203125 0.4375 0.203125 1.28125l0 3.609375l-0.96875 0l0 -3.609375q0 -0.734375 -0.3125 -1.0625q-0.3125 -0.328125 -0.890625 -0.328125q-0.4375 0 -0.8125 0.21875q-0.375 0.21875 -0.546875 0.609375q-0.15625 0.375 -0.15625 1.046875l0 3.125l-0.96875 0zm9.660873 -0.703125q-0.546875 0.453125 -1.046875 0.640625q-0.484375 0.1875 -1.0625 0.1875q-0.9375 0 -1.453125 -0.453125q-0.5 -0.46875 -0.5 -1.171875q0 -0.421875 0.1875 -0.765625q0.203125 -0.34375 0.5 -0.546875q0.3125 -0.21875 0.703125 -0.328125q0.28125 -0.078125 0.859375 -0.140625q1.171875 -0.140625 1.71875 -0.34375q0.015625 -0.1875 0.015625 -0.25q0 -0.59375 -0.28125 -0.828125q-0.359375 -0.328125 -1.09375 -0.328125q-0.6875 0 -1.015625 0.234375q-0.3125 0.234375 -0.46875 0.84375l-0.953125 -0.125q0.125 -0.609375 0.421875 -0.984375q0.296875 -0.375 0.859375 -0.5625q0.5625 -0.203125 1.296875 -0.203125q0.734375 0 1.1875 0.171875q0.453125 0.171875 0.65625 0.4375q0.21875 0.25 0.3125 0.640625q0.046875 0.25 0.046875 0.90625l0 1.28125q0 1.34375 0.0625 1.703125q0.0625 0.359375 0.25 0.6875l-1.015625 0q-0.15625 -0.296875 -0.1875 -0.703125zm-0.09375 -2.15625q-0.515625 0.21875 -1.578125 0.359375q-0.59375 0.09375 -0.84375 0.203125q-0.234375 0.09375 -0.375 0.3125q-0.140625 0.203125 -0.140625 0.453125q0 0.390625 0.296875 0.65625q0.296875 0.25 0.859375 0.25q0.5625 0 0.984375 -0.25q0.4375 -0.25 0.65625 -0.671875q0.140625 -0.328125 0.140625 -0.96875l0 -0.34375zm2.2858734 2.859375l0 -5.703125l0.875 0l0 0.8125q0.625 -0.9375 1.8125 -0.9375q0.515625 0 0.953125 0.1875q0.4375 0.171875 0.640625 0.484375q0.21875 0.296875 0.3125 0.703125q0.046875 0.28125 0.046875 0.953125l0 3.5l-0.96875 0l0 -3.46875q0 -0.59375 -0.109375 -0.875q-0.109375 -0.296875 -0.40625 -0.46875q-0.28125 -0.1875 -0.671875 -0.1875q-0.609375 0 -1.0625 0.390625q-0.453125 0.390625 -0.453125 1.5l0 3.109375l-0.96875 0zm5.7546234 0.46875l0.9375 0.140625q0.0625 0.4375 0.328125 0.640625q0.359375 0.265625 0.984375 0.265625q0.671875 0 1.03125 -0.265625q0.375 -0.265625 0.5 -0.75q0.078125 -0.296875 0.078125 -1.25q-0.640625 0.75 -1.59375 0.75q-1.171875 0 -1.8125 -0.84375q-0.640625 -0.859375 -0.640625 -2.046875q0 -0.8125 0.296875 -1.5q0.296875 -0.6875 0.84375 -1.0625q0.5625 -0.375 1.328125 -0.375q1.0 0 1.65625 0.8125l0 -0.6875l0.890625 0l0 4.921875q0 1.34375 -0.265625 1.890625q-0.265625 0.5625 -0.859375 0.875q-0.59375 0.328125 -1.453125 0.328125q-1.015625 0 -1.640625 -0.46875q-0.625 -0.453125 -0.609375 -1.375zm0.796875 -3.421875q0 1.125 0.4375 1.640625q0.453125 0.515625 1.125 0.515625q0.671875 0 1.125 -0.515625q0.453125 -0.515625 0.453125 -1.609375q0 -1.046875 -0.46875 -1.578125q-0.46875 -0.53125 -1.125 -0.53125q-0.640625 0 -1.09375 0.53125q-0.453125 0.515625 -0.453125 1.546875zm9.207748 1.109375l1.0 0.125q-0.234375 0.875 -0.875 1.359375q-0.640625 0.484375 -1.625 0.484375q-1.25 0 -1.984375 -0.765625q-0.734375 -0.765625 -0.734375 -2.15625q0 -1.453125 0.734375 -2.234375q0.75 -0.796875 1.921875 -0.796875q1.15625 0 1.875 0.78125q0.71875 0.765625 0.71875 2.1875q0 0.078125 0 0.25l-4.25 0q0.046875 0.9375 0.515625 1.4375q0.484375 0.5 1.203125 0.5q0.53125 0 0.90625 -0.265625q0.375 -0.28125 0.59375 -0.90625zm-3.171875 -1.5625l3.1875 0q-0.0625 -0.71875 -0.359375 -1.078125q-0.46875 -0.546875 -1.203125 -0.546875q-0.671875 0 -1.125 0.453125q-0.453125 0.4375 -0.5 1.171875zm4.8171234 1.703125l0.953125 -0.15625q0.078125 0.578125 0.4375 0.890625q0.375 0.296875 1.03125 0.296875q0.671875 0 0.984375 -0.265625q0.328125 -0.265625 0.328125 -0.640625q0 -0.328125 -0.28125 -0.515625q-0.203125 -0.125 -0.984375 -0.328125q-1.0625 -0.265625 -1.484375 -0.453125q-0.40625 -0.203125 -0.625 -0.546875q-0.203125 -0.34375 -0.203125 -0.765625q0 -0.390625 0.171875 -0.703125q0.171875 -0.328125 0.484375 -0.546875q0.21875 -0.171875 0.609375 -0.28125q0.390625 -0.109375 0.828125 -0.109375q0.671875 0 1.171875 0.1875q0.515625 0.1875 0.75 0.53125q0.25 0.328125 0.34375 0.875l-0.9375 0.125q-0.078125 -0.4375 -0.390625 -0.671875q-0.296875 -0.25 -0.859375 -0.25q-0.671875 0 -0.953125 0.21875q-0.28125 0.21875 -0.28125 0.515625q0 0.1875 0.109375 0.328125q0.125 0.15625 0.375 0.265625q0.140625 0.046875 0.859375 0.25q1.015625 0.265625 1.421875 0.4375q0.40625 0.171875 0.640625 0.515625q0.234375 0.328125 0.234375 0.828125q0 0.484375 -0.28125 0.90625q-0.28125 0.421875 -0.8125 0.65625q-0.53125 0.234375 -1.203125 0.234375q-1.109375 0 -1.703125 -0.453125q-0.578125 -0.46875 -0.734375 -1.375z" fill-rule="nonzero"></path><path fill="#000000" fill-opacity="0.0" d="m107.153885 166.42003l38.204727 0l0 14.992126l-38.204727 0z" fill-rule="evenodd"></path><path fill="#000000" d="m119.30254 173.76547q0 -1.390625 0.28125 -2.234375q0.296875 -0.859375 0.859375 -1.3125q0.578125 -0.46875 1.4375 -0.46875q0.625 0 1.09375 0.265625q0.48438263 0.25 0.7968826 0.734375q0.3125 0.46875 0.484375 1.171875q0.1875 0.6875 0.1875 1.84375q0 1.390625 -0.296875 2.25q-0.28125 0.84375 -0.84375 1.3125q-0.5625076 0.46875 -1.4218826 0.46875q-1.140625 0 -1.796875 -0.828125q-0.78125 -0.984375 -0.78125 -3.203125zm1.0 0q0 1.953125 0.453125 2.59375q0.453125 0.640625 1.125 0.640625q0.65625 0 1.109375 -0.640625q0.45313263 -0.65625 0.45313263 -2.59375q0 -1.9375 -0.45313263 -2.578125q-0.453125 -0.640625 -1.125 -0.640625q-0.671875 0 -1.0625 0.5625q-0.5 0.71875 -0.5 2.65625zm5.457756 3.890625l0 -1.09375l1.09375 0l0 1.09375q0 0.609375 -0.21875 0.984375q-0.203125 0.375 -0.671875 0.578125l-0.28125 -0.421875q0.3125 -0.125 0.453125 -0.390625q0.15625 -0.265625 0.171875 -0.75l-0.546875 0zm6.0700226 0l-0.96875 0l0 -6.15625q-0.34375 0.328125 -0.90625 0.671875q-0.5625 0.328125 -1.015625 0.484375l0 -0.9375q0.8125 -0.375 1.40625 -0.90625q0.609375 -0.546875 0.859375 -1.0625l0.625 0l0 7.90625z" fill-rule="nonzero"></path><path fill="#000000" d="m4.7763815 148.99724l4.771654 -5.0551147l4.771653 5.0551147l-4.771653 5.0551147z" fill-rule="evenodd"></path><path stroke="#000000" stroke-width="2.0" stroke-linejoin="round" stroke-linecap="butt" d="m4.7763815 148.99724l4.771654 -5.0551147l4.771653 5.0551147l-4.771653 5.0551147z" fill-rule="evenodd"></path><path fill="#000000" d="m143.74928 200.81767l4.771652 -5.05513l4.771652 5.05513l-4.771652 5.0551147z" fill-rule="evenodd"></path><path stroke="#000000" stroke-width="2.0" stroke-linejoin="round" stroke-linecap="butt" d="m143.74928 200.81767l4.771652 -5.05513l4.771652 5.05513l-4.771652 5.0551147z" fill-rule="evenodd"></path><path fill="#ffffff" d="m137.49863 167.7258l179.62204 0l0 27.02362l-179.62204 0z" fill-rule="evenodd"></path><path stroke="#000000" stroke-width="1.0" stroke-linejoin="round" stroke-linecap="butt" d="m137.49863 167.7258l179.62204 0l0 27.02362l-179.62204 0z" fill-rule="evenodd"></path><path fill="#000000" d="m190.26074 184.97762l0 -7.8125l1.59375 0l0 6.484375l3.953125 0l0 1.328125l-5.546875 0zm6.462387 -6.484375l0 -1.390625l1.5 0l0 1.390625l-1.5 0zm0 6.484375l0 -5.703125l1.5 0l0 5.703125l-1.5 0zm2.4293976 -1.625l1.5 -0.234375q0.109375 0.4375 0.390625 0.671875q0.296875 0.21875 0.828125 0.21875q0.59375 0 0.890625 -0.203125q0.203125 -0.15625 0.203125 -0.40625q0 -0.171875 -0.109375 -0.28125q-0.125 -0.109375 -0.515625 -0.203125q-1.8125 -0.40625 -2.3125 -0.734375q-0.671875 -0.46875 -0.671875 -1.28125q0 -0.75 0.578125 -1.25q0.59375 -0.5 1.828125 -0.5q1.171875 0 1.734375 0.375q0.5625 0.375 0.78125 1.125l-1.421875 0.265625q-0.09375 -0.328125 -0.34375 -0.5q-0.25 -0.1875 -0.734375 -0.1875q-0.59375 0 -0.84375 0.171875q-0.171875 0.109375 -0.171875 0.296875q0 0.171875 0.140625 0.28125q0.203125 0.15625 1.40625 0.4375q1.21875 0.265625 1.6875 0.65625q0.484375 0.40625 0.484375 1.125q0 0.78125 -0.65625 1.34375q-0.65625 0.5625 -1.953125 0.5625q-1.15625 0 -1.84375 -0.46875q-0.671875 -0.46875 -0.875 -1.28125zm9.067123 -4.078125l0 1.203125l-1.03125 0l0 2.296875q0 0.703125 0.03125 0.828125q0.03125 0.109375 0.125 0.1875q0.109375 0.0625 0.265625 0.0625q0.203125 0 0.609375 -0.140625l0.125 1.171875q-0.53125 0.21875 -1.1875 0.21875q-0.421875 0 -0.75 -0.125q-0.328125 -0.140625 -0.484375 -0.359375q-0.140625 -0.21875 -0.203125 -0.59375q-0.046875 -0.265625 -0.046875 -1.0625l0 -2.484375l-0.6875 0l0 -1.203125l0.6875 0l0 -1.140625l1.515625 -0.875l0 2.015625l1.03125 0zm0.6267395 1.8125q0 -1.203125 0.359375 -2.015625q0.265625 -0.609375 0.71875 -1.078125q0.46875 -0.484375 1.03125 -0.71875q0.734375 -0.3125 1.6875 -0.3125q1.75 0 2.78125 1.09375q1.046875 1.078125 1.046875 3.0q0 1.90625 -1.03125 2.984375q-1.03125 1.078125 -2.765625 1.078125q-1.765625 0 -2.796875 -1.078125q-1.03125 -1.078125 -1.03125 -2.953125zm1.625 -0.046875q0 1.328125 0.625 2.03125q0.625 0.6875 1.5625 0.6875q0.953125 0 1.5625 -0.6875q0.609375 -0.6875 0.609375 -2.0625q0 -1.34375 -0.59375 -2.015625q-0.59375 -0.671875 -1.578125 -0.671875q-0.984375 0 -1.59375 0.6875q-0.59375 0.671875 -0.59375 2.03125zm6.3043976 -1.765625l0.84375 0l0 -0.4375q0 -0.71875 0.140625 -1.0625q0.15625 -0.359375 0.5625 -0.578125q0.421875 -0.234375 1.046875 -0.234375q0.65625 0 1.265625 0.203125l-0.203125 1.046875q-0.359375 -0.078125 -0.6875 -0.078125q-0.328125 0 -0.484375 0.15625q-0.140625 0.140625 -0.140625 0.578125l0 0.40625l1.140625 0l0 1.1875l-1.140625 0l0 4.515625l-1.5 0l0 -4.515625l-0.84375 0l0 -1.1875zm9.2673645 2.8125l1.53125 0.484375q-0.34375 1.28125 -1.171875 1.921875q-0.828125 0.625 -2.09375 0.625q-1.5625 0 -2.578125 -1.078125q-1.015625 -1.078125 -1.015625 -2.9375q0 -1.953125 1.015625 -3.046875q1.015625 -1.09375 2.671875 -1.09375q1.453125 0 2.34375 0.859375q0.546875 0.5 0.8125 1.453125l-1.578125 0.375q-0.140625 -0.609375 -0.578125 -0.96875q-0.4375 -0.359375 -1.078125 -0.359375q-0.875 0 -1.421875 0.640625q-0.546875 0.625 -0.546875 2.03125q0 1.484375 0.53125 2.125q0.546875 0.640625 1.40625 0.640625q0.640625 0 1.09375 -0.40625q0.453125 -0.40625 0.65625 -1.265625zm4.1487274 -4.984375l0 2.890625q0.734375 -0.84375 1.75 -0.84375q0.515625 0 0.921875 0.1875q0.421875 0.1875 0.640625 0.5q0.21875 0.296875 0.296875 0.671875q0.078125 0.359375 0.078125 1.125l0 3.34375l-1.515625 0l0 -3.015625q0 -0.890625 -0.09375 -1.125q-0.078125 -0.25 -0.296875 -0.390625q-0.21875 -0.140625 -0.546875 -0.140625q-0.375 0 -0.671875 0.1875q-0.296875 0.171875 -0.4375 0.546875q-0.125 0.359375 -0.125 1.078125l0 2.859375l-1.515625 0l0 -7.875l1.515625 0zm6.134262 3.90625l-1.375 -0.25q0.234375 -0.8125 0.796875 -1.203125q0.5625 -0.40625 1.671875 -0.40625q1.015625 0 1.5 0.234375q0.5 0.234375 0.703125 0.609375q0.203125 0.359375 0.203125 1.34375l-0.015625 1.765625q0 0.75 0.0625 1.109375q0.078125 0.359375 0.28125 0.765625l-1.5 0q-0.0625 -0.15625 -0.140625 -0.453125q-0.03125 -0.125 -0.046875 -0.171875q-0.390625 0.375 -0.84375 0.5625q-0.4375 0.1875 -0.9375 0.1875q-0.875 0 -1.390625 -0.46875q-0.5 -0.484375 -0.5 -1.21875q0 -0.484375 0.234375 -0.859375q0.234375 -0.375 0.640625 -0.578125q0.421875 -0.203125 1.203125 -0.359375q1.0625 -0.1875 1.46875 -0.359375l0 -0.15625q0 -0.4375 -0.21875 -0.609375q-0.21875 -0.1875 -0.8125 -0.1875q-0.390625 0 -0.625 0.15625q-0.21875 0.15625 -0.359375 0.546875zm2.015625 1.234375q-0.296875 0.09375 -0.921875 0.234375q-0.625 0.125 -0.8125 0.25q-0.296875 0.21875 -0.296875 0.53125q0 0.328125 0.234375 0.5625q0.234375 0.21875 0.59375 0.21875q0.40625 0 0.78125 -0.265625q0.28125 -0.203125 0.359375 -0.5q0.0625 -0.1875 0.0625 -0.734375l0 -0.296875zm7.9733734 2.734375l-1.515625 0l0 -2.90625q0 -0.921875 -0.09375 -1.1875q-0.09375 -0.28125 -0.3125 -0.421875q-0.21875 -0.15625 -0.53125 -0.15625q-0.390625 0 -0.703125 0.21875q-0.3125 0.203125 -0.4375 0.5625q-0.109375 0.34375 -0.109375 1.3125l0 2.578125l-1.5 0l0 -5.703125l1.40625 0l0 0.84375q0.734375 -0.96875 1.875 -0.96875q0.5 0 0.90625 0.1875q0.421875 0.171875 0.625 0.453125q0.21875 0.265625 0.296875 0.625q0.09375 0.359375 0.09375 1.015625l0 3.546875zm1.1811371 0.375l1.71875 0.203125q0.046875 0.3125 0.203125 0.421875q0.203125 0.15625 0.671875 0.15625q0.59375 0 0.890625 -0.171875q0.1875 -0.125 0.296875 -0.375q0.0625 -0.203125 0.0625 -0.703125l0 -0.828125q-0.671875 0.921875 -1.703125 0.921875q-1.140625 0 -1.8125 -0.96875q-0.53125 -0.765625 -0.53125 -1.921875q0 -1.421875 0.6875 -2.171875q0.6875 -0.765625 1.71875 -0.765625q1.0625 0 1.75 0.921875l0 -0.796875l1.40625 0l0 5.125q0 1.0 -0.171875 1.5q-0.15625 0.5 -0.46875 0.78125q-0.296875 0.296875 -0.796875 0.453125q-0.5 0.15625 -1.265625 0.15625q-1.453125 0 -2.0625 -0.5q-0.609375 -0.484375 -0.609375 -1.25q0 -0.078125 0.015625 -0.1875zm1.34375 -3.34375q0 0.90625 0.34375 1.328125q0.359375 0.421875 0.875 0.421875q0.546875 0 0.921875 -0.421875q0.390625 -0.4375 0.390625 -1.296875q0 -0.875 -0.375 -1.296875q-0.359375 -0.4375 -0.90625 -0.4375q-0.546875 0 -0.90625 0.421875q-0.34375 0.421875 -0.34375 1.28125zm8.603027 1.15625l1.5 0.25q-0.28125 0.828125 -0.90625 1.265625q-0.625 0.421875 -1.578125 0.421875q-1.4843903 0 -2.2031403 -0.96875q-0.5625 -0.78125 -0.5625 -1.96875q0 -1.421875 0.734375 -2.21875q0.75 -0.796875 1.8906403 -0.796875q1.265625 0 2.0 0.84375q0.734375 0.828125 0.703125 2.5625l-3.7812653 0q0.015625 0.671875 0.359375 1.046875q0.359375 0.375 0.87501526 0.375q0.359375 0 0.59375 -0.1875q0.25 -0.203125 0.375 -0.625zm0.078125 -1.53125q-0.015625 -0.65625 -0.34375 -0.984375q-0.3125 -0.34375 -0.765625 -0.34375q-0.50001526 0 -0.82814026 0.359375q-0.3125 0.359375 -0.3125 0.96875l2.2500153 0zm2.0202332 1.71875l1.5 -0.234375q0.109375 0.4375 0.390625 0.671875q0.296875 0.21875 0.828125 0.21875q0.59375 0 0.890625 -0.203125q0.203125 -0.15625 0.203125 -0.40625q0 -0.171875 -0.109375 -0.28125q-0.125 -0.109375 -0.515625 -0.203125q-1.8125 -0.40625 -2.3125 -0.734375q-0.671875 -0.46875 -0.671875 -1.28125q0 -0.75 0.578125 -1.25q0.59375 -0.5 1.828125 -0.5q1.171875 0 1.734375 0.375q0.5625 0.375 0.78125 1.125l-1.421875 0.265625q-0.09375 -0.328125 -0.34375 -0.5q-0.25 -0.1875 -0.734375 -0.1875q-0.59375 0 -0.84375 0.171875q-0.171875 0.109375 -0.171875 0.296875q0 0.171875 0.140625 0.28125q0.203125 0.15625 1.40625 0.4375q1.21875 0.265625 1.6875 0.65625q0.484375 0.40625 0.484375 1.125q0 0.78125 -0.65625 1.34375q-0.65625 0.5625 -1.953125 0.5625q-1.15625 0 -1.84375 -0.46875q-0.671875 -0.46875 -0.875 -1.28125z" fill-rule="nonzero"></path><path fill="#ffffff" d="m245.12332 210.02625l137.29135 0l0 25.606308l-137.29135 0z" fill-rule="evenodd"></path><path stroke="#000000" stroke-width="1.0" stroke-linejoin="round" stroke-linecap="butt" d="m245.12332 210.02625l137.29135 0l0 25.606308l-137.29135 0z" fill-rule="evenodd"></path><path fill="#000000" d="m300.38705 223.72565l1.625 0.25q-0.46875 1.328125 -1.4375 2.03125q-0.953125 0.703125 -2.234375 0.703125q-1.4375 0 -2.25 -0.859375q-0.8125 -0.875 -0.8125 -2.53125q0 -1.34375 0.53125 -2.453125q0.546875 -1.125 1.515625 -1.71875q0.96875 -0.59375 2.109375 -0.59375q1.28125 0 2.0625 0.6875q0.796875 0.6875 0.9375 1.875l-1.546875 0.140625q-0.140625 -0.6875 -0.515625 -0.984375q-0.359375 -0.3125 -0.96875 -0.3125q-0.671875 0 -1.265625 0.40625q-0.578125 0.40625 -0.921875 1.28125q-0.34375 0.859375 -0.34375 1.71875q0 0.953125 0.453125 1.46875q0.453125 0.515625 1.125 0.515625q0.625 0 1.140625 -0.40625q0.53125 -0.40625 0.796875 -1.21875zm3.5393372 2.84375l-1.53125 0l1.640625 -7.875l1.546875 0l-0.59375 2.796875q0.515625 -0.40625 0.96875 -0.578125q0.453125 -0.1875 0.96875 -0.1875q0.6875 0 1.09375 0.40625q0.40625 0.390625 0.40625 1.03125q0 0.34375 -0.15625 1.078125l-0.6875 3.328125l-1.546875 0l0.71875 -3.40625q0.109375 -0.546875 0.109375 -0.703125q0 -0.28125 -0.1875 -0.453125q-0.171875 -0.171875 -0.46875 -0.171875q-0.390625 0 -0.75 0.265625q-0.453125 0.359375 -0.703125 0.875q-0.125 0.28125 -0.359375 1.328125l-0.46875 2.265625zm7.1186523 -4.09375l-1.5 -0.125q0.265625 -0.765625 0.90625 -1.1875q0.640625 -0.4375 1.703125 -0.4375q1.09375 0 1.609375 0.453125q0.53125 0.4375 0.53125 1.078125q0 0.25 -0.046875 0.546875q-0.03125 0.296875 -0.3125 1.53125q-0.21875 1.015625 -0.21875 1.421875q0 0.359375 0.125 0.8125l-1.5 0q-0.09375 -0.3125 -0.109375 -0.640625q-0.34375 0.375 -0.78125 0.578125q-0.4375 0.203125 -0.890625 0.203125q-0.703125 0 -1.171875 -0.46875q-0.453125 -0.46875 -0.453125 -1.203125q0 -0.8125 0.5 -1.296875q0.515625 -0.484375 1.8125 -0.59375q1.109375 -0.09375 1.46875 -0.21875q0.109375 -0.328125 0.109375 -0.515625q0 -0.25 -0.203125 -0.40625q-0.203125 -0.171875 -0.59375 -0.171875q-0.40625 0 -0.65625 0.171875q-0.234375 0.15625 -0.328125 0.46875zm1.46875 1.4375q-0.140625 0.03125 -0.359375 0.0625q-1.171875 0.140625 -1.515625 0.40625q-0.265625 0.203125 -0.265625 0.53125q0 0.265625 0.1875 0.453125q0.203125 0.1875 0.515625 0.1875q0.359375 0 0.65625 -0.171875q0.3125 -0.171875 0.46875 -0.4375q0.15625 -0.265625 0.28125 -0.828125l0.03125 -0.203125zm3.5046082 -3.046875l1.453125 0l-0.140625 0.734375q0.546875 -0.46875 1.015625 -0.671875q0.484375 -0.203125 1.0 -0.203125q0.703125 0 1.109375 0.40625q0.40625 0.40625 0.40625 1.078125q0 0.296875 -0.171875 1.125l-0.671875 3.234375l-1.546875 0l0.6875 -3.234375q0.140625 -0.734375 0.140625 -0.875q0 -0.296875 -0.171875 -0.453125q-0.171875 -0.171875 -0.484375 -0.171875q-0.34375 0 -0.765625 0.28125q-0.40625 0.28125 -0.640625 0.75q-0.171875 0.328125 -0.375 1.359375l-0.5 2.34375l-1.53125 0l1.1875 -5.703125zm5.2124023 6.0l1.625 0.234375q0 0.25 0.078125 0.375q0.09375 0.125 0.265625 0.21875q0.1875 0.09375 0.484375 0.09375q0.5 0 0.796875 -0.203125q0.21875 -0.140625 0.359375 -0.484375q0.078125 -0.203125 0.21875 -0.90625l0.046875 -0.265625q-0.796875 0.65625 -1.65625 0.65625q-0.828125 0 -1.375 -0.578125q-0.53125 -0.59375 -0.53125 -1.734375q0 -1.0 0.359375 -1.84375q0.375 -0.84375 1.03125 -1.265625q0.65625 -0.4375 1.34375 -0.4375q0.578125 0 1.046875 0.3125q0.46875 0.296875 0.734375 0.84375l0.21875 -1.015625l1.4375 0l-0.984375 4.75q-0.234375 1.140625 -0.40625 1.625q-0.171875 0.5 -0.390625 0.78125q-0.203125 0.296875 -0.53125 0.484375q-0.328125 0.203125 -0.78125 0.28125q-0.4375 0.09375 -0.96875 0.09375q-1.203125 0 -1.828125 -0.421875q-0.609375 -0.40625 -0.609375 -1.359375q0 -0.109375 0.015625 -0.234375zm1.8125 -2.75q0 0.640625 0.296875 0.984375q0.296875 0.34375 0.734375 0.34375q0.40625 0 0.78125 -0.296875q0.375 -0.3125 0.578125 -0.875q0.203125 -0.5625 0.203125 -1.09375q0 -0.609375 -0.328125 -0.96875q-0.328125 -0.375 -0.765625 -0.375q-0.40625 0 -0.75 0.328125q-0.34375 0.328125 -0.578125 1.0q-0.171875 0.53125 -0.171875 0.953125zm10.337372 0.078125l-3.875 0q0 0.09375 0 0.140625q0 0.5625 0.3125 0.921875q0.328125 0.34375 0.796875 0.34375q0.765625 0 1.203125 -0.796875l1.375 0.234375q-0.390625 0.828125 -1.078125 1.25q-0.671875 0.421875 -1.5 0.421875q-1.15625 0 -1.875 -0.734375q-0.71875 -0.734375 -0.71875 -1.921875q0 -1.171875 0.65625 -2.09375q0.875 -1.234375 2.515625 -1.234375q1.046875 0 1.671875 0.65625q0.625 0.640625 0.625 1.8125q0 0.5625 -0.109375 1.0zm-1.3125 -0.9375q0.015625 -0.109375 0.015625 -0.15625q0 -0.640625 -0.296875 -0.953125q-0.28125 -0.3125 -0.75 -0.3125q-0.484375 0 -0.859375 0.359375q-0.375 0.359375 -0.515625 1.0625l2.40625 0z" fill-rule="nonzero"></path><path fill="#000000" fill-opacity="0.0" d="m393.1124 223.31233l0 -176.72441" fill-rule="evenodd"></path><path stroke="#000000" stroke-width="1.0" stroke-linejoin="round" stroke-linecap="butt" d="m393.1124 223.31233l0 -176.72441" fill-rule="evenodd"></path><path fill="#000000" fill-opacity="0.0" d="m9.548036 181.17047l0 -27.118118" fill-rule="evenodd"></path><path stroke="#000000" stroke-width="1.0" stroke-linejoin="round" stroke-linecap="butt" d="m9.548036 181.17047l0 -27.118118" fill-rule="evenodd"></path><path fill="#000000" fill-opacity="0.0" d="m102.55355 46.6287l290.99213 0" fill-rule="evenodd"></path><path stroke="#000000" stroke-width="1.0" stroke-linejoin="round" stroke-linecap="butt" d="m102.55355 46.6287l290.99213 0" fill-rule="evenodd"></path><path fill="#000000" fill-opacity="0.0" d="m148.52087 13.827144l-12.818893 -12.818897" fill-rule="evenodd"></path><path stroke="#000000" stroke-width="1.0" stroke-linejoin="round" stroke-linecap="butt" d="m148.52087 13.827144l-12.818893 -12.818897" fill-rule="evenodd"></path><path fill="#000000" fill-opacity="0.0" d="m148.52087 5.8271437l-4.755905 -4.755905" fill-rule="evenodd"></path><path stroke="#000000" stroke-width="1.0" stroke-linejoin="round" stroke-linecap="butt" d="m148.52087 5.8271437l-4.755905 -4.755905" fill-rule="evenodd"></path><path fill="#000000" fill-opacity="0.0" d="m148.52087 9.836346l-8.724411 -8.72441" fill-rule="evenodd"></path><path stroke="#000000" stroke-width="1.0" stroke-linejoin="round" stroke-linecap="butt" d="m148.52087 9.836346l-8.724411 -8.72441" fill-rule="evenodd"></path><path fill="#000000" fill-opacity="0.0" d="m382.4159 222.84552l-12.818909 -12.818909" fill-rule="evenodd"></path><path stroke="#000000" stroke-width="1.0" stroke-linejoin="round" stroke-linecap="butt" d="m382.4159 222.84552l-12.818909 -12.818909" fill-rule="evenodd"></path><path fill="#000000" fill-opacity="0.0" d="m382.4159 214.84552l-4.7559204 -4.755905" fill-rule="evenodd"></path><path stroke="#000000" stroke-width="1.0" stroke-linejoin="round" stroke-linecap="butt" d="m382.4159 214.84552l-4.7559204 -4.755905" fill-rule="evenodd"></path><path fill="#000000" fill-opacity="0.0" d="m382.4159 218.85472l-8.724426 -8.724411" fill-rule="evenodd"></path><path stroke="#000000" stroke-width="1.0" stroke-linejoin="round" stroke-linecap="butt" d="m382.4159 218.85472l-8.724426 -8.724411" fill-rule="evenodd"></path></g></svg>

