<?xml version="1.0" standalone="yes"?>

<svg version="1.1" viewBox="0.0 0.0 226.96062992125985 116.49606299212599" fill="none" stroke="none" stroke-linecap="square" stroke-miterlimit="10" xmlns="http://www.w3.org/2000/svg" xmlns:xlink="http://www.w3.org/1999/xlink"><clipPath id="p.0"><path d="m0 0l226.96063 0l0 116.49606l-226.96063 0l0 -116.49606z" clip-rule="nonzero"></path></clipPath><g clip-path="url(#p.0)"><path fill="#000000" fill-opacity="0.0" d="m0 0l226.96063 0l0 116.49606l-226.96063 0z" fill-rule="evenodd"></path><path fill="#ffffff" d="m1.5774279 50.548557l223.71654 0l0 27.023624l-223.71654 0z" fill-rule="evenodd"></path><path stroke="#000000" stroke-width="1.0" stroke-linejoin="round" stroke-linecap="butt" d="m1.5774279 50.548557l223.71654 0l0 27.023624l-223.71654 0z" fill-rule="evenodd"></path><path fill="#000000" d="m101.38536 65.23787l1.546875 -0.15625q0.140625 0.78125 0.5625 1.15625q0.4375 0.359375 1.15625 0.359375q0.78125 0 1.15625 -0.328125q0.390625 -0.328125 0.390625 -0.75q0 -0.28125 -0.171875 -0.46875q-0.15625 -0.203125 -0.5625 -0.359375q-0.28125 -0.09375 -1.265625 -0.34375q-1.28125 -0.3125 -1.796875 -0.78125q-0.71875 -0.640625 -0.71875 -1.578125q0 -0.59375 0.328125 -1.109375q0.34375 -0.53125 0.984375 -0.8125q0.640625 -0.28125 1.5625 -0.28125q1.46875 0 2.21875 0.65625q0.75 0.65625 0.796875 1.734375l-1.59375 0.078125q-0.109375 -0.609375 -0.4375 -0.875q-0.328125 -0.265625 -1.0 -0.265625q-0.703125 0 -1.09375 0.28125q-0.25 0.1875 -0.25 0.484375q0 0.28125 0.234375 0.484375q0.296875 0.25 1.453125 0.53125q1.171875 0.265625 1.71875 0.5625q0.5625 0.28125 0.875 0.796875q0.3125 0.5 0.3125 1.25q0 0.6875 -0.375 1.28125q-0.375 0.578125 -1.0625 0.875q-0.6875 0.28125 -1.71875 0.28125q-1.484375 0 -2.296875 -0.6875q-0.796875 -0.6875 -0.953125 -2.015625zm7.5138855 2.5625l0 -7.875l1.5 0l0 7.875l-1.5 0zm2.9606476 -6.484375l0 -1.390625l1.5 0l0 1.390625l-1.5 0zm0 6.484375l0 -5.703125l1.5 0l0 5.703125l-1.5 0zm7.9293976 -4.015625l-1.484375 0.265625q-0.078125 -0.4375 -0.34375 -0.65625q-0.265625 -0.234375 -0.6875 -0.234375q-0.5625 0 -0.90625 0.390625q-0.328125 0.375 -0.328125 1.296875q0 1.015625 0.328125 1.4375q0.34375 0.421875 0.921875 0.421875q0.4375 0 0.703125 -0.25q0.28125 -0.25 0.390625 -0.84375l1.484375 0.25q-0.234375 1.03125 -0.890625 1.546875q-0.65625 0.515625 -1.75 0.515625q-1.265625 0 -2.015625 -0.78125q-0.734375 -0.796875 -0.734375 -2.1875q0 -1.421875 0.75 -2.203125q0.75 -0.78125 2.015625 -0.78125q1.046875 0 1.65625 0.453125q0.625 0.4375 0.890625 1.359375zm4.2546234 2.203125l1.5 0.25q-0.28125 0.828125 -0.90625 1.265625q-0.625 0.421875 -1.578125 0.421875q-1.484375 0 -2.203125 -0.96875q-0.5625 -0.78125 -0.5625 -1.96875q0 -1.421875 0.734375 -2.21875q0.75 -0.796875 1.890625 -0.796875q1.265625 0 2.0 0.84375q0.734375 0.828125 0.703125 2.5625l-3.78125 0q0.015625 0.671875 0.359375 1.046875q0.359375 0.375 0.875 0.375q0.359375 0 0.59375 -0.1875q0.25 -0.203125 0.375 -0.625zm0.078125 -1.53125q-0.015625 -0.65625 -0.34375 -0.984375q-0.3125 -0.34375 -0.765625 -0.34375q-0.5 0 -0.828125 0.359375q-0.3125 0.359375 -0.3125 0.96875l2.25 0z" fill-rule="nonzero"></path><path fill="#ffffff" d="m1.5787021 77.49605l223.71654 0l0 37.22834l-223.71654 0z" fill-rule="evenodd"></path><path stroke="#000000" stroke-width="1.0" stroke-linejoin="round" stroke-linecap="butt" d="m1.5787021 77.49605l223.71654 0l0 37.22834l-223.71654 0z" fill-rule="evenodd"></path><path fill="#000000" d="m12.813077 93.35022l-1.515625 0l0 -5.703125l1.40625 0l0 0.8125q0.359375 -0.578125 0.640625 -0.75q0.296875 -0.1875 0.65625 -0.1875q0.515625 0 1.0 0.28125l-0.46875 1.3125q-0.375 -0.25 -0.703125 -0.25q-0.328125 0 -0.546875 0.1875q-0.21875 0.171875 -0.34375 0.625q-0.125 0.453125 -0.125 1.90625l0 1.765625zm6.006364 -1.8125l1.5 0.25q-0.28125 0.828125 -0.90625 1.265625q-0.625 0.421875 -1.578125 0.421875q-1.484375 0 -2.203126 -0.96875q-0.5625 -0.78125 -0.5625 -1.96875q0 -1.421875 0.734375 -2.21875q0.75000095 -0.796875 1.890626 -0.796875q1.265625 0 2.0 0.84375q0.734375 0.828125 0.703125 2.5625l-3.78125 0q0.015625 0.671875 0.359375 1.046875q0.359375 0.375 0.875 0.375q0.359375 0 0.59375 -0.1875q0.25 -0.203125 0.375 -0.625zm0.078125 -1.53125q-0.015625 -0.65625 -0.34375 -0.984375q-0.3125 -0.34375 -0.765625 -0.34375q-0.5 0 -0.828125 0.359375q-0.3125 0.359375 -0.3125 0.96875l2.25 0zm1.8796234 -2.359375l0.84375 0l0 -0.4375q0 -0.71875 0.140625 -1.0625q0.15625 -0.359375 0.5625 -0.578125q0.421875 -0.234375 1.046875 -0.234375q0.65625 0 1.265625 0.203125l-0.203125 1.046875q-0.359375 -0.078125 -0.6875 -0.078125q-0.328125 0 -0.484375 0.15625q-0.140625 0.140625 -0.140625 0.578125l0 0.40625l1.140625 0l0 1.1875l-1.140625 0l0 4.515625l-1.5 0l0 -4.515625l-0.84375 0l0 -1.1875zm7.5173645 3.890625l1.5 0.25q-0.28125 0.828125 -0.90625 1.265625q-0.625 0.421875 -1.578125 0.421875q-1.484375 0 -2.203125 -0.96875q-0.5625 -0.78125 -0.5625 -1.96875q0 -1.421875 0.734375 -2.21875q0.75 -0.796875 1.890625 -0.796875q1.265625 0 2.0 0.84375q0.734375 0.828125 0.703125 2.5625l-3.78125 0q0.015625 0.671875 0.359375 1.046875q0.359375 0.375 0.875 0.375q0.359375 0 0.59375 -0.1875q0.25 -0.203125 0.375 -0.625zm0.078125 -1.53125q-0.015625 -0.65625 -0.34375 -0.984375q-0.3125 -0.34375 -0.765625 -0.34375q-0.5 0 -0.828125 0.359375q-0.3125 0.359375 -0.3125 0.96875l2.25 0zm3.9889965 3.34375l-1.5156231 0l0 -5.703125l1.4062481 0l0 0.8125q0.359375 -0.578125 0.640625 -0.75q0.296875 -0.1875 0.65625 -0.1875q0.515625 0 1.0 0.28125l-0.46875 1.3125q-0.375 -0.25 -0.703125 -0.25q-0.328125 0 -0.546875 0.1875q-0.21875 0.171875 -0.34375 0.625q-0.125 0.453125 -0.125 1.90625l0 1.765625zm6.006363 -1.8125l1.5 0.25q-0.28125 0.828125 -0.90625 1.265625q-0.625 0.421875 -1.578125 0.421875q-1.484375 0 -2.203125 -0.96875q-0.5625 -0.78125 -0.5625 -1.96875q0 -1.421875 0.734375 -2.21875q0.75 -0.796875 1.890625 -0.796875q1.265625 0 2.0 0.84375q0.734375 0.828125 0.703125 2.5625l-3.78125 0q0.015625 0.671875 0.359375 1.046875q0.359375 0.375 0.875 0.375q0.359375 0 0.59375 -0.1875q0.25 -0.203125 0.375 -0.625zm0.078125 -1.53125q-0.015625 -0.65625 -0.34375 -0.984375q-0.3125 -0.34375 -0.765625 -0.34375q-0.5 0 -0.828125 0.359375q-0.3125 0.359375 -0.3125 0.96875l2.25 0zm7.7389984 3.34375l-1.515625 0l0 -2.90625q0 -0.921875 -0.09375 -1.1875q-0.09375 -0.28125 -0.3125 -0.421875q-0.21875 -0.15625 -0.53125 -0.15625q-0.390625 0 -0.703125 0.21875q-0.3125 0.203125 -0.4375 0.5625q-0.109375 0.34375 -0.109375 1.3125l0 2.578125l-1.5 0l0 -5.703125l1.40625 0l0 0.84375q0.734375 -0.96875 1.875 -0.96875q0.5 0 0.90625 0.1875q0.421875 0.171875 0.625 0.453125q0.21875 0.265625 0.296875 0.625q0.09375 0.359375 0.09375 1.015625l0 3.546875zm6.290512 -4.015625l-1.484375 0.265625q-0.078125 -0.4375 -0.34375 -0.65625q-0.265625 -0.234375 -0.6875 -0.234375q-0.5625 0 -0.90625 0.390625q-0.328125 0.375 -0.328125 1.296875q0 1.015625 0.328125 1.4375q0.34375 0.421875 0.921875 0.421875q0.4375 0 0.703125 -0.25q0.28125 -0.25 0.390625 -0.84375l1.484375 0.25q-0.234375 1.03125 -0.890625 1.546875q-0.65625 0.515625 -1.75 0.515625q-1.265625 0 -2.015625 -0.78125q-0.734375 -0.796875 -0.734375 -2.1875q0 -1.421875 0.75 -2.203125q0.75 -0.78125 2.015625 -0.78125q1.046875 0 1.65625 0.453125q0.625 0.4375 0.890625 1.359375zm4.2546234 2.203125l1.5 0.25q-0.28125 0.828125 -0.90625 1.265625q-0.625 0.421875 -1.578125 0.421875q-1.484375 0 -2.203125 -0.96875q-0.5625 -0.78125 -0.5625 -1.96875q0 -1.421875 0.734375 -2.21875q0.75 -0.796875 1.890625 -0.796875q1.265625 0 2.0 0.84375q0.734375 0.828125 0.703125 2.5625l-3.78125 0q0.015625 0.671875 0.359375 1.046875q0.359375 0.375 0.875 0.375q0.359375 0 0.59375 -0.1875q0.25 -0.203125 0.375 -0.625zm0.078125 -1.53125q-0.015625 -0.65625 -0.34375 -0.984375q-0.3125 -0.34375 -0.765625 -0.34375q-0.5 0 -0.828125 0.359375q-0.3125 0.359375 -0.3125 0.96875l2.25 0z" fill-rule="nonzero"></path><path fill="#000000" d="m59.563046 88.740845l0 -1.09375l1.09375 0l0 1.09375l-1.09375 0zm0 4.609375l0 -1.09375l1.09375 0l0 1.09375l-1.09375 0zm5.765049 0l0 -7.875l1.0625 0l4.140625 6.1875l0 -6.1875l1.0 0l0 7.875l-1.078125 0l-4.125 -6.1875l0 6.1875l-1.0 0zm11.320602 0l0 -0.84375q-0.671875 0.96875 -1.8125 0.96875q-0.5 0 -0.953125 -0.1875q-0.4375 -0.203125 -0.65625 -0.484375q-0.203125 -0.296875 -0.28125 -0.71875q-0.0625 -0.28125 -0.0625 -0.90625l0 -3.53125l0.96875 0l0 3.15625q0 0.765625 0.0625 1.03125q0.09375 0.375 0.375 0.59375q0.296875 0.21875 0.734375 0.21875q0.4375 0 0.8125 -0.21875q0.390625 -0.234375 0.546875 -0.609375q0.15625 -0.390625 0.15625 -1.109375l0 -3.0625l0.96875 0l0 5.703125l-0.859375 0zm2.2702484 0l0 -7.875l1.578125 0l1.859375 5.578125q0.25 0.78125 0.375 1.15625q0.140625 -0.421875 0.421875 -1.25l1.875 -5.484375l1.40625 0l0 7.875l-1.0 0l0 -6.59375l-2.296875 6.59375l-0.9375 0l-2.265625 -6.703125l0 6.703125l-1.015625 0zm8.8767395 0l0 -7.875l1.03125 0l0 6.953125l3.875 0l0 0.921875l-4.90625 0zm5.6139984 -2.53125l0.984375 -0.078125q0.0625 0.578125 0.3125 0.96875q0.265625 0.375 0.796875 0.609375q0.53125 0.234375 1.203125 0.234375q0.609375 0 1.0625 -0.171875q0.453125 -0.1875 0.671875 -0.484375q0.234375 -0.3125 0.234375 -0.6875q0 -0.375 -0.21875 -0.640625q-0.21875 -0.28125 -0.71875 -0.46875q-0.3125 -0.125 -1.40625 -0.375q-1.078125 -0.265625 -1.515625 -0.5q-0.5625 -0.296875 -0.84375 -0.734375q-0.265625 -0.4375 -0.265625 -0.984375q0 -0.59375 0.328125 -1.109375q0.34375 -0.515625 0.984375 -0.78125q0.65625 -0.28125 1.453125 -0.28125q0.875 0 1.546875 0.296875q0.671875 0.28125 1.03125 0.828125q0.359375 0.546875 0.390625 1.234375l-1.0 0.078125q-0.078125 -0.75 -0.546875 -1.125q-0.46875 -0.390625 -1.375 -0.390625q-0.9375 0 -1.375 0.359375q-0.4375 0.34375 -0.4375 0.828125q0 0.421875 0.3125 0.703125q0.296875 0.265625 1.5625 0.5625q1.28125 0.28125 1.75 0.5q0.6875 0.3125 1.015625 0.796875q0.328125 0.484375 0.328125 1.125q0 0.625 -0.359375 1.1875q-0.359375 0.546875 -1.046875 0.859375q-0.671875 0.3125 -1.515625 0.3125q-1.0625 0 -1.78125 -0.3125q-0.71875 -0.3125 -1.140625 -0.9375q-0.40625 -0.625 -0.421875 -1.421875zm7.6388855 2.53125l0 -7.875l1.03125 0l0 7.875l-1.03125 0zm6.3512726 0l0 -0.71875q-0.53125 0.84375 -1.59375 0.84375q-0.671875 0 -1.25 -0.375q-0.578125 -0.375 -0.890625 -1.046875q-0.3125 -0.671875 -0.3125 -1.546875q0 -0.859375 0.28125 -1.546875q0.296875 -0.703125 0.859375 -1.0625q0.5625 -0.375 1.265625 -0.375q0.515625 0 0.921875 0.21875q0.40625 0.21875 0.65625 0.5625l0 -2.828125l0.96875 0l0 7.875l-0.90625 0zm-3.046875 -2.84375q0 1.09375 0.453125 1.640625q0.46875 0.53125 1.09375 0.53125q0.640625 0 1.078125 -0.515625q0.4375 -0.515625 0.4375 -1.578125q0 -1.171875 -0.453125 -1.71875q-0.4375 -0.546875 -1.109375 -0.546875q-0.640625 0 -1.078125 0.53125q-0.421875 0.515625 -0.421875 1.65625zm5.4108734 2.84375l0 -7.875l3.5 0q1.046875 0 1.59375 0.21875q0.546875 0.203125 0.875 0.75q0.328125 0.53125 0.328125 1.1875q0 0.828125 -0.546875 1.40625q-0.53125 0.578125 -1.671875 0.734375q0.421875 0.1875 0.625 0.390625q0.46875 0.421875 0.875 1.046875l1.359375 2.140625l-1.296875 0l-1.046875 -1.640625q-0.453125 -0.703125 -0.75 -1.078125q-0.296875 -0.375 -0.53125 -0.53125q-0.234375 -0.15625 -0.46875 -0.203125q-0.1875 -0.046875 -0.59375 -0.046875l-1.203125 0l0 3.5l-1.046875 0zm1.046875 -4.40625l2.234375 0q0.71875 0 1.125 -0.140625q0.40625 -0.140625 0.609375 -0.46875q0.203125 -0.328125 0.203125 -0.703125q0 -0.5625 -0.40625 -0.921875q-0.390625 -0.359375 -1.265625 -0.359375l-2.5 0l0 2.59375zm10.414352 2.5625l1.0 0.125q-0.234375 0.875 -0.875 1.359375q-0.640625 0.484375 -1.625 0.484375q-1.25 0 -1.984375 -0.765625q-0.734375 -0.765625 -0.734375 -2.15625q0 -1.453125 0.734375 -2.234375q0.75 -0.796875 1.921875 -0.796875q1.15625 0 1.875 0.78125q0.71875 0.765625 0.71875 2.1875q0 0.078125 0 0.25l-4.25 0q0.046875 0.9375 0.515625 1.4375q0.484375 0.5 1.203125 0.5q0.53125 0 0.90625 -0.265625q0.375 -0.28125 0.59375 -0.90625zm-3.171875 -1.5625l3.1875 0q-0.0625 -0.71875 -0.359375 -1.078125q-0.46875 -0.546875 -1.203125 -0.546875q-0.671875 0 -1.125 0.453125q-0.453125 0.4375 -0.5 1.171875zm5.4264984 3.40625l0 -4.953125l-0.84375 0l0 -0.75l0.84375 0l0 -0.609375q0 -0.578125 0.109375 -0.859375q0.140625 -0.375 0.484375 -0.609375q0.359375 -0.234375 0.984375 -0.234375q0.40625 0 0.90625 0.109375l-0.140625 0.84375q-0.3125 -0.0625 -0.578125 -0.0625q-0.4375 0 -0.625 0.1875q-0.171875 0.1875 -0.171875 0.703125l0 0.53125l1.109375 0l0 0.75l-1.109375 0l0 4.953125l-0.96875 0z" fill-rule="nonzero"></path><path fill="#000000" d="m12.938077 106.35022l-2.296875 -5.703125l1.578125 0l1.078125 2.90625l0.3125 0.96875q0.125 -0.359375 0.15625 -0.484375q0.078125 -0.234375 0.15625 -0.484375l1.09375 -2.90625l1.546876 0l-2.265626 5.703125l-1.359375 0zm5.4889994 -3.96875l-1.375 -0.25q0.234375 -0.8125 0.796875 -1.203125q0.5625 -0.40625 1.671875 -0.40625q1.015625 0 1.5 0.234375q0.5 0.234375 0.703125 0.609375q0.203125 0.359375 0.203125 1.34375l-0.015625 1.765625q0 0.75 0.0625 1.109375q0.078125 0.359375 0.28125 0.765625l-1.5 0q-0.0625 -0.15625 -0.140625 -0.453125q-0.03125 -0.125 -0.046875 -0.171875q-0.390625 0.375 -0.84375 0.5625q-0.4375 0.1875 -0.9375 0.1875q-0.875 0 -1.390625 -0.46875q-0.5 -0.484375 -0.5 -1.21875q0 -0.484375 0.234375 -0.859375q0.234375 -0.375 0.640625 -0.578125q0.421875 -0.203125 1.203125 -0.359375q1.0625 -0.1875 1.46875 -0.359375l0 -0.15625q0 -0.4375 -0.21875 -0.609375q-0.21875 -0.1875 -0.8125 -0.1875q-0.390625 0 -0.625 0.15625q-0.21875 0.15625 -0.359375 0.546875zm2.015625 1.234375q-0.296875 0.09375 -0.921875 0.234375q-0.625 0.125 -0.8125 0.25q-0.296875 0.21875 -0.296875 0.53125q0 0.328125 0.234375 0.5625q0.234375 0.21875 0.59375 0.21875q0.40625 0 0.78125 -0.265625q0.28125 -0.203125 0.359375 -0.5q0.0625 -0.1875 0.0625 -0.734375l0 -0.296875zm2.7858734 2.734375l0 -7.875l1.5 0l0 7.875l-1.5 0zm6.7106476 0l0 -0.859375q-0.3125 0.46875 -0.828125 0.734375q-0.5 0.25 -1.0625 0.25q-0.578125 0 -1.03125 -0.25q-0.453125 -0.25 -0.671875 -0.703125q-0.203125 -0.46875 -0.203125 -1.265625l0 -3.609375l1.515625 0l0 2.625q0 1.203125 0.078125 1.46875q0.09375 0.265625 0.3125 0.4375q0.21875 0.15625 0.5625 0.15625q0.375 0 0.6875 -0.203125q0.3125 -0.21875 0.421875 -0.53125q0.109375 -0.328125 0.109375 -1.546875l0 -2.40625l1.515625 0l0 5.703125l-1.40625 0zm6.056135 -1.8125l1.5 0.25q-0.28125 0.828125 -0.90625 1.265625q-0.625 0.421875 -1.578125 0.421875q-1.484375 0 -2.203125 -0.96875q-0.5625 -0.78125 -0.5625 -1.96875q0 -1.421875 0.734375 -2.21875q0.75 -0.796875 1.890625 -0.796875q1.265625 0 2.0 0.84375q0.734375 0.828125 0.703125 2.5625l-3.78125 0q0.015625 0.671875 0.359375 1.046875q0.359375 0.375 0.875 0.375q0.359375 0 0.59375 -0.1875q0.25 -0.203125 0.375 -0.625zm0.078125 -1.53125q-0.015625 -0.65625 -0.34375 -0.984375q-0.3125 -0.34375 -0.765625 -0.34375q-0.5 0 -0.828125 0.359375q-0.3125 0.359375 -0.3125 0.96875l2.25 0z" fill-rule="nonzero"></path><path fill="#000000" d="m38.828106 101.740845l0 -1.09375l1.09375 0l0 1.09375l-1.09375 0zm0 4.609375l0 -1.09375l1.09375 0l0 1.09375l-1.09375 0zm5.265045 -1.703125l0.953125 -0.15625q0.078125 0.578125 0.4375 0.890625q0.375 0.296875 1.03125 0.296875q0.671875 0 0.984375 -0.265625q0.328125 -0.265625 0.328125 -0.640625q0 -0.328125 -0.28125 -0.515625q-0.203125 -0.125 -0.984375 -0.328125q-1.0625 -0.265625 -1.484375 -0.453125q-0.40625 -0.203125 -0.625 -0.546875q-0.203125 -0.34375 -0.203125 -0.765625q0 -0.390625 0.171875 -0.703125q0.171875 -0.328125 0.484375 -0.546875q0.21875 -0.171875 0.609375 -0.28125q0.390625 -0.109375 0.828125 -0.109375q0.671875 0 1.171875 0.1875q0.515625 0.1875 0.75 0.53125q0.25 0.328125 0.34375 0.875l-0.9375 0.125q-0.078125 -0.4375 -0.390625 -0.671875q-0.296875 -0.25 -0.859375 -0.25q-0.671875 0 -0.953125 0.21875q-0.28125 0.21875 -0.28125 0.515625q0 0.1875 0.109375 0.328125q0.125 0.15625 0.375 0.265625q0.140625 0.046875 0.859375 0.25q1.015625 0.265625 1.421875 0.4375q0.40625 0.171875 0.640625 0.515625q0.234375 0.328125 0.234375 0.828125q0 0.484375 -0.28125 0.90625q-0.28125 0.421875 -0.8125 0.65625q-0.53125 0.234375 -1.203125 0.234375q-1.109375 0 -1.703125 -0.453125q-0.578125 -0.46875 -0.734375 -1.375zm7.828125 0.84375l0.125 0.84375q-0.40625 0.09375 -0.71875 0.09375q-0.53125 0 -0.828125 -0.171875q-0.28125 -0.171875 -0.40625 -0.4375q-0.109375 -0.265625 -0.109375 -1.140625l0 -3.28125l-0.71875 0l0 -0.75l0.71875 0l0 -1.40625l0.953125 -0.59375l0 2.0l0.984375 0l0 0.75l-0.984375 0l0 3.34375q0 0.40625 0.046875 0.53125q0.0625 0.109375 0.171875 0.1875q0.125 0.0625 0.328125 0.0625q0.171875 0 0.4375 -0.03125zm0.8356476 0.859375l0 -5.703125l0.859375 0l0 0.859375q0.34375 -0.609375 0.625 -0.796875q0.28125 -0.1875 0.609375 -0.1875q0.5 0 1.0 0.3125l-0.328125 0.890625q-0.359375 -0.203125 -0.71875 -0.203125q-0.3125 0 -0.5625 0.1875q-0.25 0.1875 -0.359375 0.53125q-0.15625 0.515625 -0.15625 1.125l0 2.984375l-0.96875 0zm3.5642395 -6.765625l0 -1.109375l0.96875 0l0 1.109375l-0.96875 0zm0 6.765625l0 -5.703125l0.96875 0l0 5.703125l-0.96875 0zm2.3518524 0l0 -5.703125l0.875 0l0 0.8125q0.625 -0.9375 1.8125 -0.9375q0.515625 0 0.953125 0.1875q0.4375 0.171875 0.640625 0.484375q0.21875 0.296875 0.3125 0.703125q0.046875 0.28125 0.046875 0.953125l0 3.5l-0.96875 0l0 -3.46875q0 -0.59375 -0.109375 -0.875q-0.109375 -0.296875 -0.40625 -0.46875q-0.28125 -0.1875 -0.671875 -0.1875q-0.609375 0 -1.0625 0.390625q-0.453125 0.390625 -0.453125 1.5l0 3.109375l-0.96875 0zm5.754627 0.46875l0.9375 0.140625q0.0625 0.4375 0.328125 0.640625q0.359375 0.265625 0.984375 0.265625q0.671875 0 1.03125 -0.265625q0.375 -0.265625 0.5 -0.75q0.078125 -0.296875 0.078125 -1.25q-0.640625 0.75 -1.59375 0.75q-1.171875 0 -1.8125 -0.84375q-0.640625 -0.859375 -0.640625 -2.046875q0 -0.8125 0.296875 -1.5q0.296875 -0.6875 0.84375 -1.0625q0.5625 -0.375 1.328125 -0.375q1.0 0 1.65625 0.8125l0 -0.6875l0.890625 0l0 4.921875q0 1.34375 -0.265625 1.890625q-0.265625 0.5625 -0.859375 0.875q-0.59375 0.328125 -1.453125 0.328125q-1.015625 0 -1.640625 -0.46875q-0.625 -0.453125 -0.609375 -1.375zm0.796875 -3.421875q0 1.125 0.4375 1.640625q0.453125 0.515625 1.125 0.515625q0.671875 0 1.125 -0.515625q0.453125 -0.515625 0.453125 -1.609375q0 -1.046875 -0.46875 -1.578125q-0.46875 -0.53125 -1.125 -0.53125q-0.640625 0 -1.09375 0.53125q-0.453125 0.515625 -0.453125 1.546875z" fill-rule="nonzero"></path><path fill="#000000" fill-opacity="0.0" d="m113.43569 50.548557l0 -9.6377945" fill-rule="evenodd"></path><path stroke="#000000" stroke-width="1.0" stroke-linejoin="round" stroke-linecap="butt" d="m113.43569 50.548557l0 -9.6377945" fill-rule="evenodd"></path><path fill="#ffffff" d="m107.37695 40.9102l6.0629883 -12.629919l6.062996 12.629919z" fill-rule="evenodd"></path><path stroke="#000000" stroke-width="1.0" stroke-linejoin="round" stroke-linecap="butt" d="m107.37695 40.9102l6.0629883 -12.629919l6.062996 12.629919z" fill-rule="evenodd"></path><path fill="#ffffff" d="m65.70354 1.496063l95.46457 0l0 27.023623l-95.46457 0z" fill-rule="evenodd"></path><path stroke="#000000" stroke-width="1.0" stroke-linejoin="round" stroke-linecap="butt" d="m65.70354 1.496063l95.46457 0l0 27.023623l-95.46457 0z" fill-rule="evenodd"></path><path fill="#000000" d="m90.44596 16.201l1.53125 -0.078125q0.03125 0.734375 0.265625 0.984375q0.34375 0.421875 1.296875 0.421875q0.796875 0 1.15625 -0.28125q0.359375 -0.28125 0.359375 -0.6875q0 -0.359375 -0.296875 -0.59375q-0.203125 -0.171875 -1.125 -0.5625q-0.90625 -0.40625 -1.328125 -0.671875q-0.421875 -0.265625 -0.671875 -0.6875q-0.234375 -0.4375 -0.234375 -1.0q0 -1.0 0.71875 -1.65625q0.71875 -0.65625 2.078125 -0.65625q1.390625 0 2.140625 0.65625q0.765625 0.65625 0.84375 1.734375l-1.546875 0.0625q-0.0625 -0.5625 -0.421875 -0.859375q-0.34375 -0.296875 -1.015625 -0.296875q-0.671875 0 -0.96875 0.234375q-0.28125 0.234375 -0.28125 0.59375q0 0.34375 0.265625 0.5625q0.265625 0.21875 1.15625 0.609375q1.359375 0.59375 1.734375 0.953125q0.546875 0.53125 0.546875 1.375q0 1.046875 -0.828125 1.796875q-0.8125 0.734375 -2.28125 0.734375q-1.015625 0 -1.765625 -0.34375q-0.734375 -0.34375 -1.046875 -0.953125q-0.3125 -0.609375 -0.28125 -1.390625zm6.8576355 2.546875l1.640625 -7.875l5.84375 0l-0.28125 1.3125l-4.21875 0l-0.375 1.796875l4.078125 0l-0.265625 1.3125l-4.078125 0l-0.5 2.140625l4.578125 0l-0.28125 1.3125l-6.140625 0zm7.1388855 0l1.640625 -7.875l2.125 0q0.890625 0 1.125 0.03125q0.5 0.046875 0.875 0.203125q0.390625 0.140625 0.703125 0.421875q0.3125 0.265625 0.53125 0.65625q0.234375 0.375 0.359375 0.875q0.125 0.484375 0.125 1.078125q0 1.28125 -0.484375 2.265625q-0.484375 0.984375 -1.21875 1.5625q-0.5625 0.453125 -1.453125 0.65625q-0.515625 0.125 -1.5625 0.125l-2.765625 0zm1.875 -1.265625l0.828125 0q0.890625 0 1.28125 -0.109375q0.40625 -0.109375 0.734375 -0.40625q0.484375 -0.4375 0.8125 -1.15625q0.328125 -0.734375 0.328125 -1.71875q0 -0.84375 -0.28125 -1.265625q-0.265625 -0.421875 -0.65625 -0.5625q-0.28125 -0.09375 -1.0 -0.09375l-0.9375 0l-1.109375 5.3125zm5.7737274 1.265625l1.65625 -7.875l2.6875 0q0.875 0 1.21875 0.046875q0.578125 0.09375 0.984375 0.34375q0.40625 0.234375 0.609375 0.640625q0.21875 0.390625 0.21875 0.875q0 0.65625 -0.375 1.140625q-0.359375 0.484375 -1.125 0.734375q0.609375 0.15625 0.953125 0.59375q0.34375 0.421875 0.34375 0.953125q0 0.71875 -0.40625 1.359375q-0.40625 0.625 -1.125 0.90625q-0.703125 0.28125 -1.921875 0.28125l-3.71875 0zm2.609375 -4.6875l1.234375 0q0.828125 0 1.1875 -0.125q0.375 -0.125 0.546875 -0.390625q0.1875 -0.265625 0.1875 -0.578125q0 -0.296875 -0.171875 -0.484375q-0.171875 -0.203125 -0.484375 -0.265625q-0.1875 -0.03125 -0.859375 -0.03125l-1.25 0l-0.390625 1.875zm-0.71875 3.421875l1.5625 0q0.984375 0 1.3125 -0.125q0.34375 -0.125 0.546875 -0.40625q0.203125 -0.296875 0.203125 -0.625q0 -0.390625 -0.296875 -0.640625q-0.296875 -0.265625 -0.96875 -0.265625l-1.9375 0l-0.421875 2.0625zm7.9768524 -2.828125l-1.5 -0.125q0.265625 -0.765625 0.90625 -1.1875q0.640625 -0.4375 1.703125 -0.4375q1.09375 0 1.609375 0.453125q0.53125 0.4375 0.53125 1.078125q0 0.25 -0.046875 0.546875q-0.03125 0.296875 -0.3125 1.53125q-0.21875 1.015625 -0.21875 1.421875q0 0.359375 0.125 0.8125l-1.5 0q-0.09375 -0.3125 -0.109375 -0.640625q-0.34375 0.375 -0.78125 0.578125q-0.4375 0.203125 -0.890625 0.203125q-0.703125 0 -1.171875 -0.46875q-0.453125 -0.46875 -0.453125 -1.203125q0 -0.8125 0.5 -1.296875q0.515625 -0.484375 1.8125 -0.59375q1.109375 -0.09375 1.46875 -0.21875q0.109375 -0.328125 0.109375 -0.515625q0 -0.25 -0.203125 -0.40625q-0.203125 -0.171875 -0.59375 -0.171875q-0.40625 0 -0.65625 0.171875q-0.234375 0.15625 -0.328125 0.46875zm1.46875 1.4375q-0.140625 0.03125 -0.359375 0.0625q-1.171875 0.140625 -1.515625 0.40625q-0.265625 0.203125 -0.265625 0.53125q0 0.265625 0.1875 0.453125q0.203125 0.1875 0.515625 0.1875q0.359375 0 0.65625 -0.171875q0.3125 -0.171875 0.46875 -0.4375q0.15625 -0.265625 0.28125 -0.828125l0.03125 -0.203125zm2.0827484 1.0625l1.5 -0.234375q0.203125 0.46875 0.5 0.671875q0.296875 0.1875 0.7968826 0.1875q0.53125 0 0.84375 -0.234375q0.21875 -0.15625 0.21875 -0.390625q0 -0.15625 -0.109375 -0.28125q-0.109375 -0.125 -0.640625 -0.296875q-1.3906326 -0.453125 -1.7343826 -0.71875q-0.515625 -0.421875 -0.515625 -1.09375q0 -0.6875 0.5 -1.171875q0.703125 -0.6875 2.0937576 -0.6875q1.109375 0 1.671875 0.40625q0.5625 0.40625 0.703125 1.09375l-1.421875 0.25q-0.109375 -0.3125 -0.359375 -0.46875q-0.34375 -0.21875 -0.828125 -0.21875q-0.484375 0 -0.703125 0.171875q-0.20313263 0.15625 -0.20313263 0.359375q0 0.21875 0.21875763 0.359375q0.125 0.09375 0.859375 0.296875q1.125 0.328125 1.515625 0.65625q0.53125 0.4375 0.53125 1.0625q0 0.8125 -0.6875 1.421875q-0.671875 0.59375 -1.921875 0.59375q-1.2343826 0 -1.9062576 -0.453125q-0.671875 -0.46875 -0.921875 -1.28125zm11.692131 -0.78125l-3.875 0q0 0.09375 0 0.140625q0 0.5625 0.3125 0.921875q0.328125 0.34375 0.796875 0.34375q0.765625 0 1.203125 -0.796875l1.375 0.234375q-0.390625 0.828125 -1.078125 1.25q-0.671875 0.421875 -1.5 0.421875q-1.15625 0 -1.875 -0.734375q-0.71875 -0.734375 -0.71875 -1.921875q0 -1.171875 0.65625 -2.09375q0.875 -1.234375 2.515625 -1.234375q1.046875 0 1.671875 0.65625q0.625 0.640625 0.625 1.8125q0 0.5625 -0.109375 1.0zm-1.3125 -0.9375q0.015625 -0.109375 0.015625 -0.15625q0 -0.640625 -0.296875 -0.953125q-0.28125 -0.3125 -0.75 -0.3125q-0.484375 0 -0.859375 0.359375q-0.375 0.359375 -0.515625 1.0625l2.40625 0z" fill-rule="nonzero"></path></g></svg>

